<?xml version="1.0" encoding="UTF-8" standalone="no"?>
<!-- Created with Inkscape (http://www.inkscape.org/) -->

<svg
   xmlns:dc="http://purl.org/dc/elements/1.1/"
   xmlns:cc="http://creativecommons.org/ns#"
   xmlns:rdf="http://www.w3.org/1999/02/22-rdf-syntax-ns#"
   xmlns:svg="http://www.w3.org/2000/svg"
   xmlns="http://www.w3.org/2000/svg"
   xmlns:sodipodi="http://sodipodi.sourceforge.net/DTD/sodipodi-0.dtd"
   xmlns:inkscape="http://www.inkscape.org/namespaces/inkscape"
   width="24.595716mm"
   height="21.444736mm"
   viewBox="0 0 24.595717 21.444736"
   version="1.1"
   id="svg1922"
   sodipodi:docname="gbox_yellow.svg"
   inkscape:version="0.92.2 2405546, 2018-03-11">
  <defs
     id="defs1916">
    <inkscape:path-effect
       effect="bspline"
       id="path-effect4840-9-1-28-3-3-9-1-8-33-7-4-9-01"
       is_visible="true"
       weight="33.333333"
       steps="2"
       helper_size="0"
       apply_no_weight="true"
       apply_with_weight="true"
       only_selected="false" />
    <inkscape:path-effect
       effect="bspline"
       id="path-effect4992-2-7-03-4-7-9-1-8-6-3-6-01-6"
       is_visible="true"
       weight="33.333333"
       steps="2"
       helper_size="0"
       apply_no_weight="true"
       apply_with_weight="true"
       only_selected="false" />
    <inkscape:path-effect
       effect="bspline"
       id="path-effect4996-06-2-70-2-9-6-3-4-1-3-4-3-7"
       is_visible="true"
       weight="33.333333"
       steps="2"
       helper_size="0"
       apply_no_weight="true"
       apply_with_weight="true"
       only_selected="false" />
    <inkscape:path-effect
       effect="bspline"
       id="path-effect4880-7-8-7-03-2-8-0-0-5-87-5-5-4-57"
       is_visible="true"
       weight="33.333333"
       steps="2"
       helper_size="0"
       apply_no_weight="true"
       apply_with_weight="true"
       only_selected="false" />
    <inkscape:path-effect
       effect="bspline"
       id="path-effect4880-3-0-9-2-4-4-6-6-3-6-0-0-5-8-8"
       is_visible="true"
       weight="33.333333"
       steps="2"
       helper_size="0"
       apply_no_weight="true"
       apply_with_weight="true"
       only_selected="false" />
    <inkscape:path-effect
       effect="bspline"
       id="path-effect5024-2-2-92-5-7-4-2-5-5-1-5-5-8"
       is_visible="true"
       weight="33.333333"
       steps="2"
       helper_size="0"
       apply_no_weight="true"
       apply_with_weight="true"
       only_selected="false" />
    <inkscape:path-effect
       effect="bspline"
       id="path-effect4840-9-1-28-3-3-9-1-8-33"
       is_visible="true"
       weight="33.333333"
       steps="2"
       helper_size="0"
       apply_no_weight="true"
       apply_with_weight="true"
       only_selected="false" />
    <inkscape:path-effect
       effect="bspline"
       id="path-effect4992-2-7-03-4-7-9-1-8-6"
       is_visible="true"
       weight="33.333333"
       steps="2"
       helper_size="0"
       apply_no_weight="true"
       apply_with_weight="true"
       only_selected="false" />
    <inkscape:path-effect
       effect="bspline"
       id="path-effect4996-06-2-70-2-9-6-3-4-1"
       is_visible="true"
       weight="33.333333"
       steps="2"
       helper_size="0"
       apply_no_weight="true"
       apply_with_weight="true"
       only_selected="false" />
    <inkscape:path-effect
       effect="bspline"
       id="path-effect4880-7-8-7-03-2-8-0-0-5-87"
       is_visible="true"
       weight="33.333333"
       steps="2"
       helper_size="0"
       apply_no_weight="true"
       apply_with_weight="true"
       only_selected="false" />
    <inkscape:path-effect
       effect="bspline"
       id="path-effect4880-3-0-9-2-4-4-6-6-3-6-0"
       is_visible="true"
       weight="33.333333"
       steps="2"
       helper_size="0"
       apply_no_weight="true"
       apply_with_weight="true"
       only_selected="false" />
    <inkscape:path-effect
       effect="bspline"
       id="path-effect5024-2-2-92-5-7-4-2-5-5"
       is_visible="true"
       weight="33.333333"
       steps="2"
       helper_size="0"
       apply_no_weight="true"
       apply_with_weight="true"
       only_selected="false" />
  </defs>
  <sodipodi:namedview
     id="base"
     pagecolor="#ffffff"
     bordercolor="#666666"
     borderopacity="1.0"
     inkscape:pageopacity="0.0"
     inkscape:pageshadow="2"
     inkscape:zoom="2.8"
     inkscape:cx="76.254714"
     inkscape:cy="64.039866"
     inkscape:document-units="mm"
     inkscape:current-layer="g5602-2-7-4-9-2-8-1-4-8-9"
     showgrid="false"
     fit-margin-top="0"
     fit-margin-left="0"
     fit-margin-right="0"
     fit-margin-bottom="0"
     inkscape:window-width="1920"
     inkscape:window-height="1055"
     inkscape:window-x="0"
     inkscape:window-y="0"
     inkscape:window-maximized="1" />
  <metadata
     id="metadata1919">
    <rdf:RDF>
      <cc:Work
         rdf:about="">
        <dc:format>image/svg+xml</dc:format>
        <dc:type
           rdf:resource="http://purl.org/dc/dcmitype/StillImage" />
        <dc:title></dc:title>
      </cc:Work>
    </rdf:RDF>
  </metadata>
  <g
     inkscape:label="Layer 1"
     inkscape:groupmode="layer"
     id="layer1"
     transform="translate(-175.08995,-173.91482)">
    <g
       id="g5602-2-7-4-9-2-8-1-4-8-9"
       transform="matrix(0.87757712,0,0,0.87757712,6.7883203,221.48226)">
      <g
         transform="matrix(1.139501,0,0,1.139501,14.366204,36.641707)"
         id="g5602-2-7-4-9-2-8-1">
        <path
           sodipodi:nodetypes="cccccccccccccccccccccccc"
           inkscape:path-effect="#path-effect4840-9-1-28-3-3-9-1-8-33"
           inkscape:original-d="m 156.95968,-64.230638 c -0.15897,0.82778 -0.31821,1.655823 -0.47772,2.484133 1.13128,-0.478158 2.26147,-0.955702 3.3918,-1.433153 1.57629,0.540994 3.1532,1.082561 4.7294,1.62424 0.63716,1.130221 1.24233,2.260931 1.8631,3.391795 0.98763,0.01566 1.97483,0.03158 2.96185,0.04777 0.47785,-1.098725 0.9557,-2.197764 1.43315,-3.296251 2.0061,-0.509682 4.01309,-1.019394 6.01924,-1.528696 0.50975,0.732121 1.0194,1.464736 1.5287,2.1975 0.84429,-0.828368 1.6882,-1.65635 2.5319,-2.484131 -0.51973,-1.272173 -1.04006,-2.544886 -1.56049,-3.816937 -0.12632,-2.023877 -0.25291,-4.047479 -0.37977,-6.070822 0.29669,-1.322281 0.59312,-2.644296 0.88928,-3.966049 -0.85938,-0.557445 -1.71951,-1.114938 -2.57967,-1.672011 -0.93419,0.0081 -1.8681,0.0164 -2.80313,0.025 -1.27513,-0.123513 -2.5493,-0.246644 -3.82456,-0.36959 -0.73651,-0.219829 -1.47312,-0.439343 -2.21009,-0.658619 -0.66851,-2.64e-4 -1.33734,-2.64e-4 -2.00641,0 -0.57935,0.325408 -1.15819,0.650642 -1.73816,0.97663 -1.53135,0.277992 -3.06104,0.555899 -4.5923,0.834308 -1.0586,-0.126212 -2.11715,-0.252121 -3.17612,-0.377785 -0.58899,0.955291 -1.1781,1.910606 -1.76755,2.866305 0.43355,1.07891 0.86656,2.157385 1.29944,3.236476 0.1563,2.663033 0.31234,5.326326 0.46811,7.989885 z"
           inkscape:connector-curvature="0"
           id="path4838-4-1-52-5-8-0-1-4-1"
           d="m 156.88009,-63.816768 c -0.0796,0.413869 -0.23883,1.241912 0.24719,1.417074 0.48601,0.175161 1.6162,-0.302384 2.96943,-0.270516 1.35323,0.03187 2.93014,0.573433 4.0306,1.412669 1.10046,0.839237 1.71787,1.963227 2.52222,2.536537 0.80436,0.57331 1.79156,0.589232 2.52393,0.0478 0.73238,-0.54143 1.21022,-1.640472 2.45208,-2.444436 1.24187,-0.803965 3.24886,-1.313676 4.50663,-1.202254 1.25778,0.111422 1.76743,0.844038 2.44438,0.796132 0.67694,-0.04791 1.52085,-0.87589 1.68267,-1.925802 0.16183,-1.049911 -0.3585,-2.322625 -0.68186,-3.970646 -0.32336,-1.64802 -0.44995,-3.671622 -0.36498,-5.344465 0.085,-1.672843 0.38138,-2.994858 0.0998,-3.934281 -0.28161,-0.939422 -1.14174,-1.496915 -2.03881,-1.77144 -0.89708,-0.274525 -1.83099,-0.266196 -2.93608,-0.32364 -1.1051,-0.05744 -2.37927,-0.180574 -3.38519,-0.351946 -1.00591,-0.171373 -1.74252,-0.390887 -2.44522,-0.500684 -0.70269,-0.109796 -1.37152,-0.109796 -1.99571,0.05295 -0.62418,0.162747 -1.20302,0.487983 -2.25869,0.790033 -1.05566,0.302051 -2.58535,0.579958 -3.88032,0.656098 -1.29496,0.07614 -2.35351,-0.04977 -3.17752,0.364874 -0.824,0.414644 -1.41311,1.36996 -1.49118,2.387351 -0.0781,1.017392 0.35494,2.095868 0.64955,3.966874 0.29461,1.871005 0.45065,4.534298 0.52867,5.86607 0.078,1.331771 0.078,1.331773 -0.002,1.745643 z"
           style="fill:#bcdb53;fill-opacity:1;stroke:none;stroke-width:0.26458332px;stroke-linecap:butt;stroke-linejoin:miter;stroke-opacity:1" />
        <path
           transform="matrix(0.26458333,0,0,0.26458333,21.622307,-258.90492)"
           sodipodi:nodetypes="ccccsssscsccscccccc"
           inkscape:connector-curvature="0"
           id="path4900-9-0-44-7-4-8-7-8-0"
           d="m 510.98828,737.80078 c -0.19425,2.97671 -0.0342,4.46745 1.15625,4.89649 8.04754,2.06521 11.95782,2.65564 19.05209,5.33777 4.89201,1.8516 13.89806,6.39968 16.93815,8.56652 3.04008,2.16684 6.77102,2.22604 9.53906,0.17969 2.76804,-2.04635 5.55077,-3.73658 10.79964,-5.66348 5.84269,-2.1449 10.02391,-3.33055 15.37347,-4.03423 3.11567,-0.40984 6.80741,-0.89467 9.36595,-1.07573 2.35772,-0.16685 5.24422,-2.83871 5.61328,-6.1289 -0.11578,0.16363 -0.22918,0.34834 -0.3457,0.50195 -1.4036,1.85039 -2.8493,2.91443 -4.67969,2.5957 -1.83042,-0.31874 -4.045,-2.02195 -7.40625,-2.46875 -3.36121,-0.44679 -7.87328,0.36208 -12.49023,2.61719 -4.61696,2.25511 -9.34289,5.95956 -13.19336,8.19336 -3.85043,2.2338 -6.82897,3.00005 -9.8086,1.80859 -2.97962,-1.19145 -5.95876,-4.34097 -10.1289,-6.85156 -4.17014,-2.51058 -9.53303,-4.38381 -14.46875,-5.08594 -4.93573,-0.70212 -9.4467,-0.23458 -12.32031,-1.27734 -1.31203,-0.4761 -2.2703,-1.27071 -2.9961,-2.11133 z"
           style="fill:#000000;fill-opacity:0.2871287;stroke:none;stroke-width:0.99999994px;stroke-linecap:butt;stroke-linejoin:miter;stroke-opacity:1" />
        <path
           inkscape:original-d="m 175.65787,-74.964983 c -2.17289,0.438872 -4.34606,0.878009 -6.51948,1.317411 -0.32632,0.405148 -0.65281,0.810448 -0.97962,1.21607 0.22563,2.523757 0.45067,5.044175 0.6756,7.56666 0.34935,0.731699 0.69838,1.463524 1.04717,2.195681 0.76605,-2.612966 1.53161,-5.224862 2.29702,-7.836897 1.27248,-1.182412 2.545,-2.364846 3.81711,-3.546872 -0.11231,-0.304215 -0.22493,-0.608298 -0.3378,-0.912053 z"
           inkscape:path-effect="#path-effect4992-2-7-03-4-7-9-1-8-6"
           inkscape:connector-curvature="0"
           id="path4990-5-6-38-1-8-9-2-8-3"
           d="m 174.62772,-74.593509 c -1.1427,0.0676 -3.31587,0.506739 -4.56578,0.928899 -1.2499,0.422161 -1.57639,0.827459 -1.62711,2.292175 -0.0507,1.464716 0.17432,3.985134 0.46145,5.612288 0.28713,1.627154 0.63615,2.358981 1.19365,1.418476 0.55749,-0.940505 1.32305,-3.552402 2.34208,-5.449595 1.01904,-1.897194 2.29156,-3.079626 2.8713,-3.822693 0.57973,-0.743068 0.46711,-1.047149 -0.67559,-0.97955 z"
           style="fill:#000000;fill-opacity:0.21782179;stroke:none;stroke-width:0.26458332px;stroke-linecap:butt;stroke-linejoin:miter;stroke-opacity:1" />
        <path
           inkscape:original-d="m 159.00447,-74.559625 c -0.38258,0.224932 -0.76541,0.450133 -1.14851,0.675595 0.1693,1.847865 0.36058,3.692985 0.54047,5.539874 -0.0223,0.833075 -0.0448,1.666203 -0.0676,2.499702 1.30684,-1.757384 2.61256,-3.513357 3.91845,-5.269638 1.15984,-0.732036 2.31981,-1.464053 3.47931,-2.195684 -0.16859,-0.3042 -0.33753,-0.608298 -0.50669,-0.912051 -2.07095,-0.112831 -4.14339,-0.225464 -6.21547,-0.337798 z"
           inkscape:path-effect="#path-effect4996-06-2-70-2-9-6-3-4-1"
           inkscape:connector-curvature="0"
           id="path4994-0-1-60-6-1-3-4-3-0"
           d="m 158.81321,-74.447116 c -0.19127,0.112509 -0.5741,0.337705 -0.67559,1.373797 -0.10149,1.036093 0.0786,2.882302 0.15746,4.222267 0.0788,1.339965 0.0563,2.173092 0.69842,1.711137 0.64213,-0.461955 1.94785,-2.217926 3.18076,-3.462035 1.2329,-1.244109 2.39287,-1.976128 2.88815,-2.49399 0.49528,-0.517863 0.32634,-0.82196 -0.79357,-1.0302 -1.11991,-0.20824 -3.19235,-0.320873 -4.22838,-0.377179 -1.03603,-0.05631 -1.03599,-0.05631 -1.22725,0.0562 z"
           style="fill:#000000;fill-opacity:0.25742576;stroke:none;stroke-width:0.26458332px;stroke-linecap:butt;stroke-linejoin:miter;stroke-opacity:1" />
        <path
           inkscape:original-d="m 174.7179,-71.392994 c 0.33466,0.3023 0.66907,0.60485 1.0032,0.90767 0.23912,-0.33466 0.47799,-0.66907 0.71658,-1.00321 -0.0634,-0.50937 -0.12713,-1.01939 -0.19109,-1.5287 -0.97066,-0.15943 -1.94245,-0.31874 -2.91407,-0.47771 -0.97131,0.4457 -1.94246,0.89147 -2.91408,1.33761 -0.19088,1.09884 -0.38191,2.19723 -0.57326,3.29625 0.23919,1.38549 0.47798,2.77049 0.71658,4.15614 0.65324,0.27048 1.30602,0.54115 1.95864,0.81212 1.14655,-0.23908 2.29331,-0.47798 3.43956,-0.71658 0.33809,-0.84365 0.67608,-1.6875 1.01373,-2.53085 -0.0448,-0.40547 -0.0898,-0.81098 -0.13512,-1.21607 -0.0898,-0.12405 -0.17989,-0.24798 -0.27024,-0.37158 -0.1348,-0.0453 -0.26997,-0.0903 -0.40536,-0.13512 -1.07068,0.18011 -2.13911,0.36005 -3.20907,0.54048 -0.1011,0.0786 -0.20241,0.15737 -0.30402,0.23646 -0.0562,0.24817 -0.11233,0.49517 -0.1689,0.74315 0.21447,0.0561 0.42815,0.11233 0.64182,0.1689 0.79904,-0.18027 1.59917,-0.36058 2.39836,-0.54048 0.13533,0.10104 0.2705,0.20242 0.40536,0.30402 -0.0335,0.28115 -0.0673,0.56273 -0.10134,0.84449 -0.4506,0.49569 -0.90053,0.99061 -1.35119,1.48631 -0.63064,0.0561 -1.26085,0.11234 -1.89167,0.1689 -0.47286,-0.55225 -0.94556,-1.10374 -1.41875,-1.65521 -0.10106,-1.04739 -0.20241,-2.0946 -0.30401,-3.14151 0.32673,-0.8108 0.65334,-1.62169 0.97961,-2.43214 0.76564,-0.0565 1.53161,-0.11286 2.29702,-0.1689 0.30417,0.0898 0.6083,0.17989 0.91205,0.27024 -0.10978,0.21472 -0.21996,0.42995 -0.33034,0.64532 z"
           inkscape:path-effect="#path-effect4880-7-8-7-03-2-8-0-0-5-87"
           inkscape:connector-curvature="0"
           id="path4878-4-5-8-9-6-1-1-8-0"
           d="m 174.94025,-71.349421 c 0.11207,0.258997 0.44647,0.561556 0.73319,0.545478 0.28673,-0.01608 0.5256,-0.35049 0.61308,-0.772209 0.0875,-0.421719 0.0237,-0.931736 -0.49345,-1.265974 -0.51719,-0.334239 -1.48898,-0.493546 -2.46039,-0.350271 -0.97141,0.143274 -1.94256,0.589047 -2.52395,1.361456 -0.58139,0.772409 -0.77241,1.8708 -0.74854,3.1131 0.0239,1.242299 0.26267,2.627298 0.70867,3.455498 0.44601,0.8282 1.09879,1.098866 1.99846,1.114755 0.89967,0.01589 2.04643,-0.223021 2.78851,-0.764272 0.74208,-0.541252 1.08008,-1.385097 1.22644,-2.009467 0.14637,-0.624369 0.10131,-1.029873 0.0338,-1.294361 -0.0675,-0.264487 -0.15766,-0.388398 -0.27014,-0.472792 -0.11248,-0.08439 -0.24763,-0.129445 -0.8506,-0.06183 -0.60297,0.06761 -1.6714,0.247558 -2.25694,0.376975 -0.58554,0.129416 -0.68684,0.208202 -0.76586,0.371792 -0.079,0.163589 -0.13515,0.410588 -0.0561,0.562809 0.079,0.152221 0.29269,0.208453 0.7991,0.14654 0.50642,-0.06191 1.30655,-0.242225 1.77368,-0.281604 0.46713,-0.03938 0.6023,0.062 0.65297,0.253214 0.0507,0.191216 0.0169,0.472797 -0.22533,0.861529 -0.24221,0.388732 -0.69214,0.883653 -1.23278,1.159662 -0.54063,0.276009 -1.17084,0.332278 -1.72283,0.08444 -0.552,-0.24784 -1.0247,-0.799327 -1.31183,-1.598867 -0.28713,-0.799539 -0.38847,-1.84675 -0.27583,-2.775647 0.11264,-0.928896 0.43925,-1.739787 0.98528,-2.173133 0.54603,-0.433347 1.31201,-0.489669 1.84674,-0.472759 0.53474,0.01691 0.83886,0.107022 0.93584,0.259369 0.097,0.152347 -0.0132,0.367579 0.0989,0.626575 z"
           style="fill:#b99e1f;fill-opacity:1;stroke:none;stroke-width:0.26458332px;stroke-linecap:butt;stroke-linejoin:miter;stroke-opacity:1" />
        <path
           inkscape:connector-curvature="0"
           style="fill:#000000;fill-opacity:0.2739274;stroke:none;stroke-width:0.99999994px;stroke-linecap:butt;stroke-linejoin:miter;stroke-opacity:1"
           d="m 958.125,293.14648 c -8.54947,1.4515 -18.20979,4.48305 -24.8457,6.83985 -8.72693,3.09945 -12.21665,5.0248 -14.56446,7.91406 -2.34784,2.88926 -3.55213,6.74016 -3.79296,14.86719 -0.24076,8.12702 0.48241,20.52085 2.10742,30.72265 0.33685,2.1147 0.72912,4.10966 1.17382,6.02344 0.41678,-0.20283 0.82098,-0.4426 1.20508,-0.72656 2.76804,-2.04635 4.57393,-6.19968 9.26758,-9.23828 4.69365,-3.03861 12.27941,-4.96409 17.0332,-4.54297 4.7538,0.42112 6.67974,3.18887 9.23829,3.00781 2.55854,-0.18106 5.74971,-3.30917 6.36132,-7.27734 0.61162,-3.96817 -1.35598,-8.77908 -2.57812,-15.00781 -1.22214,-6.22874 -1.70002,-13.87667 -1.37891,-20.19922 0.25249,-4.97149 0.98331,-9.10934 0.77344,-12.38282 z"
           transform="matrix(0.26458333,0,0,0.26458333,-74.086782,-153.60253)"
           id="path5561-9-8-8-4-6-7-4" />
        <path
           inkscape:original-d="m 175.04429,-71.252304 c 0.33466,0.3023 0.66907,0.60485 1.0032,0.90768 0.23912,-0.33467 0.47799,-0.66908 0.71658,-1.00322 -0.0634,-0.50937 -0.12713,-1.01939 -0.19109,-1.5287 -0.97066,-0.15943 -1.94245,-0.31874 -2.91407,-0.47771 -0.97131,0.4457 -1.94246,0.89147 -2.91408,1.33761 -0.19088,1.09884 -0.38191,2.19723 -0.57326,3.29626 0.23919,1.38548 0.47798,2.77048 0.71658,4.15613 0.65324,0.27048 1.30602,0.54116 1.95864,0.81212 1.14655,-0.23907 2.29331,-0.47797 3.43956,-0.71657 0.33809,-0.84366 0.67608,-1.6875 1.01373,-2.53086 -0.0448,-0.40547 -0.0898,-0.81097 -0.13512,-1.21607 -0.0898,-0.12404 -0.17989,-0.24797 -0.27024,-0.37158 -0.1348,-0.0453 -0.26997,-0.0903 -0.40536,-0.13512 -1.07068,0.18011 -2.13911,0.36005 -3.20907,0.54048 -0.1011,0.0786 -0.20241,0.15738 -0.30402,0.23647 -0.0562,0.24816 -0.11233,0.49516 -0.1689,0.74314 0.21447,0.0561 0.42815,0.11234 0.64182,0.16891 0.79904,-0.18028 1.59917,-0.36058 2.39836,-0.54048 0.13533,0.10103 0.2705,0.20242 0.40536,0.30402 -0.0335,0.28115 -0.0673,0.56272 -0.10134,0.84449 -0.4506,0.49569 -0.90053,0.99061 -1.35119,1.4863 -0.63064,0.0561 -1.26085,0.11235 -1.89167,0.16891 -0.47286,-0.55225 -0.94556,-1.10375 -1.41875,-1.65521 -0.10106,-1.0474 -0.20241,-2.09461 -0.30401,-3.14152 0.32673,-0.8108 0.65334,-1.62169 0.97961,-2.43214 0.76564,-0.0565 1.53161,-0.11286 2.29702,-0.1689 0.30417,0.0898 0.6083,0.17989 0.91205,0.27024 -0.10978,0.21472 -0.21996,0.42995 -0.33034,0.64532 z"
           inkscape:path-effect="#path-effect4880-3-0-9-2-4-4-6-6-3-6-0"
           inkscape:connector-curvature="0"
           id="path4878-6-8-9-22-1-5-8-5-5-5"
           d="m 175.26663,-71.20873 c 0.11207,0.258998 0.44647,0.561559 0.7332,0.54548 0.28673,-0.01608 0.5256,-0.350492 0.61308,-0.772211 0.0875,-0.42172 0.0237,-0.931737 -0.49345,-1.265975 -0.51719,-0.334239 -1.48898,-0.493546 -2.46039,-0.350271 -0.97141,0.143274 -1.94256,0.589047 -2.52395,1.361457 -0.58139,0.772409 -0.77241,1.8708 -0.74854,3.113099 0.0239,1.242299 0.26267,2.627298 0.70867,3.455498 0.44601,0.8282 1.09879,1.098867 1.99846,1.114757 0.89967,0.01589 2.04643,-0.223016 2.78851,-0.76427 0.74208,-0.541255 1.08008,-1.385092 1.22644,-2.009466 0.14637,-0.624374 0.10132,-1.029868 0.0338,-1.294357 -0.0675,-0.26449 -0.15766,-0.3884 -0.27014,-0.472798 -0.11248,-0.0844 -0.24763,-0.129448 -0.8506,-0.06184 -0.60297,0.06761 -1.6714,0.247558 -2.25694,0.376976 -0.58554,0.129417 -0.68684,0.208209 -0.76586,0.371795 -0.079,0.163585 -0.13515,0.410584 -0.0561,0.562807 0.079,0.152223 0.29269,0.208458 0.79911,0.146546 0.50642,-0.06191 1.30654,-0.242223 1.77367,-0.281604 0.46713,-0.03938 0.6023,0.062 0.65297,0.253216 0.0507,0.191216 0.0169,0.472787 -0.22533,0.861523 -0.24222,0.388736 -0.69215,0.883656 -1.23278,1.159663 -0.54063,0.276007 -1.17084,0.332279 -1.72283,0.08444 -0.552,-0.247838 -1.0247,-0.799331 -1.31183,-1.598873 -0.28713,-0.799541 -0.38847,-1.846752 -0.27583,-2.775649 0.11264,-0.928896 0.43925,-1.739787 0.98528,-2.173133 0.54603,-0.433347 1.31201,-0.489669 1.84674,-0.472759 0.53474,0.01691 0.83886,0.107022 0.93584,0.259369 0.097,0.152347 -0.0132,0.367579 0.0989,0.626576 z"
           style="fill:#e0b800;fill-opacity:1;stroke:none;stroke-width:0.26458332px;stroke-linecap:butt;stroke-linejoin:miter;stroke-opacity:1" />
        <path
           sodipodi:nodetypes="ccccccccccccccccccccccccc"
           inkscape:original-d="m 158.76801,-77.194444 c -0.54021,-0.01154 -1.08069,-0.02278 -1.62143,-0.03378 -0.33769,0.439079 -0.67533,0.878009 -1.01339,1.317408 0.27068,0.484237 0.54074,0.968089 0.81071,1.45253 1.23909,0.06731 2.47745,0.134853 3.71577,0.202676 1.47502,0.281178 2.95037,0.562732 4.42515,0.844495 0.40556,0.461327 0.81098,0.923049 1.21607,1.384969 0.25925,1.170813 0.51822,2.341796 0.77693,3.513093 0.0228,2.071904 0.0453,4.14338 0.0676,6.21547 2.7e-4,0.675415 2.7e-4,1.350922 0,2.026782 0.45084,-2.65e-4 0.90106,-2.65e-4 1.35119,0 0.14656,-0.495409 0.29302,-0.991137 0.43914,-1.486307 -0.2698,-2.160792 -0.54021,-4.32407 -0.81072,-6.485708 0.0341,-1.295019 0.0678,-2.567524 0.10134,-3.850891 0.27045,-0.551881 0.54074,-1.126255 0.81072,-1.688986 2.23972,-0.72049 4.48171,-1.441532 6.72216,-2.161903 0.92345,-0.214172 1.84689,-0.428141 2.76994,-0.641813 0.0115,-0.225388 0.0228,-0.450662 0.0338,-0.675595 -0.29213,-0.191447 -0.58525,-0.383103 -0.87827,-0.574257 -0.31508,0.157409 -0.63029,0.315013 -0.94584,0.472916 -0.9916,0.540756 -1.98147,1.080688 -2.97261,1.621428 -1.71179,0.439012 -3.42275,0.878009 -5.13452,1.317411 -1.0471,-0.06784 -2.09408,-0.135385 -3.14151,-0.202679 -1.28367,-0.248042 -2.567,-0.495702 -3.85089,-0.743154 -0.95685,-0.608297 -1.91397,-1.216337 -2.87134,-1.824105 z"
           inkscape:path-effect="#path-effect5024-2-2-92-5-7-4-2-5-5"
           inkscape:connector-curvature="0"
           id="path5022-7-4-31-3-2-9-7-2-4"
           d="m 158.97649,-76.896034 c -0.7487,-0.309665 -1.28918,-0.320925 -1.72841,-0.107033 -0.43923,0.213892 -0.77687,0.652823 -0.8107,1.114742 -0.0338,0.46192 0.23623,0.945774 0.99091,1.221699 0.75468,0.275925 1.99304,0.343471 3.34969,0.517984 1.35665,0.174514 2.832,0.456069 3.77206,0.827584 0.94006,0.371514 1.34548,0.833239 1.67764,1.649516 0.33215,0.816277 0.59112,1.987261 0.7319,3.608828 0.14077,1.621568 0.1633,3.693044 0.17457,5.066795 0.0113,1.373751 0.0113,2.049258 0.23669,2.387188 0.22542,0.33793 0.67564,0.33793 0.9739,0.0902 0.29826,-0.24773 0.44472,-0.743456 0.38282,-2.071394 -0.0619,-1.327938 -0.33232,-3.491216 -0.45038,-5.219563 -0.11807,-1.728348 -0.0846,-3.000858 0.0653,-3.919561 0.14985,-0.918702 0.42454,-1.490965 1.67947,-2.132469 1.25493,-0.641504 3.49692,-1.362547 5.07887,-1.829802 1.58194,-0.467256 2.50539,-0.681223 2.97253,-0.900855 0.46714,-0.219633 0.47841,-0.444909 0.33787,-0.652939 -0.14054,-0.20803 -0.43366,-0.399687 -0.73758,-0.416661 -0.30393,-0.01697 -0.61914,0.14063 -1.27271,0.489954 -0.65358,0.349323 -1.64345,0.889254 -2.99492,1.379178 -1.35146,0.489923 -3.06242,0.92892 -4.44189,1.11475 -1.37947,0.185831 -2.42645,0.118283 -3.59202,-0.03937 -1.16557,-0.157656 -2.4489,-0.405316 -3.56934,-0.83319 -1.12043,-0.427874 -2.07755,-1.035914 -2.82625,-1.345578 z"
           style="fill:#ffffff;fill-opacity:0.83168317;stroke:none;stroke-width:0.26458332px;stroke-linecap:butt;stroke-linejoin:miter;stroke-opacity:1" />
        <path
           id="path6860-8-3-1-6-8-4-2"
           transform="matrix(0.26458333,0,0,0.26458333,80.754328,-129.72482)"
           d="m 327.78125,188.98633 c -1.25884,0.025 -2.48059,0.17877 -3.66016,0.48633 -2.35912,0.61511 -4.54719,1.84276 -8.53711,2.98437 -3.98991,1.14161 -9.77165,2.1927 -14.66601,2.48047 -4.89436,0.28777 -8.89543,-0.18825 -12.00977,1.37891 -0.8562,0.43085 -1.63562,1.02829 -2.33593,1.73047 2.67082,-1.20105 5.37345,-1.38493 8.17968,-1.42969 3.99973,-0.0638 8.21396,0.10541 13.51172,-1.10742 5.29777,-1.21285 11.68144,-3.80909 15.46875,-5.04297 3.78732,-1.23388 4.97934,-1.10518 8.27539,-0.31836 3.29609,0.78681 8.70447,2.23365 14.47071,2.95703 5.76627,0.72338 11.89619,0.72368 15.85351,1.23437 3.95736,0.5107 5.74539,1.53165 7.14453,3.04297 1.39911,1.51133 2.41079,3.51503 2.4961,7.04688 0.0854,3.53185 -0.75621,8.59292 -0.5918,15.10547 0.16441,6.51255 1.33122,14.44644 2.55469,19.83984 0.72981,3.21711 1.45858,5.44686 2.06445,7.22461 -0.45257,-3.15331 -1.64625,-6.78588 -2.49609,-11.11719 -1.22214,-6.22874 -1.70002,-13.87666 -1.37891,-20.19922 0.32111,-6.32255 1.44131,-11.32052 0.37695,-14.87109 -1.06435,-3.55057 -4.31456,-5.65774 -7.70507,-6.69531 -3.39052,-1.03758 -6.92092,-1.00555 -11.09766,-1.22266 -4.17674,-0.21711 -8.99303,-0.68237 -12.79492,-1.33008 -3.8019,-0.64771 -6.58634,-1.4776 -9.24219,-1.89258 -1.32792,-0.20749 -2.62202,-0.31017 -3.88086,-0.28515 z"
           style="fill:#000000;fill-opacity:0.21782179;stroke:none;stroke-width:0.99999994px;stroke-linecap:butt;stroke-linejoin:miter;stroke-opacity:0.36633684"
           inkscape:connector-curvature="0" />
      </g>
    </g>
  </g>
</svg>
