<?xml version="1.0" encoding="UTF-8" standalone="no"?>
<svg
   xmlns:dc="http://purl.org/dc/elements/1.1/"
   xmlns:cc="http://creativecommons.org/ns#"
   xmlns:rdf="http://www.w3.org/1999/02/22-rdf-syntax-ns#"
   xmlns:svg="http://www.w3.org/2000/svg"
   xmlns="http://www.w3.org/2000/svg"
   id="svg8"
   version="1.1"
   viewBox="0 0 138.99007 134.2296"
   height="134.2296mm"
   width="138.99007mm">
  <defs
     id="defs2">
    <filter
       style="color-interpolation-filters:sRGB"
       id="filter8633">
      <feOffset
         dy="3"
         dx="3"
         id="feOffset8623" />
      <feGaussianBlur
         stdDeviation="3"
         result="blur"
         id="feGaussianBlur8625" />
      <feFlood
         flood-color="rgb(0,0,0)"
         flood-opacity="1"
         result="flood"
         id="feFlood8627" />
      <feComposite
         in="flood"
         in2="SourceGraphic"
         operator="in"
         result="composite"
         id="feComposite8629" />
      <feBlend
         in="blur"
         in2="composite"
         mode="normal"
         id="feBlend8631" />
    </filter>
  </defs>
  <metadata
     id="metadata5">
    <rdf:RDF>
      <cc:Work
         rdf:about="">
        <dc:format>image/svg+xml</dc:format>
        <dc:type
           rdf:resource="http://purl.org/dc/dcmitype/StillImage" />
        <dc:title></dc:title>
      </cc:Work>
    </rdf:RDF>
  </metadata>
  <g
     transform="translate(-28.456956,-41.066945)"
     id="layer1">
    <g
       transform="translate(-86.927664,6.5641201)"
       id="g2044">
      <g
         id="layer1-3"
         transform="translate(29.739505,273.46595)" />
      <g
         id="layer2"
         transform="translate(29.739505,273.46595)" />
      <g
         id="layer3"
         transform="translate(29.739505,273.46595)" />
      <g
         id="g9602"
         transform="matrix(0.88314043,0,0,0.88314043,77.124036,224.49837)">
        <g
           id="g3107"
           transform="matrix(3.3532469,0,0,3.5591098,-269.33771,277.37777)"
           style="fill:#dddddd;fill-opacity:1">
          <path
             style="fill:#dddddd;fill-opacity:1;fill-rule:evenodd;stroke:none;stroke-width:0.54735005;stroke-linecap:butt;stroke-linejoin:miter;stroke-miterlimit:4;stroke-dasharray:none;stroke-opacity:1"
             d="m 114.91256,-136.00699 c -0.71208,0.008 -1.37622,0.0651 -1.97093,0.17447 -2.37882,0.43741 -3.68828,1.70524 -4.94497,2.67109 -1.25667,0.96585 -2.46171,1.63065 -2.95001,1.67215 -0.48829,0.0415 -0.25994,-0.54029 -0.89364,-1.4232 -0.6337,-0.88291 -2.11444,-2.05509 -3.279,-2.44335 -1.164565,-0.38827 -1.966838,0.0231 -1.603325,0.82304 0.363512,0.79994 1.901275,1.98453 2.378985,2.75303 0.47771,0.76848 -0.10378,1.12161 -1.205,0.7477 -1.101216,-0.37392 -2.711771,-1.46795 -3.715338,-1.56215 -1.003566,-0.0942 -1.375121,0.81414 -0.647957,1.83229 0.727163,1.01815 2.555943,2.14024 3.230966,2.97104 0.675022,0.83081 0.197378,1.371 -0.747993,1.13215 -0.94537,-0.23887 -2.358134,-1.25686 -3.085321,-1.35045 -0.727185,-0.0936 -0.768962,0.73755 0.103686,1.80766 0.872648,1.07011 2.65931,2.37883 3.781319,2.90858 1.122008,0.52975 1.579208,0.28048 1.869988,0.67522 0.29076,0.39474 0.41548,1.43384 0.38433,2.35826 -0.0312,0.92442 -0.21829,1.73472 -0.0937,3.73965 0.12463,2.00493 0.56112,5.20448 2.66997,7.59388 2.10886,2.3894 5.88984,3.96823 10.37765,4.24871 4.48782,0.28047 9.68221,-0.73745 12.78825,-2.06721 3.10605,-1.32976 4.1239,-2.97111 4.84067,-5.37083 0.71677,-2.39972 1.13218,-5.55768 0.91401,-8.71571 -0.21817,-3.15803 -0.99155,-6.02562 -2.94211,-8.61202 -1.95056,-2.58639 -4.92162,-4.31068 -8.14187,-5.37026 -2.41519,-0.79468 -4.98247,-1.21692 -7.11871,-1.19374 z m -1.79366,1.21494 c 0.0436,-0.002 0.0853,0.003 0.12162,0.0189 0.14529,0.0623 0.20765,0.29111 0.14535,0.45721 -0.0623,0.16611 -0.26523,0.27884 -0.81824,0.55491 -0.55301,0.27607 -1.48812,0.73315 -2.24641,1.44985 -0.7583,0.71671 -1.34066,1.69421 -1.7143,2.23393 -0.37364,0.53972 -0.53973,0.64366 -0.71637,0.64371 -0.17664,5e-5 -0.36347,-0.10381 -0.44667,-0.27015 -0.0832,-0.16633 -0.0625,-0.39475 0.33234,-0.98691 0.3948,-0.59212 1.1633,-1.54775 2.036,-2.26458 0.8727,-0.71684 1.84917,-1.19464 2.33733,-1.43352 0.48816,-0.23887 0.48829,-0.23877 0.60265,-0.29077 0.0858,-0.039 0.23574,-0.10721 0.3667,-0.11259 z m 7.74629,2.85415 c 1.80806,-0.004 3.54285,0.31112 4.94223,1.0634 0.42308,0.22744 0.8146,0.49562 1.17885,0.79439 -0.83107,-0.28158 -1.94045,-0.64383 -2.87734,-0.88291 -1.25812,-0.32105 -2.20176,-0.41957 -3.98413,-0.0985 -1.78236,0.32102 -4.40302,1.06171 -6.22142,2.13281 -1.81839,1.0711 -2.82773,2.46359 -3.23097,4.48935 -0.40323,2.02576 -0.19008,4.63493 0.28886,6.31935 0.47893,1.68442 1.22184,2.42855 1.97063,3.19076 0.74879,0.76222 1.49722,1.5361 2.44557,2.27604 0.94835,0.73994 2.08639,1.43764 3.48243,1.79964 1.39603,0.36199 3.04722,0.38687 5.0225,-0.34034 1.97529,-0.7272 4.30224,-2.22404 5.49471,-3.64396 1.19247,-1.41993 1.26453,-2.77197 1.11712,-3.63307 -0.14741,-0.8611 -0.51451,-1.23143 -0.89759,-1.42378 -0.38308,-0.19235 -0.78222,-0.20678 -2.98102,-0.0524 -2.19879,0.15435 -6.19525,0.47747 -8.525,0.3982 -2.32975,-0.0793 -2.99174,-0.56096 -3.28448,-0.88778 -0.29274,-0.32683 -0.11678,-0.72289 1.19375,-0.77836 1.31053,-0.0555 3.80548,0.11749 6.46832,0.1484 2.66284,0.0309 5.49347,-0.0803 6.9761,-0.29908 1.32647,-0.19574 1.57875,-0.49106 1.7894,-1.05939 0.38793,1.51438 0.53896,2.90496 0.5312,4.29484 -0.0111,1.98944 -0.34586,3.97909 -2.19776,5.80283 -1.8519,1.82375 -5.2213,3.48179 -7.99927,3.87973 -2.77796,0.39795 -4.96461,-0.4643 -7.16249,-2.0228 -2.19789,-1.5585 -4.40683,-3.81332 -5.46674,-6.79776 -1.05992,-2.98445 -0.9707,-6.69797 0.43511,-9.29554 1.40582,-2.59757 4.1278,-4.0785 7.26284,-4.84114 1.37157,-0.33366 2.82232,-0.52975 4.22859,-0.53285 z m 1.03868,0.98634 c 0.74311,-0.0103 1.36663,0.11123 2.18529,0.32658 1.30986,0.34456 3.11932,0.92966 4.30005,1.92167 1.18073,0.99201 1.73255,2.39069 2.15337,3.59498 0.42081,1.2043 0.71029,2.21339 0.16328,2.81089 -0.54702,0.59749 -1.93066,0.78263 -5.04287,0.82333 -3.1122,0.0407 -7.95489,-0.0631 -10.57194,-0.13579 -0.20346,-0.006 -0.37061,-0.011 -0.54823,-0.0166 -0.18579,0.14377 -0.36371,0.30456 -0.49045,0.47469 -0.27881,0.37429 -0.31075,0.78815 0.19126,1.26622 0.3042,0.28971 0.80287,0.60268 1.13354,0.95654 0.4735,-0.0502 0.99788,-0.0985 1.60545,-0.1461 2.78406,-0.21814 7.06188,-0.42568 9.35873,-0.54 2.29685,-0.11437 2.60859,-0.13521 2.93055,0.0206 0.32196,0.15583 0.65427,0.48815 0.79969,1.21523 0.14541,0.72707 0.10405,1.84929 -0.93469,3.14779 -1.03874,1.29849 -3.07526,2.77352 -5.04895,3.5838 -1.97368,0.81027 -3.8849,0.95571 -5.91067,0 -2.02569,-0.95567 -4.16592,-3.01225 -5.23595,-4.04073 -0.97724,-0.93931 -1.06138,-1.02271 -1.10041,-1.24359 -0.0113,-0.0187 -0.0229,-0.0362 -0.034,-0.0556 -0.42209,-0.73264 -0.74045,-1.99065 -0.90763,-3.64654 -0.16453,-1.62969 -0.18193,-3.64459 0.42478,-4.29225 0.0284,-0.17121 0.0674,-0.34392 0.12162,-0.5168 0.38442,-1.22592 1.4648,-2.45168 3.19965,-3.40733 1.73485,-0.95567 4.12373,-1.6411 5.72367,-1.93199 0.59998,-0.10909 1.08904,-0.16284 1.53491,-0.16902 z m -3.88227,1.50829 c -0.50485,0.007 -0.9573,0.33816 -1.26642,0.69269 -0.35328,0.40518 -0.51921,0.84143 -0.60235,1.05968 -0.0831,0.21824 -0.0833,0.21822 -0.073,0.63368 0.0104,0.41545 0.0314,1.24659 0.36396,1.57905 0.33256,0.33245 0.97629,0.1662 1.64102,-0.36354 0.66473,-0.52974 1.35055,-1.42345 1.37133,-2.16088 0.0208,-0.73743 -0.62329,-1.31926 -1.21534,-1.42321 -0.074,-0.013 -0.14711,-0.0185 -0.21923,-0.0175 z m -0.63032,0.73624 c 0.14535,-0.008 0.27362,0.0533 0.26575,0.18019 -0.009,0.14497 -0.19677,0.37659 -0.39133,0.51795 -0.19455,0.14132 -0.3965,0.19279 -0.4719,0.10829 -0.0755,-0.0845 -0.0232,-0.30815 0.0866,-0.47727 0.10987,-0.16912 0.27867,-0.29061 0.44758,-0.32171 0.0211,-0.004 0.0425,-0.006 0.0632,-0.007 z m -10.51022,0.0831 c 0.0295,-0.001 0.0587,-6e-4 0.0873,0.002 0.22847,0.0208 0.41559,0.16622 0.42599,0.37385 0.0104,0.20763 -0.16536,0.49297 -0.3892,0.62051 -0.22385,0.1275 -0.51454,0.12754 -0.66012,-0.0284 -0.14554,-0.1559 -0.14548,-0.46741 -0.0103,-0.67523 0.11824,-0.18181 0.3398,-0.28398 0.5464,-0.29277 z m 15.68597,0.0163 c -0.44809,0.002 -0.81531,0.11065 -1.01131,0.16844 -0.22401,0.066 -0.22396,0.0661 -0.54823,0.32601 -0.32427,0.25993 -0.97287,0.77989 -1.03594,1.24588 -0.0631,0.46599 0.4593,0.87744 1.28345,1.08545 0.82415,0.20802 1.95054,0.21244 2.54986,-0.21772 0.59933,-0.43015 0.67213,-1.29511 0.3962,-1.82914 -0.27594,-0.53403 -0.90092,-0.73726 -1.43731,-0.77291 -0.067,-0.004 -0.13271,-0.006 -0.19672,-0.006 z m -0.87084,0.60933 c 0.0114,0.001 0.0241,0.005 0.041,0.009 0.068,0.0184 0.20417,0.0553 0.24447,0.14696 0.0403,0.0917 -0.0149,0.23874 -0.20585,0.38016 -0.19092,0.14141 -0.51749,0.27719 -0.67381,0.26069 -0.15632,-0.0165 -0.14167,-0.18539 -0.0185,-0.34521 0.12312,-0.15979 0.35447,-0.31039 0.47008,-0.38559 0.0867,-0.0565 0.1085,-0.0707 0.1426,-0.0665 z m 4.92916,0.61277 c -0.15558,0.005 -0.28387,0.0239 -0.36944,0.0364 -0.17113,0.0249 -0.17104,0.0249 -0.43603,0.18134 -0.26498,0.15649 -0.79513,0.46946 -0.89029,0.80442 -0.0952,0.33496 0.24447,0.69176 0.82675,0.93076 0.58227,0.239 1.4077,0.36039 1.89218,0.108 0.48447,-0.25239 0.62843,-0.87875 0.48224,-1.29916 -0.1462,-0.42042 -0.58266,-0.63518 -0.97209,-0.71763 -0.19472,-0.0412 -0.37775,-0.0494 -0.53332,-0.0441 z m -12.49028,0.28361 c -0.50485,0.007 -0.9573,0.33816 -1.26641,0.69269 -0.35328,0.40518 -0.51921,0.84115 -0.60235,1.05939 -0.0831,0.21824 -0.0831,0.21822 -0.0727,0.63368 0.0104,0.41546 0.0311,1.24659 0.36366,1.57905 0.33256,0.33246 0.97629,0.16621 1.64102,-0.36353 0.66473,-0.52975 1.35054,-1.42317 1.37132,-2.1606 0.0208,-0.73743 -0.62328,-1.31927 -1.21534,-1.42321 -0.074,-0.013 -0.1471,-0.0185 -0.21923,-0.0175 z m 12.00925,0.11029 c 0.01,-8.4e-4 0.0206,-5e-4 0.0353,0 0.0588,0.002 0.17643,0.006 0.27183,0.0699 0.0952,0.0642 0.16888,0.18909 0.0882,0.28819 -0.0807,0.0991 -0.31595,0.17291 -0.49593,0.17991 -0.17996,0.007 -0.30779,-0.0526 -0.28429,-0.15298 0.0235,-0.1004 0.1926,-0.24381 0.277,-0.31541 v 2.9e-4 c 0.0633,-0.0538 0.0792,-0.0674 0.10794,-0.0699 z m -12.78764,0.7033 c 0.0112,-8e-4 0.0244,1.4e-4 0.042,0.001 0.0702,0.004 0.21032,0.0117 0.30892,0.0974 0.0985,0.0857 0.1559,0.24916 0.0456,0.44777 -0.11029,0.19861 -0.38817,0.43272 -0.57011,0.43372 -0.18196,0.001 -0.26744,-0.22959 -0.22714,-0.43229 0.0403,-0.2027 0.20647,-0.37662 0.28947,-0.46352 0.0623,-0.0653 0.0778,-0.0818 0.11129,-0.0842 z m 5.73218,0.99779 c -0.0697,1.8e-4 -0.13827,0.003 -0.20524,0.009 -0.53583,0.0432 -0.95965,0.23932 -1.45433,0.64199 -0.49469,0.40268 -1.06027,1.01173 -1.05449,1.48194 0.006,0.47021 0.58276,0.80115 1.42848,0.88635 0.84572,0.0852 1.96063,-0.0752 2.49058,-0.58842 0.52995,-0.5132 0.47544,-1.37961 0.12436,-1.86753 -0.3072,-0.42693 -0.84161,-0.5642 -1.32936,-0.56292 z m 4.99969,0.0925 c -0.28402,-0.005 -0.51871,0.0294 -0.66316,0.0504 -0.2311,0.0336 -0.23112,0.0336 -0.58896,0.24494 -0.35785,0.21132 -1.07377,0.63425 -1.20227,1.0866 -0.12849,0.45234 0.33019,0.93372 1.11652,1.25648 0.78633,0.32275 1.90078,0.48694 2.55504,0.1461 0.65425,-0.34085 0.84903,-1.18691 0.6516,-1.75466 -0.19743,-0.56776 -0.78703,-0.85752 -1.31294,-0.96886 -0.19722,-0.0418 -0.38541,-0.0583 -0.55583,-0.061 z m -5.66133,0.38359 c 0.01,7.7e-4 0.0193,0.004 0.0322,0.008 0.0515,0.0165 0.1544,0.0499 0.18,0.13608 0.0256,0.0862 -0.0255,0.22439 -0.19277,0.37557 -0.16726,0.15118 -0.44994,0.31282 -0.6209,0.32572 -0.171,0.0129 -0.23008,-0.12427 -0.11402,-0.29077 0.11607,-0.16651 0.40597,-0.36471 0.55096,-0.46381 0.10871,-0.0743 0.13598,-0.0931 0.1645,-0.0908 z m 4.97202,0.0848 c 0.01,2.6e-4 0.0207,0.002 0.035,0.004 0.057,0.009 0.17108,0.0279 0.20768,0.10485 0.0366,0.077 -0.004,0.21286 -0.18031,0.33775 -0.17622,0.12489 -0.48793,0.23854 -0.64978,0.22574 -0.16182,-0.0128 -0.17297,-0.1521 -0.0535,-0.28618 0.11945,-0.13409 0.36932,-0.26267 0.4941,-0.32687 v -2.9e-4 c 0.0936,-0.048 0.11697,-0.0598 0.14686,-0.059 z m 4.46698,5.53785 c -0.32495,0.003 -0.59086,0.0816 -0.73279,0.12347 -0.16219,0.0478 -0.16233,0.0475 -0.39649,0.23347 -0.23416,0.18602 -0.70254,0.55798 -0.74648,0.88951 -0.0439,0.33152 0.33649,0.62234 0.93499,0.76718 0.59851,0.14484 1.41542,0.14384 1.8484,-0.16415 0.43298,-0.308 0.48253,-0.92343 0.28035,-1.30203 -0.20219,-0.3786 -0.65624,-0.52071 -1.04537,-0.54402 -0.0486,-0.003 -0.0962,-0.004 -0.14261,-0.003 z m -0.43055,0.3959 c 0.0368,0 0.11046,1.5e-4 0.16176,0.0479 0.0513,0.0477 0.0805,0.1433 -0.0131,0.26814 -0.0936,0.12484 -0.31014,0.27919 -0.48833,0.30309 -0.17819,0.0239 -0.31788,-0.0827 -0.26088,-0.2077 0.057,-0.12497 0.31031,-0.26816 0.43694,-0.33976 0.12657,-0.0716 0.12678,-0.0716 0.16358,-0.0716 z m -6.64133,0.36068 c -0.0616,-0.002 -0.12468,-0.001 -0.18973,5.7e-4 -0.0743,0.002 -0.15099,0.006 -0.23048,0.0126 -0.63589,0.0501 -1.44753,0.22979 -1.71005,0.61994 -0.26252,0.39014 0.024,0.99041 0.67137,1.54123 0.64738,0.55082 1.65582,1.05263 2.38355,0.93162 0.72772,-0.12101 1.17546,-0.8649 1.16395,-1.46589 -0.0115,-0.601 -0.48236,-1.05936 -0.94776,-1.32839 -0.35633,-0.20597 -0.70953,-0.301 -1.14085,-0.31168 z m -0.6662,0.33001 c 0.10091,0.003 0.17054,0.0484 0.16754,0.13923 -0.004,0.1211 -0.13574,0.32333 -0.35606,0.43172 -0.22032,0.1084 -0.52856,0.123 -0.61876,0.055 -0.0901,-0.068 0.0383,-0.21843 0.10247,-0.29363 0.0642,-0.0752 0.0644,-0.0753 0.15811,-0.12863 0.0937,-0.0533 0.28081,-0.1598 0.43694,-0.1928 0.039,-0.008 0.0761,-0.0119 0.10976,-0.0109 z m -4.75584,0.33432 c -0.0506,-7.6e-4 -0.10044,-3e-5 -0.14899,0.002 -0.23304,0.0112 -0.43823,0.0594 -0.58136,0.16244 -0.38168,0.27467 -0.32152,0.93708 0.0943,1.67845 0.41577,0.74137 1.18718,1.56211 1.91164,1.70138 0.72445,0.13927 1.40264,-0.40271 1.60058,-0.97029 0.19793,-0.56759 -0.0842,-1.16113 -0.42721,-1.57504 -0.34299,-0.41392 -0.74667,-0.64804 -1.36037,-0.8219 -0.33562,-0.0951 -0.73399,-0.17203 -1.08855,-0.17733 z m -0.20463,0.53456 c 0.14762,-0.006 0.31608,0.0631 0.3369,0.18507 0.0238,0.13945 -0.14352,0.34709 -0.30224,0.37929 -0.15872,0.0322 -0.3054,-0.11466 -0.3293,-0.25439 -0.0239,-0.13973 0.0753,-0.27199 0.23322,-0.30309 0.0197,-0.004 0.0403,-0.006 0.0614,-0.007 z m 10.43177,0.538 c -0.44807,0.005 -0.8147,0.11506 -1.0104,0.17389 -0.22365,0.0673 -0.22383,0.0672 -0.5467,0.32888 -0.32288,0.26165 -0.96867,0.785 -1.02925,1.25132 -0.0606,0.46632 0.46397,0.87525 1.28922,1.07886 0.82525,0.20362 1.95163,0.20188 2.54865,-0.23147 0.59702,-0.43334 0.66494,-1.2986 0.38616,-1.83115 -0.27878,-0.53254 -0.90439,-0.73239 -1.44095,-0.76517 -0.0671,-0.004 -0.13272,-0.006 -0.19673,-0.005 z m -1.00219,0.54574 c 0.0121,0.002 0.0265,0.005 0.0453,0.0103 0.0754,0.0202 0.22608,0.0609 0.26088,0.15441 0.0348,0.0935 -0.046,0.24053 -0.23321,0.3856 -0.18725,0.14508 -0.48087,0.28816 -0.6133,0.26986 -0.13244,-0.0183 -0.10327,-0.19821 0.009,-0.36354 0.11209,-0.16534 0.3069,-0.31613 0.4041,-0.39133 0.0729,-0.0564 0.091,-0.0703 0.1274,-0.0653 z m -3.80017,1.46274 c -0.0743,-0.002 -0.15105,-10e-4 -0.23078,0.001 -0.63786,0.019 -1.46109,0.15899 -1.75292,0.53599 -0.29183,0.377 -0.0523,0.99071 0.55065,1.57275 0.60296,0.58203 1.5696,1.13268 2.30449,1.04735 0.7349,-0.0853 1.23853,-0.80665 1.27341,-1.40774 0.0349,-0.60108 -0.39899,-1.08236 -0.84225,-1.37393 -0.38785,-0.25512 -0.78263,-0.3648 -1.3026,-0.37557 z m -0.79239,0.46352 c 0.0289,-6.3e-4 0.0568,0.007 0.11281,0.0215 0.11207,0.0294 0.3363,0.0883 0.3968,0.1928 0.0605,0.10455 -0.0424,0.2551 -0.26271,0.35981 -0.22032,0.10471 -0.5578,0.16349 -0.73796,0.0937 -0.1801,-0.0698 -0.20239,-0.26784 -0.094,-0.40193 0.10843,-0.13407 0.34716,-0.20401 0.46643,-0.23891 v -2.9e-4 c 0.0596,-0.0172 0.0897,-0.026 0.11858,-0.0266 z"
             id="path3105" />
        </g>
        <path
           transform="translate(-0.25383853,-0.99079667)"
           d="m 67.507812,-91.740234 c -2.450674,0 -4.557635,0.988231 -6.173828,2.890625 a 0.56909375,0.56909375 0 0 0 -0.002,0.0039 c -1.595587,1.897911 -2.396484,4.241943 -2.396484,6.941406 0,2.695857 0.771302,5.049576 2.314453,6.978516 a 0.56909375,0.56909375 0 0 0 0.0039,0.0039 c 1.566144,1.919788 3.623011,2.923828 6.015625,2.923828 2.110092,0 3.930728,-0.813393 5.3125,-2.382812 1.322588,-1.500009 1.969329,-3.406959 2.039063,-5.585938 0.637208,-0.354185 1.199549,-0.694014 1.578125,-1.029297 0.437572,-0.387532 0.763672,-0.800097 0.763672,-1.33789 0,-0.320322 -0.0669,-0.647102 -0.292969,-0.908204 -0.226074,-0.261101 -0.578569,-0.375 -0.894531,-0.375 -0.298595,0 -0.445558,0.09816 -0.642579,0.208985 -0.19702,0.110826 -0.416099,0.259954 -0.673828,0.451172 -0.369725,0.274311 -0.602101,0.395532 -0.810546,0.501953 -0.379921,-0.357194 -0.77282,-0.705387 -1.394532,-1.023438 l -0.0039,-0.002 c -0.87511,-0.463411 -1.908611,-0.683594 -3.074219,-0.683593 -1.186254,0 -2.189395,0.287727 -2.921875,0.923828 a 0.56909375,0.56909375 0 0 0 -0.0059,0.0059 c -0.668752,0.596455 -1.070313,1.327402 -1.070313,2.115234 0,0.781809 0.448166,1.48471 1.160157,1.953125 a 0.56909375,0.56909375 0 0 0 0.01367,0.0098 c 0.7421,0.456676 1.684087,0.654297 2.800782,0.654297 0.813824,0 1.630263,-0.143794 2.447265,-0.357422 -0.15842,0.919541 -0.499109,1.782192 -1.203125,2.578125 -0.895031,0.996084 -1.901108,1.455077 -3.15039,1.455078 -1.510058,0 -2.691012,-0.643948 -3.707032,-2.072266 -1.027699,-1.460567 -1.537109,-3.122744 -1.537109,-5.052734 0,-1.926358 0.529989,-3.549462 1.597656,-4.943359 a 0.56909375,0.56909375 0 0 0 0.002,-0.002 c 1.058584,-1.396743 2.305714,-2.039063 3.90625,-2.039063 1.231702,0 2.08961,0.27794 2.654297,0.765625 a 0.56909375,0.56909375 0 0 0 0.0332,0.02734 c 0.411508,0.304515 0.766497,0.538882 1.083985,0.707031 0.317488,0.16815 0.586802,0.28711 0.921875,0.287109 0.211758,10e-7 0.40189,-0.01773 0.585937,-0.07031 a 0.56909375,0.56909375 0 0 0 0.03125,-0.0098 c 0.25817,-0.09036 0.502167,-0.269852 0.652344,-0.509765 0.150177,-0.239913 0.205078,-0.514618 0.205078,-0.789063 0,-0.498685 -0.231086,-0.970464 -0.59375,-1.347656 -0.362664,-0.377192 -0.854321,-0.689614 -1.474609,-0.978516 -1.239225,-0.593061 -2.61365,-0.886718 -4.09961,-0.886718 z m 105.714848,0.02344 c -0.66038,0 -1.28204,0.199675 -1.79102,0.587891 -0.85622,0.61755 -1.32812,1.565725 -1.32812,2.648437 0,0.838988 0.26633,1.592246 0.80468,2.134766 6.6e-4,6.81e-4 0.001,0.0013 0.002,0.002 0.54428,0.562102 1.23788,0.886719 1.97851,0.886719 0.38917,0 0.77478,-0.09205 1.06445,-0.359375 0.28968,-0.267324 0.40821,-0.6624 0.40821,-1.042969 0,-0.314267 -0.12709,-0.632279 -0.33399,-0.865234 -0.20689,-0.232955 -0.47291,-0.39427 -0.78125,-0.519532 a 0.56909375,0.56909375 0 0 0 -0.004,-0.002 c -0.1794,-0.07176 -0.28576,-0.125897 -0.37305,-0.173828 0.005,-0.08965 0.0141,-0.173563 0.0332,-0.232422 0.0819,-0.236678 0.076,-0.236328 0.34375,-0.236328 0.11738,0 0.32379,0.06906 0.61524,0.328125 0.29144,0.259066 0.64416,0.691753 1.02344,1.291016 a 0.56909375,0.56909375 0 0 0 0.002,0.0039 c 0.7407,1.147359 1.52784,2.821054 2.33789,4.943359 -1.53928,2.409453 -2.90284,4.4895 -4.04297,6.146485 a 0.56909375,0.56909375 0 0 0 -0.006,0.0098 l -1.04492,1.589844 c -0.20776,0.302547 -0.31055,0.667015 -0.31055,1.033203 0,0.386394 0.13133,0.78996 0.43164,1.052735 0.30032,0.262774 0.68917,0.349609 1.08985,0.349609 0.55475,0 1.05579,-0.335077 1.39258,-0.810547 a 0.56909375,0.56909375 0 0 0 0.0254,-0.03906 l 1.07226,-1.810547 a 0.56909375,0.56909375 0 0 0 0.002,-0.0039 c 0.52073,-0.898251 1.58555,-2.628172 2.77735,-4.550781 1.09541,2.733986 2.06974,4.753126 2.96679,5.820313 a 0.56909375,0.56909375 0 0 0 0.0117,0.01367 c 0.85937,0.96249 1.82343,1.523437 2.85352,1.523437 0.94219,0 1.7808,-0.324365 2.36719,-0.964844 0.57685,-0.614071 0.89257,-1.379663 0.89257,-2.199218 0,-0.822598 -0.295,-1.576492 -0.85546,-2.138672 -0.53607,-0.552539 -1.24281,-0.859375 -2,-0.859375 -0.41532,0 -0.81523,0.09347 -1.16993,0.28125 -0.40735,0.21566 -0.70898,0.677847 -0.70898,1.144531 0,0.162213 0.0694,0.313609 0.15625,0.451172 -0.0693,-0.107893 -0.12206,-0.139135 -0.19336,-0.259766 -0.72169,-1.221045 -1.55142,-3.165032 -2.44531,-5.646484 l 3.55664,-5.677735 a 0.56909375,0.56909375 0 0 0 0.004,-0.0078 c 0.41413,-0.68493 0.67443,-1.13498 0.8125,-1.429688 0.15213,-0.305732 0.24804,-0.614863 0.24804,-0.9375 0,-0.319872 -0.11402,-0.639584 -0.31054,-0.890624 -0.26185,-0.349635 -0.70031,-0.488282 -1.11719,-0.488282 -0.46901,0 -0.93539,0.232211 -1.2168,0.607422 a 0.56909375,0.56909375 0 0 0 -0.0273,0.04102 c -0.17984,0.287726 -0.73187,1.229971 -1.70117,2.898437 -0.71438,1.238256 -1.20489,2.046368 -1.69336,2.851563 -0.81127,-1.964608 -1.59866,-3.554899 -2.38672,-4.574219 l -0.002,-0.002 c -0.9113,-1.21968 -2.05875,-1.917969 -3.33593,-1.917969 z m -42.49805,2.429688 c -0.42663,0 -0.87108,0.177548 -1.13281,0.521484 -0.26173,0.343936 -0.3418,0.768915 -0.3418,1.238281 a 0.56909375,0.56909375 0 0 0 0,0.0098 l 0.0371,2.0625 -0.44336,-0.01953 a 0.56909375,0.56909375 0 0 0 -0.0254,0 c -0.45988,0 -0.86301,0.06363 -1.20703,0.291015 -0.34402,0.22739 -0.55274,0.658617 -0.55274,1.064453 0,0.405837 0.2085,0.837763 0.55274,1.064453 0.34424,0.226691 0.74762,0.289063 1.20703,0.289063 0.11622,0 0.3596,-0.02435 0.5293,-0.03516 l 0.0215,7.044922 c 2.3e-4,1.080096 0.1724,1.951999 0.61719,2.605468 0.44508,0.653902 1.19505,1.009766 2.02539,1.009766 0.68723,0 1.37189,-0.212621 2.0293,-0.603516 0.32828,-0.195195 0.59432,-0.396184 0.80078,-0.636718 0.20646,-0.240535 0.35742,-0.54344 0.35742,-0.876953 0,-0.261438 -0.0735,-0.559793 -0.29102,-0.777344 -0.21755,-0.217551 -0.51591,-0.291016 -0.77734,-0.291016 -0.24754,0 -0.30572,0.05455 -0.43555,0.107422 -0.12491,0.05087 -0.27018,0.118838 -0.44336,0.205078 -8.1e-4,3.71e-4 -0.001,-3.69e-4 -0.002,0 -0.3006,0.136335 -0.53283,0.1875 -0.66797,0.1875 -0.1847,0 -0.27401,-0.03852 -0.3125,-0.06445 -0.0375,-0.02529 -0.0606,-0.04632 -0.0879,-0.148437 -0.0753,-0.301328 -0.15018,-1.273268 -0.15039,-2.716797 v -0.0039 l 0.043,-5.064453 1.40039,0.03516 a 0.56909375,0.56909375 0 0 0 0.0137,0 c 0.45761,0 0.85552,-0.05967 1.19922,-0.279297 0.3437,-0.219631 0.56055,-0.648393 0.56055,-1.050782 0,-0.409549 -0.20251,-0.843786 -0.54688,-1.078125 -0.34436,-0.234338 -0.7512,-0.300781 -1.21289,-0.300781 a 0.56909375,0.56909375 0 0 0 -0.0273,0 l -1.31836,0.06445 0.0547,-2.078125 a 0.56909375,0.56909375 0 0 0 0,-0.01563 c 0,-0.4689 -0.0788,-0.894064 -0.33985,-1.238281 -0.2611,-0.344217 -0.70618,-0.521484 -1.13281,-0.521484 z m -51.345704,3.621093 c -0.423245,0 -0.841933,0.21689 -1.105468,0.546875 -0.244653,0.293593 -0.392579,0.667056 -0.392579,1.046875 0,0.350179 0.06589,1.039057 0.19336,2.25 a 0.56909375,0.56909375 0 0 0 0.002,0.0098 c 0.140574,1.171453 0.206257,2.07617 0.207031,2.703125 -0.310777,2.050945 -0.474609,3.647045 -0.474609,4.78125 0,0.604472 0.09105,1.117683 0.373047,1.533203 0.281993,0.41552 0.7877,0.654297 1.292968,0.654297 0.429,0 0.875584,-0.184846 1.134766,-0.533203 0.259182,-0.348358 0.337891,-0.774567 0.337891,-1.25 a 0.56909375,0.56909375 0 0 0 0,-0.0098 l -0.07031,-4.40625 c 0.179853,-1.051173 0.590636,-2.105947 1.25,-3.169922 a 0.56909375,0.56909375 0 0 0 0.002,-0.002 c 0.332923,-0.544783 0.638408,-0.937618 0.884766,-1.167969 0.246357,-0.23035 0.407582,-0.27539 0.46289,-0.27539 -0.06802,0 0.103864,0.02965 0.359376,0.285156 a 0.56909375,0.56909375 0 0 0 0.03125,0.0293 c 0.391115,0.335241 0.805296,0.566406 1.277343,0.566406 0.413963,0 0.832067,-0.168184 1.109375,-0.470703 0.291057,-0.317516 0.410157,-0.749476 0.410156,-1.193359 0,-0.567872 -0.365173,-1.062718 -0.865234,-1.394531 -0.523403,-0.373389 -1.192104,-0.533204 -1.964844,-0.533204 -0.855293,0 -1.683297,0.39165 -2.451172,1.072266 a 0.56909375,0.56909375 0 0 0 -0.0098,0.0098 c -0.192112,0.178708 -0.334166,0.383689 -0.5,0.576172 1.63e-4,-0.02666 0.002,-0.08726 0.002,-0.111329 0,-0.366594 -0.156469,-0.717079 -0.392578,-1 -0.262284,-0.328425 -0.680276,-0.546875 -1.103516,-0.546875 z m 13.328125,0 c -1.727553,0 -3.219317,0.747939 -4.308593,2.148438 -1.076716,1.384349 -1.619141,3.036322 -1.619141,4.876953 0,2.256012 0.691515,4.102247 2.087891,5.394531 0.779404,0.725027 1.76037,1.105469 2.839843,1.105469 1.083643,0 2.08874,-0.339277 2.94336,-0.998047 0.428426,-0.330245 0.806237,-0.714166 1.138671,-1.140625 0.06636,0.298799 0.0488,0.681951 0.160157,0.939453 a 0.56909375,0.56909375 0 0 0 0.002,0.0039 c 0.304309,0.684694 0.879975,1.195313 1.568359,1.195313 0.56498,0 1.100983,-0.172428 1.464844,-0.560547 a 0.56909375,0.56909375 0 0 0 0.0098,-0.01172 c 0.34084,-0.386284 0.5,-0.902839 0.5,-1.449218 0,-0.216359 -0.150186,-0.538472 -0.396485,-0.677735 -0.186777,-0.109815 -0.322739,-0.131171 -0.482422,-0.148437 l -0.0078,-0.002 c -0.06759,-0.0095 -0.116068,-0.02581 -0.142578,-0.03906 a 0.56909375,0.56909375 0 0 0 -0.05469,-0.02344 c 0.08576,0.03216 0.0333,0.03535 -0.04102,-0.113282 -0.07392,-0.147834 -0.163241,-0.410104 -0.244141,-0.761718 -4.37e-4,-0.0019 -0.0015,-0.002 -0.002,-0.0039 -0.145503,-0.718314 -0.221779,-1.646307 -0.222656,-2.765625 0.310693,-2.050181 0.474609,-3.636594 0.474609,-4.755859 0,-0.611479 -0.08889,-1.129201 -0.369141,-1.548828 -0.280249,-0.419627 -0.789138,-0.664063 -1.296875,-0.664063 -0.429612,0 -0.875958,0.184509 -1.134765,0.533204 -0.07829,0.105483 -0.05337,0.259895 -0.101563,0.378906 -0.826889,-0.547489 -1.739761,-0.91211 -2.765625,-0.91211 z m 9.705079,0 c -0.41623,0 -0.83335,0.194742 -1.10156,0.511719 -0.24961,0.294989 -0.39649,0.674582 -0.39649,1.058594 0,0.347258 0.0639,1.040404 0.19141,2.251953 a 0.56909375,0.56909375 0 0 0 0.002,0.0059 c 0.14071,1.188244 0.2082,2.102551 0.20899,2.728516 -0.31078,2.050945 -0.47461,3.647045 -0.47461,4.78125 0,0.604128 0.0897,1.11751 0.37109,1.533203 0.28136,0.415694 0.7877,0.654297 1.29297,0.654297 0.429,0 0.87494,-0.183161 1.13476,-0.53125 0.25983,-0.348089 0.33985,-0.776063 0.33985,-1.251953 a 0.56909375,0.56909375 0 0 0 0,-0.0078 l -0.0703,-5.066406 c 0.2988,-1.060677 0.78013,-1.989252 1.46093,-2.800781 0.6982,-0.829114 1.32557,-1.15625 1.92383,-1.15625 0.65409,10e-7 1.0657,0.217381 1.4375,0.755859 a 0.56909375,0.56909375 0 0 0 0.01,0.01172 c 0.38632,0.527965 0.60515,1.270952 0.60547,2.283203 0,7.37e-4 0,0.0012 0,0.002 l -0.0957,4.371094 a 0.56909375,0.56909375 0 0 0 0,0.01172 c 0,1.0004 0.10803,1.779792 0.41993,2.382812 0.32601,0.630283 1.00874,0.996094 1.74414,0.996094 0.49521,0 0.97615,-0.216377 1.32031,-0.582031 0.36451,-0.385959 0.55859,-0.90314 0.55859,-1.439453 0,-0.216348 -0.15018,-0.538469 -0.39648,-0.677735 -0.18974,-0.11155 -0.32685,-0.132238 -0.49024,-0.15039 l 0.0606,0.01172 c -0.10615,-0.02359 -0.1929,-0.04739 -0.27734,-0.07031 0.009,0.0067 0.004,0.01918 -0.0332,-0.07227 -0.0423,-0.103528 -0.0877,-0.306837 -0.10156,-0.591797 v -0.988281 l 0.11914,-3.732422 a 0.56909375,0.56909375 0 0 0 0,-0.01758 c 0,-1.373504 -0.38845,-2.600986 -1.16406,-3.607422 -0.79891,-1.053108 -1.99783,-1.607422 -3.40625,-1.607422 -1.40655,0 -2.65434,0.650091 -3.70313,1.820313 9.9e-4,-0.07668 0.006,-0.210648 0.006,-0.273438 0,-0.376788 -0.15129,-0.745392 -0.39648,-1.035156 -0.26686,-0.315395 -0.68338,-0.511719 -1.09961,-0.511719 z m 17.65625,0 c -1.72755,0 -3.21932,0.747938 -4.30859,2.148438 -1.0765,1.384066 -1.6211,3.035895 -1.6211,4.876953 0,2.256013 0.69152,4.102248 2.08789,5.394531 0.77941,0.725026 1.76037,1.105469 2.83985,1.105469 1.08363,0 2.09032,-0.33899 2.94531,-0.998047 0.42842,-0.330245 0.80624,-0.714166 1.13867,-1.140625 0.0664,0.298799 0.0488,0.681951 0.16016,0.939453 a 0.56909375,0.56909375 0 0 0 0.002,0.0039 c 0.30431,0.684696 0.87998,1.195313 1.56836,1.195313 0.56498,0 1.10009,-0.173547 1.46289,-0.560547 a 0.56909375,0.56909375 0 0 0 0.01,-0.01172 c 0.34083,-0.38628 0.5,-0.902833 0.5,-1.449218 0,-0.216386 -0.1502,-0.53848 -0.39649,-0.677735 -0.18682,-0.109857 -0.32274,-0.131172 -0.48242,-0.148437 l -0.008,-0.002 c -0.0676,-0.0095 -0.11606,-0.0258 -0.14258,-0.03906 a 0.56909375,0.56909375 0 0 0 -0.0547,-0.02344 c 0.0858,0.03216 0.0333,0.03535 -0.041,-0.113282 -0.0739,-0.147834 -0.16324,-0.410103 -0.24414,-0.761718 -4.4e-4,-0.0019 -0.002,-0.002 -0.002,-0.0039 -0.1455,-0.718318 -0.22178,-1.646308 -0.22265,-2.765625 0.31069,-2.05018 0.47461,-3.636591 0.47461,-4.755859 0,-0.611141 -0.0895,-1.129037 -0.36915,-1.548828 -0.27961,-0.419791 -0.78718,-0.664063 -1.29492,-0.664063 -0.42961,0 -0.87727,0.184779 -1.13672,0.533204 -0.0785,0.105402 -0.0532,0.259856 -0.10156,0.378906 -0.8263,-0.547432 -1.73781,-0.91211 -2.76367,-0.91211 z m 17.63281,0 c -0.9064,0.188909 -0.50946,-0.08577 -1.14062,0.453125 -0.25182,0.251819 -0.45117,0.569163 -0.45117,0.949219 0,0.314437 0.0707,0.705468 0.19921,1.41211 a 0.56909375,0.56909375 0 0 0 0.002,0.002 c 0.12201,0.655806 0.17929,1.210773 0.17968,1.654297 1e-5,0.0016 0,0.0043 0,0.0059 l -0.14257,3.574219 a 0.56909375,0.56909375 0 0 0 0,0.02344 c 0,1.448364 0.38412,2.740091 1.15625,3.810547 a 0.56909375,0.56909375 0 0 0 0.004,0.0078 c 0.79764,1.069545 2.00006,1.632813 3.41016,1.632813 1.5423,0 2.89604,-0.727171 4.00586,-2.039063 0.0689,0.351253 0.15256,0.681493 0.28906,0.958985 0.31628,0.642989 0.94385,1.080078 1.63672,1.080078 0.52203,0 1.02837,-0.201772 1.38477,-0.576172 0.37384,-0.376795 0.5664,-0.900132 0.5664,-1.445312 0,-0.216348 -0.15018,-0.538469 -0.39648,-0.677735 -0.18676,-0.1098 -0.32274,-0.13117 -0.48242,-0.148437 l -0.008,-0.002 c -0.0676,-0.0095 -0.11608,-0.02581 -0.14258,-0.03906 a 0.56909375,0.56909375 0 0 0 -0.0547,-0.02344 c 0.0858,0.03216 0.0333,0.03535 -0.041,-0.113282 -0.0739,-0.147834 -0.16324,-0.410103 -0.24414,-0.761718 -4.4e-4,-0.0019 -0.002,-0.002 -0.002,-0.0039 -0.14551,-0.718308 -0.22178,-1.646305 -0.22266,-2.765625 0.31069,-2.050181 0.47461,-3.636595 0.47461,-4.755859 0,-0.611479 -0.0889,-1.129201 -0.36914,-1.548828 -0.28025,-0.419627 -0.78914,-0.664063 -1.29688,-0.664063 -0.42961,0 -0.87595,0.18451 -1.13476,0.533204 -0.25881,0.348693 -0.33789,0.776519 -0.33789,1.251953 a 0.56909375,0.56909375 0 0 0 0,0.0078 l 0.0703,5.0625 c -0.29791,1.043495 -0.78028,1.983396 -1.46289,2.828125 -0.69851,0.82948 -1.32361,1.15625 -1.92187,1.15625 -0.65094,0 -1.07471,-0.218729 -1.46094,-0.755859 -0.3771,-0.546129 -0.59088,-1.301768 -0.5918,-2.314453 0,-0.0022 0,-0.0037 0,-0.0059 l 0.19141,-5.21875 a 0.56909375,0.56909375 0 0 0 0,-0.02148 c 0,-0.704644 -0.0854,-1.277196 -0.34766,-1.744141 -0.26227,-0.466945 -0.7836,-0.779297 -1.31836,-0.779297 z m 14.03321,0 c -0.41624,0 -0.83336,0.19473 -1.10157,0.511719 -0.24961,0.294989 -0.39648,0.674582 -0.39648,1.058594 0,0.350169 0.0659,1.039055 0.19336,2.25 a 0.56909375,0.56909375 0 0 0 0.002,0.0078 c 0.14065,1.187642 0.20626,2.101462 0.20703,2.728516 -0.31077,2.050945 -0.47461,3.647045 -0.47461,4.78125 0,0.604472 0.091,1.117683 0.37305,1.533203 0.28199,0.41552 0.7877,0.654297 1.29297,0.654297 0.429,0 0.87558,-0.184847 1.13476,-0.533203 0.25919,-0.348356 0.33789,-0.774564 0.33789,-1.25 a 0.56909375,0.56909375 0 0 0 0,-0.0078 l -0.0703,-5.070312 c 0.26915,-1.048776 0.72359,-1.980473 1.37891,-2.810547 0.65501,-0.829676 1.22742,-1.142578 1.74414,-1.142578 0.63725,0 0.99626,0.214647 1.32422,0.8125 0.32655,0.595297 0.53337,1.617604 0.53515,3.033203 -0.31077,2.050943 -0.47461,3.647042 -0.47461,4.78125 0,0.60413 0.0897,1.11751 0.3711,1.533203 0.28136,0.415693 0.7877,0.654297 1.29297,0.654297 0.42899,0 0.87494,-0.183163 1.13476,-0.53125 0.25982,-0.348087 0.33985,-0.776061 0.33985,-1.251953 a 0.56909375,0.56909375 0 0 0 0,-0.0078 l -0.0703,-5.070312 c 0.26916,-1.048776 0.72359,-1.980473 1.37891,-2.810547 0.65501,-0.829676 1.22742,-1.142578 1.74414,-1.142578 0.57729,10e-7 0.93778,0.199875 1.28516,0.740234 a 0.56909375,0.56909375 0 0 0 0.004,0.0039 c 0.34772,0.528014 0.54854,1.285855 0.54883,2.306641 0,7.36e-4 0,0.0012 0,0.002 l -0.0957,4.371094 a 0.56909375,0.56909375 0 0 0 0,0.01172 c 0,1.000396 0.108,1.779781 0.41992,2.382812 0.32601,0.630283 1.00875,0.996094 1.74414,0.996094 0.49522,0 0.97616,-0.216369 1.32031,-0.582031 0.36451,-0.385954 0.5586,-0.903131 0.5586,-1.439453 0,-0.208821 -0.14482,-0.53624 -0.39453,-0.677735 -0.19383,-0.114077 -0.32928,-0.132289 -0.49219,-0.15039 l 0.0605,0.01172 c -0.10615,-0.02359 -0.1929,-0.04739 -0.27734,-0.07031 0.009,0.0067 0.004,0.01918 -0.0332,-0.07227 -0.0423,-0.103525 -0.0877,-0.306838 -0.10156,-0.591797 v -0.988281 l 0.11914,-3.732422 a 0.56909375,0.56909375 0 0 0 0,-0.01758 c 0,-1.379808 -0.36531,-2.606298 -1.10352,-3.613281 -0.7325,-1.043812 -1.87873,-1.601563 -3.22852,-1.601563 -1.55298,0 -2.8778,0.870815 -3.92968,2.369141 -0.2621,-0.539618 -0.57682,-1.031931 -1.00391,-1.414063 -0.69605,-0.636984 -1.61258,-0.955078 -2.64258,-0.955078 -1.32894,0 -2.49262,0.635185 -3.46289,1.75 5.4e-4,-0.05428 0.004,-0.15648 0.004,-0.203125 0,-0.376788 -0.1513,-0.745392 -0.39649,-1.035156 -0.26685,-0.315375 -0.68338,-0.511719 -1.0996,-0.511719 z m -58.884771,2.685547 c 0.825969,0 1.615043,0.365024 2.419922,1.103516 l 0.105469,3.279297 c -0.375103,1.168037 -0.893362,2.091865 -1.552734,2.779297 a 0.56909375,0.56909375 0 0 0 -0.0039,0.0059 c -0.652907,0.695488 -1.287047,0.986328 -1.992187,0.986328 -0.692995,0 -1.142818,-0.261655 -1.558594,-0.957031 l -0.002,-0.0039 c -0.42565,-0.729546 -0.658203,-1.703712 -0.658203,-2.949219 10e-7,-1.228169 0.331638,-2.216677 0.996094,-3.050781 0.665784,-0.835772 1.367641,-1.19336 2.246093,-1.19336 z m 27.361331,0 c 0.82553,0 1.61354,0.365855 2.41797,1.103516 l 0.10547,3.277344 c -0.37515,1.168915 -0.89302,2.093457 -1.55274,2.78125 a 0.56909375,0.56909375 0 0 0 -0.004,0.0059 c -0.65291,0.695489 -1.28704,0.986328 -1.99218,0.986328 -0.693,0 -1.14282,-0.261655 -1.5586,-0.957031 l -0.002,-0.0039 c -0.42565,-0.729545 -0.6582,-1.703711 -0.6582,-2.949219 0,-1.228169 0.33163,-2.216677 0.99609,-3.050781 0.66548,-0.835394 1.36959,-1.19336 2.24805,-1.19336 z m -51.107424,1.548828 c 0.271055,0 0.605935,0.03785 0.978515,0.103516 -0.317873,0.03247 -0.593864,0.142578 -0.929687,0.142578 -0.345224,0 -0.510374,-0.04596 -0.685547,-0.08398 0.02437,-0.0088 0.02175,-0.01275 0.04883,-0.02148 a 0.56909375,0.56909375 0 0 0 0.130859,-0.06055 c 0.03843,-0.02446 0.188091,-0.08008 0.457032,-0.08008 z m 114.105464,5.261719 c 1.19834,0.753217 0.35953,0.382062 1.29688,0.503906 0.57338,0.223091 0.4226,-0.04933 0.48828,0.384766 0,0.163179 -0.0384,0.253573 -0.12109,0.355469 -0.0569,0.06085 -0.11076,0.09961 -0.31055,0.09961 -0.11263,0 -0.31917,-0.0708 -0.61133,-0.345703 -0.21267,-0.200113 -0.48003,-0.605098 -0.74219,-0.998047 z"
           id="text716"
           style="font-style:normal;font-variant:normal;font-weight:normal;font-stretch:normal;font-size:23.82381439px;line-height:14.88988304px;font-family:'Delius Swash Caps';-inkscape-font-specification:'Delius Swash Caps';letter-spacing:0px;word-spacing:0px;fill:#dddddd;fill-opacity:1;stroke:none;stroke-width:0.59559536" />
      </g>
    </g>
  </g>
</svg>
