<?xml version="1.0" encoding="UTF-8" standalone="no"?>
<!-- Created with Inkscape (http://www.inkscape.org/) -->

<svg
   xmlns:dc="http://purl.org/dc/elements/1.1/"
   xmlns:cc="http://creativecommons.org/ns#"
   xmlns:rdf="http://www.w3.org/1999/02/22-rdf-syntax-ns#"
   xmlns:svg="http://www.w3.org/2000/svg"
   xmlns="http://www.w3.org/2000/svg"
   xmlns:sodipodi="http://sodipodi.sourceforge.net/DTD/sodipodi-0.dtd"
   xmlns:inkscape="http://www.inkscape.org/namespaces/inkscape"
   width="240.82445mm"
   height="51.60088mm"
   viewBox="0 0 240.82445 51.600879"
   version="1.1"
   id="svg8"
   inkscape:version="0.92.2 2405546, 2018-03-11"
   sodipodi:docname="granatumx_logo_with_text.svg">
  <defs
     id="defs2">
    <inkscape:path-effect
       only_selected="false"
       apply_with_weight="true"
       apply_no_weight="true"
       helper_size="0"
       steps="2"
       weight="33.333333"
       is_visible="true"
       id="path-effect302"
       effect="bspline" />
    <inkscape:path-effect
       only_selected="false"
       apply_with_weight="true"
       apply_no_weight="true"
       helper_size="0"
       steps="2"
       weight="33.333333"
       is_visible="true"
       id="path-effect298"
       effect="bspline" />
    <inkscape:path-effect
       only_selected="false"
       apply_with_weight="true"
       apply_no_weight="true"
       helper_size="0"
       steps="2"
       weight="33.333333"
       is_visible="true"
       id="path-effect294"
       effect="bspline" />
    <inkscape:path-effect
       only_selected="false"
       apply_with_weight="true"
       apply_no_weight="true"
       helper_size="0"
       steps="2"
       weight="33.333333"
       is_visible="true"
       id="path-effect290"
       effect="bspline" />
    <inkscape:path-effect
       only_selected="false"
       apply_with_weight="true"
       apply_no_weight="true"
       helper_size="0"
       steps="2"
       weight="33.333333"
       is_visible="true"
       id="path-effect286"
       effect="bspline" />
    <inkscape:path-effect
       only_selected="false"
       apply_with_weight="true"
       apply_no_weight="true"
       helper_size="0"
       steps="2"
       weight="33.333333"
       is_visible="true"
       id="path-effect282"
       effect="bspline" />
    <inkscape:path-effect
       only_selected="false"
       apply_with_weight="true"
       apply_no_weight="true"
       helper_size="0"
       steps="2"
       weight="33.333333"
       is_visible="true"
       id="path-effect278"
       effect="bspline" />
    <inkscape:path-effect
       only_selected="false"
       apply_with_weight="true"
       apply_no_weight="true"
       helper_size="0"
       steps="2"
       weight="33.333333"
       is_visible="true"
       id="path-effect274"
       effect="bspline" />
    <inkscape:path-effect
       only_selected="false"
       apply_with_weight="true"
       apply_no_weight="true"
       helper_size="0"
       steps="2"
       weight="33.333333"
       is_visible="true"
       id="path-effect270"
       effect="bspline" />
    <inkscape:path-effect
       only_selected="false"
       apply_with_weight="true"
       apply_no_weight="true"
       helper_size="0"
       steps="2"
       weight="33.333333"
       is_visible="true"
       id="path-effect266"
       effect="bspline" />
    <inkscape:path-effect
       only_selected="false"
       apply_with_weight="true"
       apply_no_weight="true"
       helper_size="0"
       steps="2"
       weight="33.333333"
       is_visible="true"
       id="path-effect262"
       effect="bspline" />
    <inkscape:path-effect
       only_selected="false"
       apply_with_weight="true"
       apply_no_weight="true"
       helper_size="0"
       steps="2"
       weight="33.333333"
       is_visible="true"
       id="path-effect258"
       effect="bspline" />
    <inkscape:path-effect
       only_selected="false"
       apply_with_weight="true"
       apply_no_weight="true"
       helper_size="0"
       steps="2"
       weight="33.333333"
       is_visible="true"
       id="path-effect254"
       effect="bspline" />
    <inkscape:path-effect
       effect="bspline"
       id="path-effect5645"
       is_visible="true"
       weight="33.333333"
       steps="2"
       helper_size="0"
       apply_no_weight="true"
       apply_with_weight="true"
       only_selected="false" />
    <inkscape:path-effect
       effect="bspline"
       id="path-effect5638"
       is_visible="true"
       weight="33.333333"
       steps="2"
       helper_size="0"
       apply_no_weight="true"
       apply_with_weight="true"
       only_selected="false" />
    <inkscape:path-effect
       effect="bspline"
       id="path-effect4634"
       is_visible="true"
       weight="33.333333"
       steps="2"
       helper_size="0"
       apply_no_weight="true"
       apply_with_weight="true"
       only_selected="false" />
    <inkscape:path-effect
       effect="bspline"
       id="path-effect5645-2"
       is_visible="true"
       weight="33.333333"
       steps="2"
       helper_size="0"
       apply_no_weight="true"
       apply_with_weight="true"
       only_selected="false" />
    <inkscape:path-effect
       effect="bspline"
       id="path-effect5645-8"
       is_visible="true"
       weight="33.333333"
       steps="2"
       helper_size="0"
       apply_no_weight="true"
       apply_with_weight="true"
       only_selected="false" />
    <inkscape:path-effect
       effect="bspline"
       id="path-effect5645-5"
       is_visible="true"
       weight="33.333333"
       steps="2"
       helper_size="0"
       apply_no_weight="true"
       apply_with_weight="true"
       only_selected="false" />
    <inkscape:path-effect
       effect="bspline"
       id="path-effect5645-7"
       is_visible="true"
       weight="33.333333"
       steps="2"
       helper_size="0"
       apply_no_weight="true"
       apply_with_weight="true"
       only_selected="false" />
    <inkscape:path-effect
       effect="bspline"
       id="path-effect5645-79"
       is_visible="true"
       weight="33.333333"
       steps="2"
       helper_size="0"
       apply_no_weight="true"
       apply_with_weight="true"
       only_selected="false" />
    <inkscape:path-effect
       effect="bspline"
       id="path-effect5645-0"
       is_visible="true"
       weight="33.333333"
       steps="2"
       helper_size="0"
       apply_no_weight="true"
       apply_with_weight="true"
       only_selected="false" />
    <inkscape:path-effect
       effect="bspline"
       id="path-effect5645-4"
       is_visible="true"
       weight="33.333333"
       steps="2"
       helper_size="0"
       apply_no_weight="true"
       apply_with_weight="true"
       only_selected="false" />
    <inkscape:path-effect
       effect="bspline"
       id="path-effect5645-46"
       is_visible="true"
       weight="33.333333"
       steps="2"
       helper_size="0"
       apply_no_weight="true"
       apply_with_weight="true"
       only_selected="false" />
    <inkscape:path-effect
       effect="bspline"
       id="path-effect5645-1"
       is_visible="true"
       weight="33.333333"
       steps="2"
       helper_size="0"
       apply_no_weight="true"
       apply_with_weight="true"
       only_selected="false" />
    <inkscape:path-effect
       effect="bspline"
       id="path-effect5645-73"
       is_visible="true"
       weight="33.333333"
       steps="2"
       helper_size="0"
       apply_no_weight="true"
       apply_with_weight="true"
       only_selected="false" />
    <inkscape:path-effect
       effect="bspline"
       id="path-effect5645-84"
       is_visible="true"
       weight="33.333333"
       steps="2"
       helper_size="0"
       apply_no_weight="true"
       apply_with_weight="true"
       only_selected="false" />
    <inkscape:path-effect
       effect="bspline"
       id="path-effect5645-56"
       is_visible="true"
       weight="33.333333"
       steps="2"
       helper_size="0"
       apply_no_weight="true"
       apply_with_weight="true"
       only_selected="false" />
    <inkscape:path-effect
       effect="bspline"
       id="path-effect5645-56-0"
       is_visible="true"
       weight="33.333333"
       steps="2"
       helper_size="0"
       apply_no_weight="true"
       apply_with_weight="true"
       only_selected="false" />
    <inkscape:path-effect
       effect="bspline"
       id="path-effect5645-84-8"
       is_visible="true"
       weight="33.333333"
       steps="2"
       helper_size="0"
       apply_no_weight="true"
       apply_with_weight="true"
       only_selected="false" />
    <inkscape:path-effect
       effect="bspline"
       id="path-effect5645-73-3"
       is_visible="true"
       weight="33.333333"
       steps="2"
       helper_size="0"
       apply_no_weight="true"
       apply_with_weight="true"
       only_selected="false" />
    <inkscape:path-effect
       effect="bspline"
       id="path-effect5645-1-5"
       is_visible="true"
       weight="33.333333"
       steps="2"
       helper_size="0"
       apply_no_weight="true"
       apply_with_weight="true"
       only_selected="false" />
    <inkscape:path-effect
       effect="bspline"
       id="path-effect5645-46-5"
       is_visible="true"
       weight="33.333333"
       steps="2"
       helper_size="0"
       apply_no_weight="true"
       apply_with_weight="true"
       only_selected="false" />
    <inkscape:path-effect
       effect="bspline"
       id="path-effect5645-4-7"
       is_visible="true"
       weight="33.333333"
       steps="2"
       helper_size="0"
       apply_no_weight="true"
       apply_with_weight="true"
       only_selected="false" />
    <inkscape:path-effect
       effect="bspline"
       id="path-effect5645-0-6"
       is_visible="true"
       weight="33.333333"
       steps="2"
       helper_size="0"
       apply_no_weight="true"
       apply_with_weight="true"
       only_selected="false" />
    <inkscape:path-effect
       effect="bspline"
       id="path-effect5645-79-9"
       is_visible="true"
       weight="33.333333"
       steps="2"
       helper_size="0"
       apply_no_weight="true"
       apply_with_weight="true"
       only_selected="false" />
    <inkscape:path-effect
       effect="bspline"
       id="path-effect5645-7-3"
       is_visible="true"
       weight="33.333333"
       steps="2"
       helper_size="0"
       apply_no_weight="true"
       apply_with_weight="true"
       only_selected="false" />
    <inkscape:path-effect
       effect="bspline"
       id="path-effect5645-5-8"
       is_visible="true"
       weight="33.333333"
       steps="2"
       helper_size="0"
       apply_no_weight="true"
       apply_with_weight="true"
       only_selected="false" />
    <inkscape:path-effect
       effect="bspline"
       id="path-effect5645-8-5"
       is_visible="true"
       weight="33.333333"
       steps="2"
       helper_size="0"
       apply_no_weight="true"
       apply_with_weight="true"
       only_selected="false" />
    <inkscape:path-effect
       effect="bspline"
       id="path-effect5645-2-0"
       is_visible="true"
       weight="33.333333"
       steps="2"
       helper_size="0"
       apply_no_weight="true"
       apply_with_weight="true"
       only_selected="false" />
    <inkscape:path-effect
       effect="bspline"
       id="path-effect5645-22"
       is_visible="true"
       weight="33.333333"
       steps="2"
       helper_size="0"
       apply_no_weight="true"
       apply_with_weight="true"
       only_selected="false" />
    <inkscape:path-effect
       effect="bspline"
       id="path-effect5645-56-0-9"
       is_visible="true"
       weight="33.333333"
       steps="2"
       helper_size="0"
       apply_no_weight="true"
       apply_with_weight="true"
       only_selected="false" />
    <inkscape:path-effect
       effect="bspline"
       id="path-effect5645-84-8-8"
       is_visible="true"
       weight="33.333333"
       steps="2"
       helper_size="0"
       apply_no_weight="true"
       apply_with_weight="true"
       only_selected="false" />
    <inkscape:path-effect
       effect="bspline"
       id="path-effect5645-73-3-9"
       is_visible="true"
       weight="33.333333"
       steps="2"
       helper_size="0"
       apply_no_weight="true"
       apply_with_weight="true"
       only_selected="false" />
    <inkscape:path-effect
       effect="bspline"
       id="path-effect5645-1-5-2"
       is_visible="true"
       weight="33.333333"
       steps="2"
       helper_size="0"
       apply_no_weight="true"
       apply_with_weight="true"
       only_selected="false" />
    <inkscape:path-effect
       effect="bspline"
       id="path-effect5645-46-5-9"
       is_visible="true"
       weight="33.333333"
       steps="2"
       helper_size="0"
       apply_no_weight="true"
       apply_with_weight="true"
       only_selected="false" />
    <inkscape:path-effect
       effect="bspline"
       id="path-effect5645-4-7-6"
       is_visible="true"
       weight="33.333333"
       steps="2"
       helper_size="0"
       apply_no_weight="true"
       apply_with_weight="true"
       only_selected="false" />
    <inkscape:path-effect
       effect="bspline"
       id="path-effect5645-0-6-9"
       is_visible="true"
       weight="33.333333"
       steps="2"
       helper_size="0"
       apply_no_weight="true"
       apply_with_weight="true"
       only_selected="false" />
    <inkscape:path-effect
       effect="bspline"
       id="path-effect5645-79-9-4"
       is_visible="true"
       weight="33.333333"
       steps="2"
       helper_size="0"
       apply_no_weight="true"
       apply_with_weight="true"
       only_selected="false" />
    <inkscape:path-effect
       effect="bspline"
       id="path-effect5645-7-3-4"
       is_visible="true"
       weight="33.333333"
       steps="2"
       helper_size="0"
       apply_no_weight="true"
       apply_with_weight="true"
       only_selected="false" />
    <inkscape:path-effect
       effect="bspline"
       id="path-effect5645-5-8-6"
       is_visible="true"
       weight="33.333333"
       steps="2"
       helper_size="0"
       apply_no_weight="true"
       apply_with_weight="true"
       only_selected="false" />
    <inkscape:path-effect
       effect="bspline"
       id="path-effect5645-8-5-7"
       is_visible="true"
       weight="33.333333"
       steps="2"
       helper_size="0"
       apply_no_weight="true"
       apply_with_weight="true"
       only_selected="false" />
    <inkscape:path-effect
       effect="bspline"
       id="path-effect5645-2-0-7"
       is_visible="true"
       weight="33.333333"
       steps="2"
       helper_size="0"
       apply_no_weight="true"
       apply_with_weight="true"
       only_selected="false" />
    <inkscape:path-effect
       effect="bspline"
       id="path-effect5645-22-9"
       is_visible="true"
       weight="33.333333"
       steps="2"
       helper_size="0"
       apply_no_weight="true"
       apply_with_weight="true"
       only_selected="false" />
  </defs>
  <sodipodi:namedview
     id="base"
     pagecolor="#ffffff"
     bordercolor="#666666"
     borderopacity="1.0"
     inkscape:pageopacity="0"
     inkscape:pageshadow="2"
     inkscape:zoom="1"
     inkscape:cx="338.07469"
     inkscape:cy="53.461424"
     inkscape:document-units="mm"
     inkscape:current-layer="layer1"
     showgrid="false"
     inkscape:window-width="1920"
     inkscape:window-height="1055"
     inkscape:window-x="0"
     inkscape:window-y="0"
     inkscape:window-maximized="1"
     fit-margin-top="0"
     fit-margin-left="0"
     fit-margin-bottom="0"
     fit-margin-right="0"
     inkscape:pagecheckerboard="false" />
  <metadata
     id="metadata5">
    <rdf:RDF>
      <cc:Work
         rdf:about="">
        <dc:format>image/svg+xml</dc:format>
        <dc:type
           rdf:resource="http://purl.org/dc/dcmitype/StillImage" />
        <dc:title></dc:title>
      </cc:Work>
    </rdf:RDF>
  </metadata>
  <g
     inkscape:label="Layer 1"
     inkscape:groupmode="layer"
     id="layer1"
     transform="translate(11.811039,-31.977267)">
    <g
       aria-label="GranatumX"
       style="font-style:normal;font-weight:normal;font-size:10.58333302px;line-height:6.61458349px;font-family:sans-serif;letter-spacing:0px;word-spacing:0px;fill:#000000;fill-opacity:1;stroke:none;stroke-width:0.26458332"
       id="text12-9"
       transform="translate(1.0056016,-11.985368)">
      <path
         style="font-style:normal;font-variant:normal;font-weight:normal;font-stretch:normal;font-size:10.58333302px;line-height:6.61458349px;font-family:C059;-inkscape-font-specification:'C059, Normal';font-variant-ligatures:normal;font-variant-caps:normal;font-variant-numeric:normal;font-feature-settings:normal;text-align:start;letter-spacing:-0.63499981px;word-spacing:0px;writing-mode:lr-tb;text-anchor:start;fill:#ffffff;fill-opacity:1;stroke:none;stroke-width:1.28854823"
         d="m 223.44531,43.974609 c -6.11548,0.137312 -12.23316,-0.0052 -18.34961,0.04883 0,1.471354 0,2.942708 0,4.414062 1.86337,0.160486 4.30985,-0.450687 5.5625,1.347656 0.50982,2.277417 -1.7581,3.740407 -2.66225,5.577599 -1.65946,2.412285 -3.31891,4.82457 -4.97837,7.236854 -3.06097,-4.585227 -6.50868,-8.978224 -9.26367,-13.701171 0.5494,-0.800178 1.84278,-0.225866 2.69374,-0.445997 0.94394,-0.255836 2.89644,0.50739 3.17735,-0.404394 0,-1.341537 0,-2.683073 0,-4.024609 -7.48503,0 -14.97005,-1e-6 -22.45508,0 0.25565,1.463107 -0.41374,3.058614 0.375,4.423828 2.1284,0.0686 5.00629,-0.410886 6.28516,1.767578 4.56966,6.608724 9.13932,13.217448 13.70898,19.826172 -4.42949,5.927838 -8.41488,12.205195 -13.20508,17.851562 -1.86947,1.768371 -4.49011,2.778797 -7.07031,2.5 0,1.48112 0,2.96224 0,4.44336 6.9043,-10e-7 13.8086,0 20.71289,0 0,-1.477865 0,-2.95573 0,-4.433594 -2.04698,0.01693 -4.94818,0.40209 -6.03515,-1.8125 -0.60243,-2.746965 1.92169,-4.722763 3.13509,-6.879443 1.73036,-2.506983 3.46072,-5.013965 5.19108,-7.520948 3.47936,5.06499 7.24865,9.943314 10.50195,15.150391 0.29015,0.964756 -0.78735,1.080891 -1.46819,0.988791 -1.67436,0.107367 -3.35318,0.07112 -5.02986,0.08347 0,1.47461 0,2.949219 0,4.423829 7.91211,-1e-6 15.82422,0 23.73633,0 0,-1.472657 0,-2.945313 0,-4.417969 -2.35118,-0.135074 -5.42396,0.496803 -7.01367,-1.722657 -5.10547,-7.311197 -10.21094,-14.622395 -15.31641,-21.933593 4.181,-5.422365 7.82618,-11.282346 12.45704,-16.341797 1.78997,-1.587153 4.29008,-2.045481 6.57226,-2.097656 1.06971,-0.970678 0.2734,-2.554068 0.40625,-3.751954 -0.29289,-0.619372 -1.08196,-0.633032 -1.66797,-0.595703 z"
         id="path1210"
         inkscape:connector-curvature="0" />
      <path
         style="font-style:normal;font-variant:normal;font-weight:normal;font-stretch:normal;font-size:10.58333302px;line-height:6.61458349px;font-family:C059;-inkscape-font-specification:'C059, Normal';font-variant-ligatures:normal;font-variant-caps:normal;font-variant-numeric:normal;font-feature-settings:normal;text-align:start;letter-spacing:-0.63499981px;word-spacing:0px;writing-mode:lr-tb;text-anchor:start;fill:#8b4c6c;fill-opacity:0.49488059;stroke:none;stroke-width:1.28854823"
         d="m 177.79102,44.621217 v 3.228862 h 1.17068 c 3.71102,0.06867 4.25879,0.344811 5.77069,2.612331 l 13.53949,19.58755 -11.13344,15.462491 c -3.0238,4.054655 -5.36015,5.428074 -9.00246,5.496795 h -0.27446 v 3.228859 h 19.51706 v -3.228859 h -1.71903 c -2.74889,0 -4.46712,-1.237742 -4.46712,-3.299346 0,-0.893413 0.41295,-1.991776 1.10017,-3.022577 l 7.97277,-11.546597 10.23784,14.500994 c 0.6185,0.824695 0.89331,1.581792 0.89331,2.131573 0,1.099563 -0.2734,1.167232 -4.60292,1.235953 h -1.92531 v 3.228859 h 22.54195 v -3.228859 h -0.82513 c -4.60442,-0.06866 -5.01611,-0.27531 -7.21524,-3.573806 l -14.43108,-20.684836 9.13824,-12.439907 c 3.57357,-4.948027 5.56656,-6.323183 9.41502,-6.460618 h 1.09958 V 44.621217 H 205.694 v 3.228862 h 0.96151 c 3.29869,0 4.74101,0.825001 4.74101,2.680514 0,0.755984 -0.20498,1.23829 -0.96091,2.337861 l -7.42212,10.789073 -9.14054,-13.195117 c -0.48109,-0.68722 -0.75523,-1.375432 -0.75523,-1.71902 0,-0.687266 0.61688,-0.893311 3.29705,-0.893311 h 2.61233 v -3.228862 z"
         id="path5506"
         inkscape:connector-curvature="0" />
      <path
         style="fill:#ffffff;fill-opacity:1;stroke:none;stroke-width:0.37789834px;stroke-linecap:butt;stroke-linejoin:miter;stroke-opacity:1"
         d="m -6.7617188,55.658203 c 0.3032442,0.995109 0.7168257,1.956035 0.9550782,2.970703 -0.7673242,-0.70023 -1.5097329,-1.457835 -2.4648438,-1.904297 -0.002,0.994647 0.39322,1.926429 0.4765625,2.908203 -0.9754537,-0.873087 -1.8402272,-1.861391 -2.8105471,-2.740234 1.7739393,4.632374 1.3979335,10.003257 -0.992477,14.308943 -2.456817,6.536513 -1.281098,14.830406 4.2756804,19.452776 6.4694167,5.626557 16.9544746,6.704068 23.9374996,1.412109 0.423486,-0.896281 0.975791,0.04667 1.072266,0.580078 0.463474,1.250796 1.232913,3.345186 2.964844,2.839844 1.605504,-0.36709 1.176956,-2.359995 1.126001,-3.545879 -0.0278,-3.213828 -0.262251,-6.520457 0.202124,-9.674824 1.383415,-1.132323 3.497438,0.319419 4.800781,-0.970703 0.487704,-1.090813 0.195944,-3.285226 -1.45625,-2.859375 -0.875203,-0.294638 -3.106177,0.631504 -3.008594,-0.539063 0.677025,-8.148079 -5.05769,-16.751563 -13.3300779,-18.15039 -3.0894669,-0.556055 -6.2159236,0.672802 -9.27902987,0.138394 -2.70747803,-0.858894 -4.38772153,-3.298521 -6.67214203,-4.83566 0.067708,0.203125 0.1354167,0.40625 0.203125,0.609375 z M 119.78906,62.943359 c -1.53577,0.132598 -1.42987,2.031491 -1.45312,3.152344 -0.46313,2.595643 -1.89815,5.858702 -4.9375,6.068359 -1.67341,0.38042 -1.34482,3.580449 0.50976,3.171876 0.78659,0.07372 2.48159,-0.577577 2.29426,0.75411 0.15708,5.304468 -0.49333,10.695674 0.49939,15.936394 1.70338,4.034195 7.65631,4.608366 10.64024,1.697928 2.42452,-2.053243 2.95259,-5.516388 2.56416,-8.515386 -1.0434,0.04115 -2.82036,-0.442313 -3.1582,0.976563 0.0649,2.071963 -0.46758,5.054472 -2.98828,5.310547 -1.8273,-0.08595 -2.26228,-2.293862 -2.00326,-3.759271 -0.0982,-4.143974 -0.0224,-8.28946 -0.0456,-12.434089 2.97368,0.109122 5.97434,-0.273944 8.92578,0.236328 1.40757,1.629793 0.32929,3.895887 0.74395,5.816545 0.11667,3.640847 -0.73484,7.612547 1.01581,10.984237 2.98542,4.368317 10.25472,4.047204 13.25782,0.08789 -0.30506,0.962085 -0.10175,2.457965 1.19922,2.402344 6.41864,-0.04619 12.84287,-0.01488 19.26367,-0.0332 0.30609,-1.082372 0.15928,-3.173053 -1.43164,-2.939453 -1.04749,0.33494 -2.58899,-0.393173 -2.15046,-1.672506 0.23648,-4.300689 -0.91251,-8.984493 1.30085,-12.938822 1.23938,-1.791049 4.4363,-2.682692 5.78125,-0.560547 1.63899,2.683137 0.61004,5.93682 0.89843,8.886719 -0.0276,2.01397 0.36222,4.254076 -0.4746,6.111328 -1.01667,0.531698 -2.86953,-0.395503 -3.30664,1.058594 -0.26875,1.245993 0.8892,2.644552 2.19782,2.133149 3.57717,-0.193262 7.16006,-0.01832 10.73968,-0.07846 0.30659,-1.085547 0.16217,-3.17177 -1.43165,-2.943359 -1.0322,0.329267 -2.58257,-0.334343 -2.15601,-1.621713 0.23528,-4.336353 -0.89119,-9.079435 1.3173,-13.051257 1.26431,-1.882638 4.74265,-2.60346 5.88168,-0.231327 1.45601,2.881833 0.51018,6.194401 0.79102,9.27539 -0.0508,1.79052 0.31364,3.801174 -0.44922,5.44336 -0.99561,0.552834 -2.65779,-0.337816 -3.21484,0.99414 -0.57323,1.227649 0.6956,2.780665 2.01037,2.206592 3.59466,-0.167634 7.19374,-0.02802 10.79041,-0.06987 0.35249,-1.090576 0.14299,-3.108201 -1.39063,-2.96289 -1.17202,0.461 -2.68055,-0.541088 -2.22107,-1.862013 -0.225,-4.780334 0.65612,-9.725374 -0.71643,-14.382128 -2.07679,-4.430159 -8.76357,-5.658036 -12.18359,-2.099609 -0.59952,0.549562 -1.13479,1.16531 -1.64063,1.800781 -2.2009,-4.69927 -9.59045,-5.119964 -12.52343,-1.00586 0.151,-0.842026 0.0786,-2.290958 -1.13672,-2.197265 -2.7422,0.317492 -5.5191,0.357582 -8.27735,0.568359 -0.0304,1.052408 -0.43098,2.909837 1.01758,3.205078 0.97121,-0.03664 2.70907,-0.485379 2.83203,0.964844 -0.0679,4.856462 0.17865,9.719491 -0.15039,14.570313 -1.4437,0.880926 -3.27361,0.512794 -4.83593,0.320312 -1.35908,-0.984237 -0.58823,-2.906293 -0.80782,-4.316775 -0.0609,-5.108428 6.1e-4,-10.217205 -0.0223,-15.325803 -3.28306,0.195111 -6.56636,0.386279 -9.84961,0.578125 -0.0447,1.067905 -0.42064,2.960088 1.0625,3.232422 1.02565,0.106329 2.6693,-0.632728 3.14855,0.604256 -0.006,4.326155 0.84221,9.000588 -1.25988,12.968009 -1.47903,2.036424 -5.10648,2.981324 -6.81964,0.774306 -1.20994,-2.416385 -0.23504,-5.170614 -0.57113,-7.742274 -5.9e-4,-3.457292 -10e-4,-6.914584 -0.002,-10.371875 -5.05078,0 -10.10156,0 -15.15234,0 0,-3.042318 0,-6.084636 0,-9.126953 -0.64139,0.0085 -1.2806,-0.07267 -1.92188,-0.04883 z m -38.544919,8.457032 c -2.492494,0.05505 -4.815174,1.393966 -6.425782,3.24414 0.262149,-0.918465 0.172662,-2.703575 -1.192218,-2.477466 -2.643953,0.160227 -5.287556,0.32592 -7.930829,0.496997 -0.02466,1.044342 -0.44123,2.916612 1.019532,3.185547 0.977349,-0.115785 2.798597,-0.303534 2.592683,1.215623 -0.05102,4.780083 0.186762,9.566851 -0.145418,14.341018 -1.404444,0.875159 -3.207776,0.518236 -4.738281,0.404297 -1.278352,-1.017904 -0.594493,-2.883759 -0.888416,-4.297198 -0.18206,-4.203124 0.743834,-8.642395 -0.822521,-12.66374 -1.972044,-3.14781 -6.125739,-3.568318 -9.50696,-3.379215 -2.896664,0.116267 -5.896641,1.366034 -7.659056,3.664372 -0.266485,-0.918106 -0.554761,-1.875425 -1.364229,-2.502479 -2.427237,-2.183144 -6.407739,-1.177059 -8.299834,1.246619 -0.503548,0.56428 -0.940492,1.185877 -1.328124,1.833985 0,-1.210938 -10e-7,-2.421875 0,-3.632813 -3.113236,0.194047 -6.226425,0.389094 -9.339844,0.580078 -0.03231,1.054292 -0.430936,2.920728 1.027344,3.207032 0.945814,-0.004 2.6414,-0.512596 2.804687,0.902343 -0.09689,4.91095 0.324237,9.884948 -0.238281,14.753907 -0.979226,0.807565 -3.026845,-0.297897 -3.462891,1.310546 -0.418882,1.209549 0.827438,2.563491 2.061178,2.033266 3.814159,-0.168612 7.632523,-0.02833 11.448588,-0.07037 0.252681,-1.056309 0.226683,-3.00367 -1.28125,-2.96875 -1.097391,0.221295 -3.168233,0.276774 -2.980151,-1.397884 -0.154231,-5.120826 0.181791,-10.887768 3.870776,-14.807194 0.67975,-0.674687 0.476119,0.133055 0.419922,0.583984 -0.08511,2.452328 3.075492,4.275086 5.080078,2.730469 0.358379,-0.118081 0.872383,-1.321697 0.835937,-0.537109 0.2452,2.602997 4.104739,3.995884 5.716797,1.75 1.06818,-1.268782 0.652999,-3.141072 -0.203125,-4.363282 0.572459,-1.115786 2.198986,-1.049178 3.302735,-1.1875 1.976551,-0.133337 4.372334,0.989891 4.375,3.240235 0.118094,0.966976 0.459347,2.720598 -0.969858,2.783763 -2.910003,0.339275 -5.796882,1.109879 -8.480616,2.299613 -2.63739,1.220951 -5.345889,3.69289 -4.958489,6.873883 0.134342,2.645848 2.170519,5.084316 4.856812,5.396471 3.570589,0.887929 7.542233,-0.23656 10.179104,-2.785371 1.066944,2.40483 4.076359,2.689219 6.36875,2.388672 4.50664,0 9.013281,0 13.519921,0 0.237223,-1.028227 0.253971,-2.908794 -1.193359,-2.958984 -1.058562,0.370277 -2.886045,-0.208295 -2.441406,-1.613282 0.229913,-4.351319 -0.943919,-9.236522 1.673828,-13.085937 1.524987,-1.854128 5.111062,-2.477254 6.417096,-0.07524 1.587128,3.029431 0.454449,6.534873 0.830502,9.780966 8.71e-4,1.597137 0.298771,3.439655 -0.528848,4.850916 -0.993201,0.494858 -2.380659,-0.232384 -3.195313,0.63086 -0.430378,1.196508 0.468481,3.037942 1.925782,2.558594 3.644106,-0.209709 7.294548,-0.02225 10.941406,-0.08984 0.289512,-0.304145 -0.279395,-2.314598 0.326172,-1.476563 3.200418,3.095896 8.508578,2.627562 12.050458,0.374456 0.57711,-0.366172 1.11935,-0.789073 1.61556,-1.259221 1.44838,3.604029 7.42966,3.571355 8.97656,0.0918 0.44777,-0.934569 -0.38299,-2.180881 -1.44141,-1.708985 -0.83762,0.332814 -2.41346,0.732089 -2.38672,-0.68164 -0.72447,-4.624604 0.43951,-9.38137 -0.58023,-13.973584 -0.70151,-3.136955 -4.14379,-4.400934 -6.99982,-4.682987 -3.71649,-0.256056 -8.132333,0.290654 -10.474632,3.549149 -1.334712,1.710067 -1.331849,4.63626 0.746804,5.772298 1.782166,1.309753 4.520256,-0.0048 4.672631,-2.187009 0.203988,-0.975978 -0.287792,-1.916505 -0.821779,-2.653649 0.23802,-1.235569 1.891186,-1.12891 2.878976,-1.36645 2.20185,-0.298982 4.99197,1.057913 4.83001,3.598872 -0.18976,0.743111 0.5374,2.30179 -0.57627,2.293023 -4.59604,0.849211 -9.829448,1.727339 -12.929412,5.591334 -1.188036,1.695652 -1.08453,4.113515 -0.492367,5.86369 -0.999527,-0.256983 -2.718439,0.376155 -2.997502,-1.01424 -0.318945,-5.06532 0.714422,-10.315077 -0.811006,-15.241402 -1.289824,-2.700477 -4.305721,-4.426048 -7.279382,-4.28342 z m -23.197266,12.18164 c 0.297139,2.658229 -0.02325,5.875271 -2.550763,7.396527 -1.900671,1.396532 -5.442878,1.186872 -6.029315,-1.476605 -0.464244,-2.57012 1.924556,-4.669831 4.294922,-5.015625 1.40781,-0.38393 2.844426,-0.656704 4.285156,-0.904297 z m 48.304685,0.002 c 0.30837,2.668858 -0.0348,5.902164 -2.58051,7.415322 -1.80143,1.286137 -5.056517,1.214065 -5.905816,-1.161415 -0.771839,-2.581581 1.64403,-4.988909 4.092366,-5.312413 1.44283,-0.397215 2.92899,-0.699042 4.39396,-0.941494 z"
         id="path300"
         inkscape:connector-curvature="0" />
      <path
         style="font-style:normal;font-variant:normal;font-weight:normal;font-stretch:normal;font-size:10.58333302px;line-height:6.61458349px;font-family:C059;-inkscape-font-specification:'C059, Normal';font-variant-ligatures:normal;font-variant-caps:normal;font-variant-numeric:normal;font-feature-settings:normal;text-align:start;letter-spacing:-0.63499981px;word-spacing:0px;writing-mode:lr-tb;text-anchor:start;fill:#c3374c;fill-opacity:1;stroke:none;stroke-width:4.72152424"
         d="m -17.814453,169.55469 c 0,0 3.444203,9.44402 1.771484,10.26562 -1.672718,0.82161 -8.373697,-6.48363 -8.609375,-6.31836 -0.226159,0.16464 2.812435,9.24972 1.300782,10.32813 -1.511654,1.0784 -8.642579,-6.76953 -8.642579,-6.76953 0,0 6.031023,18.42435 -1.160156,35.85351 -5.350526,12.96788 -9.128906,21.10512 -9.128906,37.18164 0,17.7704 5.934442,32.57993 18.013672,43.9043 12.693427,12.19533 31.5292644,19.34375 51.183593,19.34375 17.197538,0 29.278331,-4.53324 42.585938,-15.85742 l 7.578125,15.67773 h 6.597656 V 274.8418 c 0,-8.88522 1.58e-4,-9.23476 1.228516,-10.80274 1.842591,-1.91644 3.525556,-2.4414 15.195313,-2.4414 h 3.06836 v -8.18555 H 85.441406 c 0.133086,-1.36592 1.080991,-11.78991 -0.384765,-20.73828 -1.888362,-11.52822 -7.914138,-22.74886 -17.345703,-33.39844 -9.784706,-11.04844 -23.601402,-16.94531 -38.546876,-16.94531 -5.366559,0 -10.34905,0.42162 -15.083984,1.31054 -5.5052635,1.0338 -9.391031,0.83873 -13.27343738,-0.59179 C -5.3905005,180.76475 -17.814453,169.55469 -17.814453,169.55469 Z"
         id="path5650"
         inkscape:connector-curvature="0"
         transform="matrix(0.26458333,0,0,0.26458333,-1.0056016,11.985368)" />
      <path
         style="font-style:normal;font-variant:normal;font-weight:normal;font-stretch:normal;font-size:10.58333302px;line-height:6.61458349px;font-family:C059;-inkscape-font-specification:'C059, Normal';font-variant-ligatures:normal;font-variant-caps:normal;font-variant-numeric:normal;font-feature-settings:normal;text-align:start;letter-spacing:-0.63499981px;word-spacing:0px;writing-mode:lr-tb;text-anchor:start;fill:#fafacb;fill-opacity:1;stroke:none;stroke-width:4.72152424"
         d="m 28.34375,190.51367 c 23.339518,0 42.109727,19.77724 49.236328,42.41016 3.4696,11.01888 0.927849,18.61725 0.169922,20.48828 H 64.541016 v 8.18555 c 0,0 0.04102,0.86912 0.04102,10.625 0,7.49155 -1.428251,14.2855 -4.089843,18.46679 -5.118252,8.53671 -18.22167,14.46289 -31.529297,14.46289 -13.307604,0 -26.4082378,-5.75202 -33.369141,-14.46289 -7.575095,-9.75639 -10.855469,-21.95221 -10.855469,-40.59375 0,-38.85097 15.14764853,-59.58203 43.605469,-59.58203 z"
         id="path5504"
         inkscape:connector-curvature="0"
         transform="matrix(0.26458333,0,0,0.26458333,-1.0056016,11.985368)" />
      <path
         style="font-style:normal;font-variant:normal;font-weight:normal;font-stretch:normal;font-size:10.58333302px;line-height:6.61458349px;font-family:C059;-inkscape-font-specification:'C059, Normal';font-variant-ligatures:normal;font-variant-caps:normal;font-variant-numeric:normal;font-feature-settings:normal;text-align:start;letter-spacing:-0.63499981px;word-spacing:0px;writing-mode:lr-tb;text-anchor:start;fill:#ffffff;fill-opacity:0.47440275;stroke:none;stroke-width:1.28854823"
         d="m 197.84388,44.850086 c -6.61196,0.07327 -13.2689,-0.0094 -19.86132,0.04102 0.0963,0.684208 -0.48588,2.192215 0.64453,2.109375 2.29838,-0.370969 5.06747,0.429941 6.11419,2.69426 4.61516,6.67467 9.22849,13.350615 13.84479,20.02449 -4.64402,6.183353 -8.78651,12.756995 -13.79883,18.650391 -1.7947,1.697448 -4.18231,2.87276 -6.68359,2.892578 0.086,0.694849 -0.6735,2.31014 0.61367,2.048967 5.85857,-0.0226 11.71719,-0.01061 17.57578,-0.01186 -0.12,-0.604896 0.54727,-1.828232 -0.20713,-2.022558 -2.2601,0.213783 -5.28364,-0.551621 -5.81435,-3.098536 -0.48309,-3.132738 2.20096,-5.432452 3.67535,-7.871107 1.94493,-2.865268 3.92936,-5.704812 5.89301,-8.55858 3.8332,5.6228 8.17715,10.918033 11.61523,16.789062 0.54944,0.938258 1.24089,2.805544 -1.74799,2.788923 -1.51177,-0.0084 -4.5899,0.05092 -4.5899,0.05092 l 0.0125,1.933993 c 0,0 14.32552,-0.01091 21.19063,-0.01212 0,-0.695032 -0.008,-1.294498 -0.008,-2.026307 -1.29723,0 -3.69587,-0.116935 -4.27783,-0.299251 -1.02185,-0.320127 -2.39407,-1.843866 -2.87543,-2.547165 -5.09848,-7.449254 -10.26275,-14.679916 -15.38015,-22.029621 4.35783,-5.651549 8.17002,-11.740997 12.95313,-17.044922 1.83335,-1.666457 4.34341,-2.516097 6.78906,-2.503906 0.20943,-0.579665 0.23795,-1.697019 -0.25274,-1.970703 h -17.32734 c 0.0421,0.726851 -0.67075,2.337177 0.69559,2.044878 1.92067,-0.08644 4.58847,0.528018 4.89621,2.781294 0.19482,2.693239 -2.264,4.44193 -3.40831,6.623308 -1.8441,2.683036 -3.69027,5.364657 -5.5331,8.048567 -3.43391,-5.144825 -7.22826,-10.068107 -10.42187,-15.369141 -0.45898,-1.27608 0.95825,-2.294253 2.13064,-2.043569 1.17835,-0.168611 2.63472,0.108492 3.63694,-0.151743 -0.0614,-0.595135 0.44839,-1.555137 -0.0938,-1.960938 z"
         id="path6464"
         inkscape:connector-curvature="0"
         sodipodi:nodetypes="cccccccccccccssccccsscccccccccccccc" />
      <path
         style="font-style:normal;font-variant:normal;font-weight:normal;font-stretch:normal;font-size:10.58333302px;line-height:6.61458349px;font-family:C059;-inkscape-font-specification:'C059, Normal';font-variant-ligatures:normal;font-variant-caps:normal;font-variant-numeric:normal;font-feature-settings:normal;text-align:start;letter-spacing:-0.63499981px;word-spacing:0px;writing-mode:lr-tb;text-anchor:start;fill:#bd5454;fill-opacity:1;stroke:none;stroke-width:4.3554945"
         d="m 461.55273,195.04297 -7.14453,0.006 c -1.74221,22.64851 -9.40967,34.14609 -23.52148,35.1914 v 6.78907 h 14.29101 v 44.43164 c 0,12.19532 0.34189,16.54579 2.08399,20.55273 2.78751,7.31724 9.75852,11.33008 19.86328,11.33008 15.67975,0 25.78516,-11.85113 25.78516,-30.31836 0,-1.04534 0.004,-2.26353 -0.16993,-4.00586 h -7.3164 c -0.52267,15.67979 -5.05697,23.69141 -13.59375,23.69141 -4.00706,0 -7.4914,-2.09095 -8.71094,-5.05274 -1.0453,-2.43911 -1.56641,-6.7945 -1.56641,-13.0664 v -47.5625 h 25.60547 6.62696 c 6.62041,0.1745 8.66011,3.13394 8.66015,10.625 v 37.63476 c 0,8.88522 0.69532,12.89522 3.3086,16.90235 4.70392,7.14289 13.06829,11.14453 23.52148,11.14453 11.4985,0 19.51397,-4.69764 27.17969,-15.84766 v 13.30469 l 29.14453,-0.0664 h 43.9043 v -6.27734 h -0.68946 c -11.49849,-0.34885 -13.0664,-1.21962 -13.0664,-7.66602 v -7.49414 -24.73828 c 0,-15.50562 8.53121,-27 19.85547,-27 9.93055,0 14.98828,7.13819 14.98828,21.25 v 30.48828 8.3711 c -0.17424,2.2648 -0.35385,3.48432 -1.22461,4.35546 -1.04531,1.56715 -4.52809,2.25748 -12.01953,2.43165 h -0.69922 v 6.27929 h 44.08398 v -6.27929 h -0.69922 c -11.49849,-0.34885 -13.0664,-1.21331 -13.0664,-7.48438 V 289.28906 266.125 c 0,-17.42207 7.83979,-28.57422 20.03515,-28.57422 9.93052,0 14.8086,7.49209 14.8086,23.17188 v 28.5664 8.19141 c -0.17424,2.43897 -0.35385,3.66401 -1.22461,4.53515 -1.04531,1.56715 -4.52806,2.25748 -12.01953,2.43165 h -0.69727 v 6.27929 h 44.08203 v -6.27929 h -0.69726 c -11.4985,-0.34885 -13.06641,-1.21752 -13.06641,-7.66407 v -7.49414 -32.05468 c 0,-10.80171 -1.05035,-14.45745 -5.58008,-20.38086 -5.05243,-6.44625 -12.19019,-9.92774 -20.55273,-9.92774 -11.3243,0 -19.68825,5.40071 -27.17969,17.42188 -2.96175,-10.45319 -12.36828,-17.42188 -24.04102,-17.42188 -10.62738,0 -18.29136,5.04955 -25.08593,16.02539 v -13.41406 l -31.01563,1.91406 v 7.49414 h 7.14649 c 6.62033,0.1745 7.48437,1.21972 7.48437,8.71094 v 41.63281 6.79688 1.39648 c -0.17423,2.61332 -0.34013,3.66206 -1.03711,4.5332 -1.13488,1.45852 -4.23437,2.14193 -10.67578,2.37305 l -3.8457,-0.0332 c -10.10468,-0.34885 -10.97266,-2.52577 -10.97266,-13.84961 v -60.9668 l -32.75976,1.91406 v 7.48438 h 8.88867 c 6.62033,0.1745 7.49414,1.21988 7.49414,8.71094 v 21.42968 c 0,9.93052 -1.04489,15.85282 -3.6582,21.42774 -3.65863,7.83987 -10.62928,12.19922 -19.16602,12.19922 -5.40083,0 -9.93242,-1.91593 -12.19727,-5.40039 -2.26488,-3.31011 -2.61132,-5.05062 -2.61132,-14.63281 v -53.13282 l -31.66407,-0.01 v 0.01 h -25.60547 z"
         id="path5500"
         inkscape:connector-curvature="0"
         transform="matrix(0.26458333,0,0,0.26458333,-1.0056016,11.985368)" />
      <path
         style="font-style:normal;font-variant:normal;font-weight:normal;font-stretch:normal;font-size:10.58333302px;line-height:6.61458349px;font-family:C059;-inkscape-font-specification:'C059, Normal';font-variant-ligatures:normal;font-variant-caps:normal;font-variant-numeric:normal;font-feature-settings:normal;text-align:start;letter-spacing:-0.63499981px;word-spacing:0px;writing-mode:lr-tb;text-anchor:start;fill:#433131;fill-opacity:1;stroke:none;stroke-width:4.3554945"
         d="m 158.27734,226.93164 c -10.97584,0 -20.38357,8.70533 -26.13281,24.21094 v -21.59961 l -30.83789,1.91406 v 7.49414 h 7.14648 c 6.62035,0.1745 7.48438,1.2197 7.48438,8.71094 v 41.63281 8.19336 c -0.17416,2.61328 -0.34841,3.6544 -1.04492,4.52539 -1.21949,1.56718 -4.69996,2.26721 -12.19141,2.44141 h -0.69726 v 6.26953 h 46.51562 v -6.26953 h -3.13867 c -11.67277,-0.34885 -13.23633,-1.21507 -13.23633,-7.48633 v -7.67383 -1.73437 c 0.17416,-29.26893 10.62961,-51.5688 24.21875,-52.26563 -2.43906,2.78746 -3.13867,4.5237 -3.13867,7.83399 0,5.57491 4.00305,9.58789 9.57812,9.58789 6.4461,0 10.63282,-4.71096 10.63282,-11.67969 0,-8.53688 -5.9245,-14.10547 -15.15821,-14.10547 z"
         id="path5486"
         inkscape:connector-curvature="0"
         transform="matrix(0.26458333,0,0,0.26458333,-1.0056016,11.985368)" />
      <path
         style="font-style:normal;font-variant:normal;font-weight:normal;font-stretch:normal;font-size:10.58333302px;line-height:6.61458349px;font-family:C059;-inkscape-font-specification:'C059, Normal';font-variant-ligatures:normal;font-variant-caps:normal;font-variant-numeric:normal;font-feature-settings:normal;text-align:start;letter-spacing:-0.63499981px;word-spacing:0px;writing-mode:lr-tb;text-anchor:start;fill:#553e3e;fill-opacity:1;stroke:none;stroke-width:4.3554945"
         d="m 209.41992,226.93164 c -19.68682,0 -33.97656,9.2293 -33.97656,21.94727 0,6.44625 4.00779,10.625 10.10547,10.625 5.57504,0 9.41015,-3.65427 9.41015,-8.88086 0,-2.26481 -0.87118,-4.70538 -2.61328,-7.14453 -1.04532,-1.21981 -1.22461,-1.57042 -1.22461,-2.44141 0,-3.48445 6.97535,-6.61914 15.33789,-6.61914 5.57503,0 11.66562,1.74217 14.45313,4.35547 3.31022,2.78761 4.53516,6.97063 4.53516,14.81054 v 6.79688 c -18.11887,3.13595 -23.86562,4.52372 -32.40235,7.83398 -15.15712,5.57492 -22.30469,13.59608 -22.30469,24.7461 0,12.5438 9.75813,20.38266 25.26368,20.38281 12.02116,0 22.81905,-4.87846 30.31054,-13.76367 2.78751,8.88521 7.14956,11.16601 15.33789,11.16601 3.07559,0 4.82735,-0.0117 9.85938,-0.0117 h 2.79101 l 44.08204,-0.008 v -6.26953 h -0.69727 c -11.67272,-0.34885 -13.24609,-1.21331 -13.24609,-7.48437 v -7.67383 -18.11133 c 0,-8.53671 1.22228,-16.38354 3.13867,-20.39062 3.65861,-7.83992 11.49684,-13.23633 18.98828,-13.23633 4.52973,0 9.75586,2.441 12.36914,6.09961 2.61328,3.83278 3.83594,9.05933 3.83594,17.42187 v 28.2168 8.1914 c -0.17424,2.61332 -0.34978,3.65441 -1.04688,4.52539 -1.21946,1.56715 -4.7078,2.26725 -12.19922,2.44141 h -0.69726 v 6.26953 h 44.08203 v -6.26953 h -0.69727 c -11.49849,-0.34885 -13.0664,-1.21331 -13.0664,-7.48437 v -7.67383 -27.34961 c 0,-12.54384 -0.52226,-15.67604 -3.65821,-21.59961 -4.35549,-8.36255 -13.06829,-13.41406 -23.52148,-13.41406 -11.32423,0 -19.86166,5.22611 -27.52734,16.72461 v -14.11328 l -30.13868,1.91406 v 7.49414 h 6.26954 c 6.62035,0.1745 7.49414,1.21971 7.49414,8.71094 v 41.63281 4.18555 4.00585 c -0.17416,2.61332 -0.34988,3.65441 -1.04688,4.52539 -1.21948,1.56715 -4.52809,2.26725 -12.01953,2.44141 h -0.69727 c 0,0 -4.8178,-0.0332 -6.34765,-0.0332 -4.87817,0 -6.13281,-5.89213 -6.13281,-14.77735 v -35.01367 c 0,-10.97582 -1.91442,-16.54919 -6.9668,-20.73047 -5.74926,-4.70393 -14.28547,-6.96679 -25.43555,-6.96679 z m 16.02735,40.93555 v 8.01367 c 0,10.45319 -0.52661,12.89207 -3.48829,17.42187 -4.3555,6.44606 -12.18974,10.80274 -19.85546,10.80274 -8.01406,0 -13.76368,-5.74603 -13.76368,-13.58594 0,-7.3172 3.65659,-12.54646 11.32227,-16.20508 5.4008,-2.43896 12.19601,-4.18246 25.78516,-6.44726 z"
         id="path5484"
         inkscape:connector-curvature="0"
         transform="matrix(0.26458333,0,0,0.26458333,-1.0056016,11.985368)" />
      <path
         style="font-style:normal;font-variant:normal;font-weight:normal;font-stretch:normal;font-size:10.58333302px;line-height:6.61458349px;font-family:C059;-inkscape-font-specification:'C059, Normal';font-variant-ligatures:normal;font-variant-caps:normal;font-variant-numeric:normal;font-feature-settings:normal;text-align:start;letter-spacing:-0.63499981px;word-spacing:0px;writing-mode:lr-tb;text-anchor:start;fill:#8b4343;fill-opacity:1;stroke:none;stroke-width:4.3554945"
         d="m 391.99414,226.93164 c -19.68682,0 -33.96875,9.2293 -33.96875,21.94727 0,6.44625 3.99996,10.625 10.09766,10.625 5.57503,0 9.4082,-3.65427 9.4082,-8.88086 0,-2.26481 -0.86923,-4.70538 -2.61133,-7.14453 -1.0453,-1.21981 -1.21679,-1.57042 -1.2168,-2.44141 0,-3.48445 6.96752,-6.61914 15.33008,-6.61914 5.57503,0 11.6735,1.74217 14.46094,4.35547 3.31019,2.78761 4.52539,6.97063 4.52539,14.81054 v 6.79688 c -18.11886,3.13595 -23.86555,4.52372 -32.40234,7.83398 -15.15712,5.57492 -22.29688,13.59608 -22.29688,24.7461 0,12.5438 9.75228,20.38266 25.25781,20.38281 12.02119,0 22.82693,-4.87846 30.31836,-13.76367 2.78756,8.88521 7.14177,12.36914 15.33008,12.36914 7.83988,0 16.02539,-5.05307 16.02539,-10.10547 0,-1.21984 -0.69872,-2.09375 -1.74414,-2.09375 -0.69683,0 -1.3919,0.17738 -2.61133,0.69922 -2.43908,1.0453 -3.4793,1.21484 -4.87304,1.21484 -4.87816,0 -6.62696,-3.13431 -6.62696,-12.01953 v -35.01367 c 0,-10.97582 -1.91639,-16.55115 -6.96875,-20.73242 -5.74926,-4.70393 -14.28349,-6.9668 -25.43359,-6.9668 z m 16.02539,40.93555 v 8.01367 c 0,10.45319 -0.51676,12.89207 -3.47851,17.42187 -4.35549,6.44606 -12.19761,10.80274 -19.86329,10.80274 -8.01412,0 -13.76367,-5.74603 -13.76367,-13.58594 0,-7.3172 3.65658,-12.54646 11.32227,-16.20508 5.40083,-2.43896 12.19406,-4.18246 25.7832,-6.44726 z"
         id="path5482"
         inkscape:connector-curvature="0"
         transform="matrix(0.26458333,0,0,0.26458333,-1.0056016,11.985368)" />
      <g
         id="g5796"
         style="fill:#a83852;fill-opacity:0.47540983;stroke:none">
        <path
           inkscape:connector-curvature="0"
           id="path5502"
           d="m 6.3626043,63.285594 c -0.2750304,-0.0021 -0.5150932,0.024 -0.6922882,0.08733 -0.7083893,0.255669 -1.3214993,0.733642 -2.106013,1.538409 -0.7853706,0.802846 2.1724888,2.620883 2.9015371,2.736784 0.7288629,0.115855 2.6664963,-0.641342 3.6308688,-1.47433 C 11.061101,65.340803 9.9704016,64.27631 9.0321641,63.864889 8.3275988,63.557498 7.1876959,63.292325 6.3626043,63.285594 Z"
           style="font-style:normal;font-variant:normal;font-weight:normal;font-stretch:normal;font-size:10.58333302px;line-height:6.61458349px;font-family:C059;-inkscape-font-specification:'C059, Normal';font-variant-ligatures:normal;font-variant-caps:normal;font-variant-numeric:normal;font-feature-settings:normal;text-align:start;letter-spacing:-0.63499981px;word-spacing:0px;writing-mode:lr-tb;text-anchor:start;fill:#a83852;fill-opacity:0.47540983;stroke:none;stroke-width:1.24923658" />
        <path
           inkscape:connector-curvature="0"
           id="path5498"
           d="m 1.3186178,64.959912 c -0.2256121,0.01225 -0.44205292,0.118252 -0.64613552,0.374136 -0.32649739,0.409419 0.32615352,1.199955 0.64249182,1.331185 0.3161067,0.131101 0.8428508,-0.04971 1.1756752,-0.399457 C 2.82339,65.916028 2.1116393,65.154277 1.7339905,65.026573 1.5926098,64.978554 1.453985,64.952561 1.3186178,64.959912 Z"
           style="font-style:normal;font-variant:normal;font-weight:normal;font-stretch:normal;font-size:10.58333302px;line-height:6.61458349px;font-family:C059;-inkscape-font-specification:'C059, Normal';font-variant-ligatures:normal;font-variant-caps:normal;font-variant-numeric:normal;font-feature-settings:normal;text-align:start;letter-spacing:-0.63499981px;word-spacing:0px;writing-mode:lr-tb;text-anchor:start;fill:#a83852;fill-opacity:0.47540983;stroke:none;stroke-width:1.24923658" />
        <path
           inkscape:connector-curvature="0"
           id="path5496"
           d="m 2.697121,67.32721 c -0.7680242,0.03484 -1.53679,0.304787 -2.59729459,0.833022 -1.06049896,0.526058 0.98888269,3.095374 1.62748419,3.416329 0.6385662,0.320567 2.7640538,0.172493 4.0049471,-0.329694 1.2408949,-0.50232 0.6430018,-1.81941 -0.07348,-2.478919 C 4.9420709,68.108353 3.465103,67.295196 2.697121,67.32721 Z"
           style="font-style:normal;font-variant:normal;font-weight:normal;font-stretch:normal;font-size:10.58333302px;line-height:6.61458349px;font-family:C059;-inkscape-font-specification:'C059, Normal';font-variant-ligatures:normal;font-variant-caps:normal;font-variant-numeric:normal;font-feature-settings:normal;text-align:start;letter-spacing:-0.63499981px;word-spacing:0px;writing-mode:lr-tb;text-anchor:start;fill:#a83852;fill-opacity:0.47540983;stroke:none;stroke-width:1.24923658" />
        <path
           inkscape:connector-curvature="0"
           id="path5494"
           d="m 12.284704,67.803666 c -0.828779,-0.0064 -2.237758,0.12396 -3.1657002,0.58601 -1.0605046,0.526055 -1.523745,1.644121 -0.2465515,2.286167 v 5.29e-4 c 1.2771937,0.641956 4.8481997,0.827109 6.0890987,0.324527 1.240894,-0.502319 0.153793,-1.691251 -0.56294,-2.350759 -0.716717,-0.659598 -1.064464,-0.788868 -1.79752,-0.836126 -0.09163,-0.0059 -0.197991,-0.0094 -0.316387,-0.01035 z"
           style="font-style:normal;font-variant:normal;font-weight:normal;font-stretch:normal;font-size:10.58333302px;line-height:6.61458349px;font-family:C059;-inkscape-font-specification:'C059, Normal';font-variant-ligatures:normal;font-variant-caps:normal;font-variant-numeric:normal;font-feature-settings:normal;text-align:start;letter-spacing:-0.63499981px;word-spacing:0px;writing-mode:lr-tb;text-anchor:start;fill:#a83852;fill-opacity:0.47540983;stroke:none;stroke-width:1.24923658" />
        <path
           inkscape:connector-curvature="0"
           id="path5492"
           d="m -1.3800913,70.432445 c -0.3509996,-0.01201 -0.7065378,0.05267 -0.852,0.136943 -0.2908741,0.168558 -0.3676362,0.647168 -0.1761083,1.066601 0.1914243,0.419434 1.3219517,0.271407 1.63962949,0.05581 0.31779655,-0.215162 0.46952106,-0.491856 0.21375913,-0.936377 C -0.6826663,70.533206 -1.0290913,70.444457 -1.3800913,70.432445 Z"
           style="font-style:normal;font-variant:normal;font-weight:normal;font-stretch:normal;font-size:10.58333302px;line-height:6.61458349px;font-family:C059;-inkscape-font-specification:'C059, Normal';font-variant-ligatures:normal;font-variant-caps:normal;font-variant-numeric:normal;font-feature-settings:normal;text-align:start;letter-spacing:-0.63499981px;word-spacing:0px;writing-mode:lr-tb;text-anchor:start;fill:#a83852;fill-opacity:0.47540983;stroke:none;stroke-width:1.24923658" />
        <path
           inkscape:connector-curvature="0"
           id="path5490"
           d="m 8.1668041,71.735724 c -0.2829179,0.0011 -0.537336,0.01318 -0.7293315,0.02119 -0.7680199,0.03484 -1.5037969,0.489903 -1.7574402,1.31 -0.2536644,0.820311 0.018407,2.338149 0.6400629,2.925402 0.6220742,0.587029 2.4508925,1.057913 3.3782445,0.595313 0.9273462,-0.462341 1.3843842,-3.360846 0.8325672,-4.16047 -0.413861,-0.599784 -1.5153489,-0.694994 -2.3641029,-0.691433 z"
           style="font-style:normal;font-variant:normal;font-weight:normal;font-stretch:normal;font-size:10.58333302px;line-height:6.61458349px;font-family:C059;-inkscape-font-specification:'C059, Normal';font-variant-ligatures:normal;font-variant-caps:normal;font-variant-numeric:normal;font-feature-settings:normal;text-align:start;letter-spacing:-0.63499981px;word-spacing:0px;writing-mode:lr-tb;text-anchor:start;fill:#a83852;fill-opacity:0.47540983;stroke:none;stroke-width:1.24923658" />
        <path
           inkscape:connector-curvature="0"
           id="path5488"
           d="m 15.503236,71.895405 c -0.694562,0.02655 -1.278965,0.26062 -1.881323,0.781349 -0.803152,0.694439 -1.637024,2.057144 -2.081723,3.031855 -0.446164,0.973111 0.0083,2.093812 1.477489,1.920815 v 5.29e-4 c 1.46935,-0.172911 4.400958,-1.917751 5.005728,-2.967779 0.604791,-1.049977 -0.740935,-2.58968 -1.78416,-2.726965 -0.260817,-0.03441 -0.504491,-0.04864 -0.736011,-0.03979 z"
           style="font-style:normal;font-variant:normal;font-weight:normal;font-stretch:normal;font-size:10.58333302px;line-height:6.61458349px;font-family:C059;-inkscape-font-specification:'C059, Normal';font-variant-ligatures:normal;font-variant-caps:normal;font-variant-numeric:normal;font-feature-settings:normal;text-align:start;letter-spacing:-0.63499981px;word-spacing:0px;writing-mode:lr-tb;text-anchor:start;fill:#a83852;fill-opacity:0.47540983;stroke:none;stroke-width:1.24923658" />
        <path
           inkscape:connector-curvature="0"
           id="path5480"
           d="m 0.55163547,72.348607 c -0.45757667,0.003 -0.86004701,0.05654 -1.11069738,0.177769 -0.66740759,0.325353 -1.20943729,0.861957 -1.87585769,1.740461 -0.6674841,0.87663 2.52338242,2.382334 3.26347029,2.423625 C 1.5684442,76.72966 3.3869819,75.783767 4.2280496,74.859048 5.0691157,73.934335 3.8368016,72.98815 2.847724,72.674685 2.2293899,72.478962 1.3142633,72.343684 0.55163547,72.348607 Z"
           style="font-style:normal;font-variant:normal;font-weight:normal;font-stretch:normal;font-size:10.58333302px;line-height:6.61458349px;font-family:C059;-inkscape-font-specification:'C059, Normal';font-variant-ligatures:normal;font-variant-caps:normal;font-variant-numeric:normal;font-feature-settings:normal;text-align:start;letter-spacing:-0.63499981px;word-spacing:0px;writing-mode:lr-tb;text-anchor:start;fill:#a83852;fill-opacity:0.47540983;stroke:none;stroke-width:1.24923658" />
        <path
           inkscape:connector-curvature="0"
           id="path5476"
           d="m 5.2683034,76.852726 c -0.7680186,0.0349 -1.53679,0.304795 -2.5972949,0.833025 -1.0605049,0.526057 0.9888827,3.095328 1.6274842,3.416329 v -5.29e-4 c 0.6385662,0.320561 2.7640479,0.173011 4.0049471,-0.329179 1.2408946,-0.50232 0.6430018,-1.819407 -0.07348,-2.478918 C 7.5132425,77.633863 6.036291,76.820746 5.2683034,76.852715 Z"
           style="font-style:normal;font-variant:normal;font-weight:normal;font-stretch:normal;font-size:10.58333302px;line-height:6.61458349px;font-family:C059;-inkscape-font-specification:'C059, Normal';font-variant-ligatures:normal;font-variant-caps:normal;font-variant-numeric:normal;font-feature-settings:normal;text-align:start;letter-spacing:-0.63499981px;word-spacing:0px;writing-mode:lr-tb;text-anchor:start;fill:#a83852;fill-opacity:0.47540983;stroke:none;stroke-width:1.24923658" />
        <path
           inkscape:connector-curvature="0"
           id="path5474"
           d="m -0.75035192,77.424784 c -0.94145548,0.0099 -1.97201668,0.871421 -2.45883728,1.26659 -0.5550043,0.4528 -0.7614312,1.207312 -0.3230678,1.96887 0.4385375,0.76173 1.8104232,1.758953 2.73210869,1.857251 0.92176198,0.0984 2.66721051,-0.564015 3.01327511,-1.429885 h 6.219e-4 C 2.560054,80.221729 0.67758825,77.774341 -0.35439727,77.47646 -0.48340238,77.43927 -0.6158438,77.42337 -0.75033731,77.42478 Z"
           style="font-style:normal;font-variant:normal;font-weight:normal;font-stretch:normal;font-size:10.58333302px;line-height:6.61458349px;font-family:C059;-inkscape-font-specification:'C059, Normal';font-variant-ligatures:normal;font-variant-caps:normal;font-variant-numeric:normal;font-feature-settings:normal;text-align:start;letter-spacing:-0.63499981px;word-spacing:0px;writing-mode:lr-tb;text-anchor:start;fill:#a83852;fill-opacity:0.47540983;stroke:none;stroke-width:1.24923658" />
        <path
           inkscape:connector-curvature="0"
           id="path5470"
           d="m 4.2207622,82.011585 c -0.7680184,0.0348 -1.5367913,0.304784 -2.597295,0.833022 -1.06049986,0.52605 0.989489,3.094813 1.6280915,3.415813 0.6385664,0.320559 2.7634453,0.173011 4.0043402,-0.329179 1.2408945,-0.502279 0.643609,-1.819936 -0.072872,-2.479434 C 6.4663084,82.792206 4.98875,81.979613 4.2207622,82.011585 Z"
           style="font-style:normal;font-variant:normal;font-weight:normal;font-stretch:normal;font-size:10.58333302px;line-height:6.61458349px;font-family:C059;-inkscape-font-specification:'C059, Normal';font-variant-ligatures:normal;font-variant-caps:normal;font-variant-numeric:normal;font-feature-settings:normal;text-align:start;letter-spacing:-0.63499981px;word-spacing:0px;writing-mode:lr-tb;text-anchor:start;fill:#a83852;fill-opacity:0.47540983;stroke:none;stroke-width:1.24923658" />
        <path
           inkscape:connector-curvature="0"
           id="path5468"
           d="m 13.478597,82.457551 c -1.055423,0.0218 -2.749615,0.423629 -3.23007,0.93431 -0.4788712,0.512471 -0.7494222,1.181687 -0.9868145,2.207617 -0.2392302,1.024591 2.9526515,0.923197 3.6581955,0.728638 0.705248,-0.194691 1.244282,-0.853818 1.623841,-1.977657 0.379575,-1.123849 -0.0099,-1.912898 -1.065152,-1.892908 z"
           style="font-style:normal;font-variant:normal;font-weight:normal;font-stretch:normal;font-size:10.58333302px;line-height:6.61458349px;font-family:C059;-inkscape-font-specification:'C059, Normal';font-variant-ligatures:normal;font-variant-caps:normal;font-variant-numeric:normal;font-feature-settings:normal;text-align:start;letter-spacing:-0.63499981px;word-spacing:0px;writing-mode:lr-tb;text-anchor:start;fill:#a83852;fill-opacity:0.47540983;stroke:none;stroke-width:1.24923658" />
        <path
           inkscape:connector-curvature="0"
           id="path5462"
           d="m -1.120787,83.570661 c -0.5070519,-0.01648 -1.0186746,0.04388 -1.1641368,0.128159 v -5.3e-4 c -0.2908741,0.168559 -0.3676362,0.647171 -0.1761083,1.066602 0.1914243,0.419439 1.95654919,0.334444 2.27422696,0.118853 C 0.1309914,84.668576 0.27239236,84.346932 0.01663043,83.902411 -0.11122489,83.680196 -0.6137345,83.587123 -1.120787,83.570647 Z"
           style="font-style:normal;font-variant:normal;font-weight:normal;font-stretch:normal;font-size:10.58333302px;line-height:6.61458349px;font-family:C059;-inkscape-font-specification:'C059, Normal';font-variant-ligatures:normal;font-variant-caps:normal;font-variant-numeric:normal;font-feature-settings:normal;text-align:start;letter-spacing:-0.63499981px;word-spacing:0px;writing-mode:lr-tb;text-anchor:start;fill:#a83852;fill-opacity:0.47540983;stroke:none;stroke-width:1.24923658" />
        <path
           inkscape:connector-curvature="0"
           id="path5460"
           d="M -0.02344964,85.747274 C -1.0561406,85.71468 -1.9554152,86.267852 -1.5877778,87.327022 -1.167564,88.537591 1.2968952,90.74407 2.6072452,91.0963 3.9175389,91.448661 4.07473,89.948751 4.078661,89.05043 4.0825382,88.152061 3.9316364,87.856077 3.4331327,87.396268 2.9348653,86.935978 1.6230472,86.0262 0.42410848,85.797399 c -0.14966527,-0.0288 -0.30003075,-0.04547 -0.44755812,-0.05012 z"
           style="font-style:normal;font-variant:normal;font-weight:normal;font-stretch:normal;font-size:10.58333302px;line-height:6.61458349px;font-family:C059;-inkscape-font-specification:'C059, Normal';font-variant-ligatures:normal;font-variant-caps:normal;font-variant-numeric:normal;font-feature-settings:normal;text-align:start;letter-spacing:-0.63499981px;word-spacing:0px;writing-mode:lr-tb;text-anchor:start;fill:#a83852;fill-opacity:0.47540983;stroke:none;stroke-width:1.24923658" />
        <path
           inkscape:connector-curvature="0"
           id="path4549-5"
           d="m 8.8323723,87.148737 c -1.0831314,0.0097 -2.3286462,0.04545 -2.6677382,0.252183 -0.6024776,0.368038 -1.3012159,2.082122 -1.2619076,3.250964 0.038897,1.168879 1.697416,1.234784 2.6956726,0.943094 0.9984293,-0.29138 2.4681179,-1.113583 2.7436469,-1.724443 0.273472,-0.61142 0.719724,-0.691255 0.579943,-1.730126 -0.06021,-0.454107 -1.2471813,-0.999217 -2.0896167,-0.991672 z"
           style="font-style:normal;font-variant:normal;font-weight:normal;font-stretch:normal;font-size:10.58333302px;line-height:6.61458349px;font-family:C059;-inkscape-font-specification:'C059, Normal';font-variant-ligatures:normal;font-variant-caps:normal;font-variant-numeric:normal;font-feature-settings:normal;text-align:start;letter-spacing:-0.63499981px;word-spacing:0px;writing-mode:lr-tb;text-anchor:start;fill:#a83852;fill-opacity:0.47540983;stroke:none;stroke-width:1.24923658" />
      </g>
      <path
         style="font-style:normal;font-variant:normal;font-weight:normal;font-stretch:normal;font-size:10.58333302px;line-height:6.61458349px;font-family:C059;-inkscape-font-specification:'C059, Normal';font-variant-ligatures:normal;font-variant-caps:normal;font-variant-numeric:normal;font-feature-settings:normal;text-align:start;letter-spacing:-0.63499981px;word-spacing:0px;writing-mode:lr-tb;text-anchor:start;fill:#3a3238;fill-opacity:1;stroke:none;stroke-width:1.24923658"
         d="m 10.054695,79.033992 v 2.16575 c 0,0 1.412472,0.0038 1.549868,0.0038 3.225579,0 3.89843,0.111535 4.201095,0.635766 0.326027,0.564696 0.27612,1.081871 0.27612,2.171609 0,1.98214 -0.377893,3.779712 -1.082105,4.886012 -1.354205,2.25867 -4.821149,3.82664 -8.3421258,3.82664 -3.5209703,0 -7.00418333,-1.5084 -8.8289188,-3.82664 -2.0213415,-2.568012 -5.255493,0.87592 -5.255493,0.87592 3.3584691,3.22667 8.34211847,5.11803 13.5423258,5.11803 4.5501818,0 7.7465588,-1.19943 11.2675288,-4.19561 l 2.005043,4.14807 h 1.745631 V 84.703922 c 0,-2.35087 4.3e-5,-2.44336 0.325046,-2.85822 0.487519,-0.50706 0.932804,-0.64596 4.020426,-0.64596 h 0.811837 v -2.16575 z"
         id="path5650-9"
         inkscape:connector-curvature="0"
         sodipodi:nodetypes="ccssscsscscccscsccc" />
      <path
         style="fill:#ffffc0;fill-opacity:0.5221843;stroke:none;stroke-width:0.26458332px;stroke-linecap:butt;stroke-linejoin:miter;stroke-opacity:1"
         d="m -8.9561702,69.239029 c -0.146036,0.319626 -0.87636,1.918071 -1.2843108,3.356754 -0.407952,1.438684 -0.639462,3.037206 -0.738713,4.012888 -0.09925,0.975681 -0.06618,1.328459 0.07731,1.471853 0.143486,0.143393 0.864765,-0.0046 1.0244888,-0.214177 0.159725,-0.209573 0.287316,-0.4805 0.392032,-1.384485 0.104717,-0.903984 0.248033,-2.359193 0.58433,-3.687637 0.336298,-1.328445 0.865465,-2.530095 1.174164,-3.208087 0.3087,-0.677991 0.16744,-0.85387 0.09046,-0.987197 -0.07698,-0.133326 -0.331842,-0.269618 -0.480509,-0.269712 -0.148667,-9.3e-5 -0.31854,0.06789 -0.453323,0.204298 -0.134783,0.136409 -0.239897,0.385877 -0.385933,0.705502 z"
         id="path5636"
         inkscape:connector-curvature="0"
         sodipodi:nodetypes="zzzzzzczzzzz" />
      <path
         style="fill:#ffffc0;fill-opacity:0.5221843;stroke:none;stroke-width:0.42657289px;stroke-linecap:butt;stroke-linejoin:miter;stroke-opacity:1"
         d="m -10.639787,78.669522 c -0.09816,0.03075 -0.294945,0.09241 -0.377857,0.296301 -0.08291,0.203894 -0.05156,0.548771 0.112178,0.746966 0.163739,0.198195 0.45876,0.248409 0.70373,0.144605 0.24497,-0.103805 0.440003,-0.361751 0.4682844,-0.573811 0.028281,-0.212059 -0.1100905,-0.379608 -0.2723534,-0.479527 -0.162262,-0.09992 -0.349037,-0.132601 -0.442429,-0.148943 -0.09339,-0.01634 -0.0934,-0.01634 -0.191553,0.01441 z"
         id="path5643"
         inkscape:connector-curvature="0"
         inkscape:path-effect="#path-effect5645-22"
         inkscape:original-d="m -10.541631,78.63877 c -0.196369,0.06132 -0.393159,0.122973 -0.590378,0.184967 0.03192,0.345938 0.06327,0.690815 0.09426,1.036863 0.296104,0.0499 0.591124,0.100124 0.886046,0.150809 0.1950038,-0.257769 0.3900348,-0.515717 0.5844128,-0.772932 -0.137556,-0.167221 -0.275928,-0.33477 -0.4143467,-0.501716 -0.1863711,-0.03296 -0.3731451,-0.06565 -0.5599891,-0.09799 z"
         sodipodi:nodetypes="ccccccc" />
      <path
         style="fill:#fafad6;fill-opacity:0.76791813;stroke:none;stroke-width:0.37789834px;stroke-linecap:butt;stroke-linejoin:miter;stroke-opacity:1"
         d="m -2.4805378,79.105298 c -0.1696903,0.01277 -0.3440257,0.06739 -0.4174779,0.248014 -0.073452,0.180629 -0.045679,0.486153 0.099376,0.661732 0.1450545,0.17558 0.4064105,0.220064 0.6234281,0.128104 0.2170175,-0.09196 0.389796,-0.320473 0.4148499,-0.508335 0.025054,-0.187862 -0.097529,-0.336292 -0.2412762,-0.424809 -0.1437473,-0.08852 -0.3092093,-0.117471 -0.4788996,-0.104706 z"
         id="path5643-9"
         inkscape:connector-curvature="0"
         inkscape:path-effect="#path-effect5645-2-0"
         inkscape:original-d="m -2.4763182,79.063577 c -0.173962,0.05432 -0.348297,0.108941 -0.523012,0.163861 0.02828,0.306465 0.05605,0.611989 0.0835,0.918551 0.262317,0.04421 0.523672,0.0887 0.784942,0.1336 0.172753,-0.228356 0.34553,-0.45687 0.517728,-0.684735 -0.12186,-0.148141 -0.244443,-0.296571 -0.367068,-0.444466 -0.165105,-0.0292 -0.330566,-0.05816 -0.49609,-0.08681 z"
         sodipodi:nodetypes="ccccccc" />
      <path
         style="fill:#fafad6;fill-opacity:0.76791813;stroke:none;stroke-width:0.32119113px;stroke-linecap:butt;stroke-linejoin:miter;stroke-opacity:1"
         d="m -1.4900702,74.303475 c -0.042567,0.06384 -0.1279031,0.191816 -0.075474,0.34581 0.052429,0.153994 0.2422128,0.333105 0.4371351,0.366947 0.19492236,0.03384 0.39371235,-0.07779 0.67311365,-0.360458 0.27940129,-0.282669 0.63989558,-0.736983 0.6919894,-1.001118 0.0520938,-0.264135 -0.20364727,-0.339148 -0.53551422,-0.210174 -0.33186695,0.128973 -0.74044363,0.462203 -0.94456293,0.62868 -0.2041193,0.166477 -0.2041203,0.166475 -0.2466873,0.230313 z"
         id="path5643-1"
         inkscape:connector-curvature="0"
         inkscape:path-effect="#path-effect5645-8-5"
         inkscape:original-d="m -1.4475032,74.239637 c -0.08526,0.127591 -0.170594,0.255571 -0.256015,0.383945 0.190648,0.179438 0.38043,0.358551 0.57058,0.538495 0.19927497,-0.112318 0.39806697,-0.223946 0.59703297,-0.335267 0.359878,-0.453811 0.720372,-0.908125 1.08021304,-1.361341 -0.25543404,-0.07524 -0.51117504,-0.150253 -0.76681704,-0.224919 -0.408303,0.332751 -0.81690097,0.665955 -1.22499297,0.999089 z"
         sodipodi:nodetypes="cccccccc" />
      <path
         style="fill:#fafad6;fill-opacity:0.76791813;stroke:none;stroke-width:0.37789834px;stroke-linecap:butt;stroke-linejoin:miter;stroke-opacity:1"
         d="M 1.2236288,68.191234 C 1.053939,68.204 0.87960374,68.25862 0.80615142,68.439248 c -0.0734523,0.180629 -0.0456788,0.486154 0.0993751,0.661733 0.1450539,0.175579 0.4064109,0.220064 0.6234279,0.128104 0.217017,-0.09196 0.3897959,-0.320474 0.41485,-0.508336 0.025054,-0.187862 -0.097529,-0.336292 -0.2412759,-0.424809 -0.1437471,-0.08852 -0.30921,-0.117471 -0.4788997,-0.104706 z"
         id="path5643-0"
         inkscape:connector-curvature="0"
         inkscape:path-effect="#path-effect5645-5-8"
         inkscape:original-d="m 1.2278488,68.149513 c -0.173962,0.05432 -0.34829699,0.108941 -0.52301199,0.163862 0.02828,0.306464 0.05605,0.611989 0.0835,0.91855 0.26231599,0.04421 0.52367199,0.0887 0.78494099,0.133601 0.172753,-0.228356 0.34553,-0.456871 0.517728,-0.684736 -0.12186,-0.14814 -0.244443,-0.29657 -0.367068,-0.444466 -0.165104,-0.0292 -0.330566,-0.05816 -0.496089,-0.08681 z"
         sodipodi:nodetypes="ccccccc" />
      <path
         style="fill:#fafad6;fill-opacity:0.76791813;stroke:none;stroke-width:0.37789834px;stroke-linecap:butt;stroke-linejoin:miter;stroke-opacity:1"
         d="m 4.6962848,64.652432 c -0.1696898,0.01277 -0.3440251,0.06739 -0.4174774,0.248014 -0.073452,0.180629 -0.045679,0.486153 0.099375,0.661732 0.1450539,0.17558 0.4064109,0.220064 0.6234281,0.128105 0.2170172,-0.09196 0.3897959,-0.320473 0.41485,-0.508336 0.025054,-0.187862 -0.097528,-0.336292 -0.2412757,-0.424809 -0.1437474,-0.08852 -0.3092104,-0.117471 -0.4789001,-0.104706 z"
         id="path5643-6"
         inkscape:connector-curvature="0"
         inkscape:path-effect="#path-effect5645-7-3"
         inkscape:original-d="m 4.7005048,64.610711 c -0.173962,0.05432 -0.348297,0.108941 -0.523012,0.163862 0.02828,0.306464 0.05605,0.611988 0.0835,0.91855 0.262316,0.04421 0.523672,0.0887 0.784942,0.133601 0.172752,-0.228356 0.345529,-0.456871 0.517727,-0.684736 -0.12186,-0.14814 -0.244442,-0.29657 -0.367067,-0.444466 -0.165105,-0.0292 -0.330567,-0.05816 -0.49609,-0.08681 z"
         sodipodi:nodetypes="ccccccc" />
      <path
         style="fill:#fafad6;fill-opacity:0.76791813;stroke:none;stroke-width:0.37789834px;stroke-linecap:butt;stroke-linejoin:miter;stroke-opacity:1"
         d="m 9.3264926,68.951912 c -0.1696895,0.01277 -0.3440247,0.06739 -0.4174771,0.248015 -0.073453,0.180628 -0.045679,0.486152 0.099375,0.661732 0.1450541,0.17558 0.4064111,0.220064 0.6234279,0.128104 0.2170168,-0.09196 0.3897967,-0.320473 0.4148507,-0.508335 0.02505,-0.187862 -0.097529,-0.336292 -0.2412766,-0.42481 -0.1437473,-0.08852 -0.3092103,-0.117471 -0.4788998,-0.104706 z"
         id="path5643-5"
         inkscape:connector-curvature="0"
         inkscape:path-effect="#path-effect5645-79-9"
         inkscape:original-d="m 9.3307128,68.910191 c -0.173962,0.05432 -0.348297,0.108941 -0.523012,0.163863 0.02828,0.306463 0.05605,0.611987 0.0835,0.91855 0.262316,0.04421 0.523672,0.0887 0.7849416,0.1336 0.172752,-0.228355 0.3455296,-0.456871 0.5177276,-0.684736 -0.12186,-0.148139 -0.2444426,-0.29657 -0.3670686,-0.444466 -0.165104,-0.0292 -0.330566,-0.05816 -0.4960886,-0.08681 z"
         sodipodi:nodetypes="ccccccc" />
      <path
         style="fill:#fafad6;fill-opacity:0.76791813;stroke:none;stroke-width:0.37789834px;stroke-linecap:butt;stroke-linejoin:miter;stroke-opacity:1"
         d="m 6.7468057,72.788371 c -0.1696897,0.01277 -0.3440247,0.06739 -0.4174771,0.248014 -0.073453,0.180629 -0.045679,0.486152 0.099375,0.661732 0.1450541,0.17558 0.4064111,0.220064 0.6234281,0.128104 0.2170171,-0.09196 0.3897956,-0.320473 0.4148496,-0.508335 0.025054,-0.187862 -0.097529,-0.336293 -0.2412757,-0.42481 -0.143747,-0.08852 -0.30921,-0.117471 -0.4788997,-0.104705 z"
         id="path5643-99"
         inkscape:connector-curvature="0"
         inkscape:path-effect="#path-effect5645-0-6"
         inkscape:original-d="m 6.7510258,72.74665 c -0.173962,0.05432 -0.348297,0.10894 -0.523012,0.163862 0.02828,0.306464 0.05605,0.611987 0.0835,0.91855 0.262316,0.04421 0.523672,0.0887 0.784941,0.1336 0.172753,-0.228356 0.34553,-0.45687 0.517728,-0.684735 -0.12186,-0.148141 -0.244443,-0.296571 -0.367068,-0.444467 -0.165104,-0.0292 -0.330566,-0.05816 -0.496089,-0.08681 z"
         sodipodi:nodetypes="ccccccc" />
      <path
         style="fill:#fafad6;fill-opacity:0.76791813;stroke:none;stroke-width:0.53050536px;stroke-linecap:butt;stroke-linejoin:miter;stroke-opacity:1"
         d="m 13.0491,74.532702 c -0.1378,0.199985 -0.413993,0.600819 -0.443574,0.840129 -0.02958,0.23931 0.187011,0.315844 0.538111,0.08096 0.3511,-0.234887 0.834572,-0.779342 1.165186,-1.289018 0.330614,-0.509677 0.508556,-0.984839 0.449643,-1.123004 -0.05891,-0.138164 -0.355738,0.0602 -0.657083,0.331186 -0.301344,0.270984 -0.607855,0.615318 -0.761165,0.787546 -0.15331,0.172228 -0.153319,0.17222 -0.291118,0.372205 z"
         id="path5643-51"
         inkscape:connector-curvature="0"
         inkscape:path-effect="#path-effect5645-4-7"
         inkscape:original-d="m 13.186899,74.332717 c -0.275705,0.399897 -0.551893,0.800734 -0.828593,1.202519 0.218009,0.07586 0.434598,0.152402 0.651195,0.230105 0.485001,-0.54665 0.968475,-1.091103 1.452028,-1.635179 0.177987,-0.47504 0.355924,-0.950204 0.533206,-1.423828 -0.295401,0.196938 -0.592227,0.395303 -0.888837,0.594 -0.30602,0.343458 -0.612539,0.687784 -0.91899,1.032391 z"
         sodipodi:nodetypes="ccccccc" />
      <path
         style="fill:#fafad6;fill-opacity:0.76791813;stroke:none;stroke-width:0.37789834px;stroke-linecap:butt;stroke-linejoin:miter;stroke-opacity:1"
         d="m 3.8694622,77.947745 c -0.1696902,0.01277 -0.3440255,0.06739 -0.4174778,0.248014 -0.073452,0.180628 -0.045679,0.486152 0.099375,0.661732 0.145054,0.17558 0.406411,0.220064 0.6234283,0.128105 C 4.3918049,78.893636 4.5645844,78.665122 4.5896384,78.47726 4.6146924,78.289398 4.4921097,78.140968 4.3483621,78.052451 4.2046145,77.963934 4.0391525,77.93498 3.8694622,77.947745 Z"
         id="path5643-2"
         inkscape:connector-curvature="0"
         inkscape:path-effect="#path-effect5645-46-5"
         inkscape:original-d="m 3.8736818,77.906024 c -0.173962,0.05432 -0.348297,0.108941 -0.523012,0.163862 0.02828,0.306463 0.05605,0.611987 0.0835,0.91855 0.262316,0.04421 0.523672,0.0887 0.784942,0.133601 0.172752,-0.228356 0.34553,-0.456872 0.517728,-0.684737 -0.121861,-0.148139 -0.244443,-0.296569 -0.367068,-0.444465 -0.165105,-0.0292 -0.330566,-0.05816 -0.49609,-0.08681 z"
         sodipodi:nodetypes="ccccccc" />
      <path
         style="fill:#fafad6;fill-opacity:0.76791813;stroke:none;stroke-width:0.37789834px;stroke-linecap:butt;stroke-linejoin:miter;stroke-opacity:1"
         d="m 2.6126912,82.97483 c -0.1696903,0.01277 -0.3440257,0.06739 -0.4174779,0.248014 -0.073452,0.180629 -0.045679,0.486153 0.099375,0.661732 0.1450539,0.17558 0.4064109,0.220064 0.6234287,0.128104 C 3.1350349,83.92072 3.3078129,83.692208 3.3328667,83.504345 3.3579206,83.316482 3.2353385,83.168053 3.091591,83.079536 2.9478435,82.991019 2.7823815,82.962065 2.6126912,82.97483 Z"
         id="path5643-06"
         inkscape:connector-curvature="0"
         inkscape:path-effect="#path-effect5645-1-5"
         inkscape:original-d="m 2.6169108,82.933109 c -0.173962,0.05432 -0.348297,0.108941 -0.523012,0.163861 0.02828,0.306465 0.05605,0.611989 0.0835,0.918551 0.262316,0.04421 0.523672,0.0887 0.784942,0.133601 0.172753,-0.228357 0.345529,-0.456871 0.517728,-0.684736 -0.121861,-0.148141 -0.244443,-0.29657 -0.367068,-0.444466 -0.165105,-0.0292 -0.330566,-0.05816 -0.49609,-0.08681 z"
         sodipodi:nodetypes="ccccccc" />
      <path
         style="fill:#fafad6;fill-opacity:0.76791813;stroke:none;stroke-width:0.37789834px;stroke-linecap:butt;stroke-linejoin:miter;stroke-opacity:1"
         d="m -0.61197013,86.168424 c -0.0869549,0.02724 -0.26129023,0.08186 -0.334743,0.262492 -0.0734528,0.180629 -0.0456794,0.486153 0.0993751,0.661732 0.14505447,0.17558 0.40641047,0.220064 0.6234278,0.128105 0.21701732,-0.09196 0.38979616,-0.320473 0.41485023,-0.508336 0.0250541,-0.187862 -0.09752842,-0.336292 -0.2412755,-0.424809 -0.14374708,-0.08852 -0.3092101,-0.117471 -0.39194488,-0.131948 -0.0827348,-0.01448 -0.0827348,-0.01448 -0.16968972,0.01276 z"
         id="path5643-92"
         inkscape:connector-curvature="0"
         inkscape:path-effect="#path-effect5645-73-3"
         inkscape:original-d="m -0.52501523,86.141181 c -0.173962,0.05432 -0.348297,0.108941 -0.52301297,0.163862 0.02828,0.306464 0.05605,0.611988 0.0835,0.91855 0.262317,0.04421 0.523672,0.0887 0.784942,0.133601 0.172752,-0.228356 0.345529,-0.456871 0.517728,-0.684736 -0.121861,-0.14814 -0.244443,-0.29657 -0.367068,-0.444466 -0.165104,-0.0292 -0.330566,-0.05816 -0.496089,-0.08681 z"
         sodipodi:nodetypes="ccccccc" />
      <path
         style="fill:#fafad6;fill-opacity:0.76791813;stroke:none;stroke-width:0.37789834px;stroke-linecap:butt;stroke-linejoin:miter;stroke-opacity:1"
         d="m 10.765111,83.754102 c -0.08695,0.02724 -0.26129,0.08186 -0.334742,0.262492 -0.07345,0.180629 -0.04568,0.486153 0.09937,0.661732 0.145054,0.17558 0.406412,0.220064 0.623429,0.128105 0.217018,-0.09196 0.389795,-0.320473 0.414849,-0.508336 0.02505,-0.187863 -0.09753,-0.336292 -0.241276,-0.424809 -0.143747,-0.08852 -0.309209,-0.117471 -0.391945,-0.131948 -0.08273,-0.01448 -0.08273,-0.01448 -0.169689,0.01276 z"
         id="path5643-8"
         inkscape:connector-curvature="0"
         inkscape:path-effect="#path-effect5645-84-8"
         inkscape:original-d="m 10.852066,83.726859 c -0.173962,0.05432 -0.348297,0.108941 -0.523012,0.163861 0.02828,0.306465 0.05605,0.611989 0.0835,0.918551 0.262315,0.04421 0.523672,0.0887 0.784942,0.133601 0.172752,-0.228357 0.345528,-0.456871 0.517727,-0.684736 -0.121861,-0.148141 -0.244443,-0.29657 -0.367068,-0.444466 -0.165105,-0.0292 -0.330566,-0.05816 -0.49609,-0.08681 z"
         sodipodi:nodetypes="ccccccc" />
      <path
         style="fill:#fafad6;fill-opacity:0.76791813;stroke:none;stroke-width:0.37789834px;stroke-linecap:butt;stroke-linejoin:miter;stroke-opacity:1"
         d="m 6.8460247,87.902694 c -0.1696898,0.01277 -0.3440252,0.06739 -0.4174774,0.248014 -0.073452,0.180629 -0.045679,0.486153 0.099375,0.661732 0.1450539,0.17558 0.4064109,0.220065 0.6234279,0.128105 0.217017,-0.09196 0.3897959,-0.320474 0.4148501,-0.508336 C 7.5912546,88.244347 7.4686723,88.095917 7.3249249,88.0074 7.1811775,87.918883 7.0157145,87.889929 6.8460247,87.902694 Z"
         id="path5643-96"
         inkscape:connector-curvature="0"
         inkscape:path-effect="#path-effect5645-56-0"
         inkscape:original-d="m 6.8502448,87.860973 c -0.173962,0.05432 -0.348297,0.108941 -0.523012,0.163861 0.02828,0.306465 0.05605,0.611989 0.0835,0.918551 0.262316,0.04421 0.523672,0.0887 0.784941,0.133601 0.172753,-0.228356 0.34553,-0.456871 0.517728,-0.684736 -0.12186,-0.14814 -0.244442,-0.29657 -0.367067,-0.444466 -0.165105,-0.0292 -0.330567,-0.05816 -0.49609,-0.08681 z"
         sodipodi:nodetypes="ccccccc" />
      <g
         style="fill:#a83852;fill-opacity:1;stroke:none"
         id="g246" />
    </g>
  </g>
</svg>
