<?xml version="1.0" encoding="UTF-8" standalone="no"?>
<!-- Created with Inkscape (http://www.inkscape.org/) -->

<svg
   xmlns:dc="http://purl.org/dc/elements/1.1/"
   xmlns:cc="http://creativecommons.org/ns#"
   xmlns:rdf="http://www.w3.org/1999/02/22-rdf-syntax-ns#"
   xmlns:svg="http://www.w3.org/2000/svg"
   xmlns="http://www.w3.org/2000/svg"
   xmlns:sodipodi="http://sodipodi.sourceforge.net/DTD/sodipodi-0.dtd"
   xmlns:inkscape="http://www.inkscape.org/namespaces/inkscape"
   width="38.484005mm"
   height="38.044369mm"
   viewBox="0 0 38.484004 38.044369"
   version="1.1"
   id="svg6143"
   inkscape:version="0.92.2 2405546, 2018-03-11"
   sodipodi:docname="granatumx_logo.svg"
   inkscape:export-filename="/home/xzhu/projects/GranatumX/webApp/public/favicon.ico.png"
   inkscape:export-xdpi="19.650078"
   inkscape:export-ydpi="19.650078">
  <defs
     id="defs6137">
    <inkscape:path-effect
       effect="bspline"
       id="path-effect5645-56-0-4"
       is_visible="true"
       weight="33.333333"
       steps="2"
       helper_size="0"
       apply_no_weight="true"
       apply_with_weight="true"
       only_selected="false" />
    <inkscape:path-effect
       effect="bspline"
       id="path-effect5645-84-8-7"
       is_visible="true"
       weight="33.333333"
       steps="2"
       helper_size="0"
       apply_no_weight="true"
       apply_with_weight="true"
       only_selected="false" />
    <inkscape:path-effect
       effect="bspline"
       id="path-effect5645-73-3-1"
       is_visible="true"
       weight="33.333333"
       steps="2"
       helper_size="0"
       apply_no_weight="true"
       apply_with_weight="true"
       only_selected="false" />
    <inkscape:path-effect
       effect="bspline"
       id="path-effect5645-1-5-2"
       is_visible="true"
       weight="33.333333"
       steps="2"
       helper_size="0"
       apply_no_weight="true"
       apply_with_weight="true"
       only_selected="false" />
    <inkscape:path-effect
       effect="bspline"
       id="path-effect5645-46-5-8"
       is_visible="true"
       weight="33.333333"
       steps="2"
       helper_size="0"
       apply_no_weight="true"
       apply_with_weight="true"
       only_selected="false" />
    <inkscape:path-effect
       effect="bspline"
       id="path-effect5645-4-7-9"
       is_visible="true"
       weight="33.333333"
       steps="2"
       helper_size="0"
       apply_no_weight="true"
       apply_with_weight="true"
       only_selected="false" />
    <inkscape:path-effect
       effect="bspline"
       id="path-effect5645-0-6-4"
       is_visible="true"
       weight="33.333333"
       steps="2"
       helper_size="0"
       apply_no_weight="true"
       apply_with_weight="true"
       only_selected="false" />
    <inkscape:path-effect
       effect="bspline"
       id="path-effect5645-79-9-5"
       is_visible="true"
       weight="33.333333"
       steps="2"
       helper_size="0"
       apply_no_weight="true"
       apply_with_weight="true"
       only_selected="false" />
    <inkscape:path-effect
       effect="bspline"
       id="path-effect5645-7-3-7"
       is_visible="true"
       weight="33.333333"
       steps="2"
       helper_size="0"
       apply_no_weight="true"
       apply_with_weight="true"
       only_selected="false" />
    <inkscape:path-effect
       effect="bspline"
       id="path-effect5645-5-8-9"
       is_visible="true"
       weight="33.333333"
       steps="2"
       helper_size="0"
       apply_no_weight="true"
       apply_with_weight="true"
       only_selected="false" />
    <inkscape:path-effect
       effect="bspline"
       id="path-effect5645-8-5-6"
       is_visible="true"
       weight="33.333333"
       steps="2"
       helper_size="0"
       apply_no_weight="true"
       apply_with_weight="true"
       only_selected="false" />
    <inkscape:path-effect
       effect="bspline"
       id="path-effect5645-2-0-9"
       is_visible="true"
       weight="33.333333"
       steps="2"
       helper_size="0"
       apply_no_weight="true"
       apply_with_weight="true"
       only_selected="false" />
    <inkscape:path-effect
       effect="bspline"
       id="path-effect5645-22-7"
       is_visible="true"
       weight="33.333333"
       steps="2"
       helper_size="0"
       apply_no_weight="true"
       apply_with_weight="true"
       only_selected="false" />
    <inkscape:path-effect
       effect="bspline"
       id="path-effect5645-56-0"
       is_visible="true"
       weight="33.333333"
       steps="2"
       helper_size="0"
       apply_no_weight="true"
       apply_with_weight="true"
       only_selected="false" />
    <inkscape:path-effect
       effect="bspline"
       id="path-effect5645-84-8"
       is_visible="true"
       weight="33.333333"
       steps="2"
       helper_size="0"
       apply_no_weight="true"
       apply_with_weight="true"
       only_selected="false" />
    <inkscape:path-effect
       effect="bspline"
       id="path-effect5645-73-3"
       is_visible="true"
       weight="33.333333"
       steps="2"
       helper_size="0"
       apply_no_weight="true"
       apply_with_weight="true"
       only_selected="false" />
    <inkscape:path-effect
       effect="bspline"
       id="path-effect5645-1-5"
       is_visible="true"
       weight="33.333333"
       steps="2"
       helper_size="0"
       apply_no_weight="true"
       apply_with_weight="true"
       only_selected="false" />
    <inkscape:path-effect
       effect="bspline"
       id="path-effect5645-46-5"
       is_visible="true"
       weight="33.333333"
       steps="2"
       helper_size="0"
       apply_no_weight="true"
       apply_with_weight="true"
       only_selected="false" />
    <inkscape:path-effect
       effect="bspline"
       id="path-effect5645-4-7"
       is_visible="true"
       weight="33.333333"
       steps="2"
       helper_size="0"
       apply_no_weight="true"
       apply_with_weight="true"
       only_selected="false" />
    <inkscape:path-effect
       effect="bspline"
       id="path-effect5645-0-6"
       is_visible="true"
       weight="33.333333"
       steps="2"
       helper_size="0"
       apply_no_weight="true"
       apply_with_weight="true"
       only_selected="false" />
    <inkscape:path-effect
       effect="bspline"
       id="path-effect5645-79-9"
       is_visible="true"
       weight="33.333333"
       steps="2"
       helper_size="0"
       apply_no_weight="true"
       apply_with_weight="true"
       only_selected="false" />
    <inkscape:path-effect
       effect="bspline"
       id="path-effect5645-7-3"
       is_visible="true"
       weight="33.333333"
       steps="2"
       helper_size="0"
       apply_no_weight="true"
       apply_with_weight="true"
       only_selected="false" />
    <inkscape:path-effect
       effect="bspline"
       id="path-effect5645-5-8"
       is_visible="true"
       weight="33.333333"
       steps="2"
       helper_size="0"
       apply_no_weight="true"
       apply_with_weight="true"
       only_selected="false" />
    <inkscape:path-effect
       effect="bspline"
       id="path-effect5645-8-5"
       is_visible="true"
       weight="33.333333"
       steps="2"
       helper_size="0"
       apply_no_weight="true"
       apply_with_weight="true"
       only_selected="false" />
    <inkscape:path-effect
       effect="bspline"
       id="path-effect5645-2-0"
       is_visible="true"
       weight="33.333333"
       steps="2"
       helper_size="0"
       apply_no_weight="true"
       apply_with_weight="true"
       only_selected="false" />
    <inkscape:path-effect
       effect="bspline"
       id="path-effect5645-22"
       is_visible="true"
       weight="33.333333"
       steps="2"
       helper_size="0"
       apply_no_weight="true"
       apply_with_weight="true"
       only_selected="false" />
  </defs>
  <sodipodi:namedview
     id="base"
     pagecolor="#ffffff"
     bordercolor="#666666"
     borderopacity="1.0"
     inkscape:pageopacity="0.0"
     inkscape:pageshadow="2"
     inkscape:zoom="1.979899"
     inkscape:cx="199.45071"
     inkscape:cy="4.9902092"
     inkscape:document-units="mm"
     inkscape:current-layer="layer1"
     showgrid="false"
     fit-margin-top="0"
     fit-margin-left="0"
     fit-margin-right="0"
     fit-margin-bottom="0"
     inkscape:window-width="1920"
     inkscape:window-height="1055"
     inkscape:window-x="0"
     inkscape:window-y="0"
     inkscape:window-maximized="1"
     showguides="false" />
  <metadata
     id="metadata6140">
    <rdf:RDF>
      <cc:Work
         rdf:about="">
        <dc:format>image/svg+xml</dc:format>
        <dc:type
           rdf:resource="http://purl.org/dc/dcmitype/StillImage" />
        <dc:title></dc:title>
      </cc:Work>
    </rdf:RDF>
  </metadata>
  <g
     inkscape:label="Layer 1"
     inkscape:groupmode="layer"
     id="layer1"
     transform="translate(10.374775,-93.397371)">
    <path
       style="font-style:normal;font-variant:normal;font-weight:normal;font-stretch:normal;font-size:10.58333302px;line-height:6.61458349px;font-family:C059;-inkscape-font-specification:'C059, Normal';font-variant-ligatures:normal;font-variant-caps:normal;font-variant-numeric:normal;font-feature-settings:normal;text-align:start;letter-spacing:-0.63499981px;word-spacing:0px;writing-mode:lr-tb;text-anchor:start;fill:#c3374c;fill-opacity:1;stroke:none;stroke-width:1.24923658"
       d="m -3.9007522,93.397371 c 0,0 0.911279,2.49873 0.468706,2.71611 -0.442574,0.21739 -2.215541,-1.71546 -2.277898,-1.67173 -0.05984,0.0436 0.744124,2.44732 0.344166,2.73265 -0.399959,0.28533 -2.286683,-1.7911 -2.286683,-1.7911 0,0 1.595708,4.874769 -0.306958,9.486239 -1.41566,3.43108 -2.4153558,5.58406 -2.4153558,9.83764 0,4.70175 1.5701538,8.62011 4.7661168,11.61634 3.35847,3.22669 8.342118,5.11804 13.542326,5.11804 4.5501822,0 7.7465582,-1.19942 11.2675292,-4.19561 l 2.005043,4.14807 h 1.74563 v -10.13944 c 0,-2.35088 4e-5,-2.44336 0.32505,-2.85822 0.48752,-0.50706 0.9328,-0.64595 4.02042,-0.64595 h 0.81184 v -2.16576 h -4.69015 c 0.0352,-0.3614 0.28601,-3.11942 -0.10181,-5.48701 -0.49962,-3.05017 -2.09394,-6.01896 -4.589379,-8.83667 -2.588868,-2.923229 -6.244537,-4.483439 -10.1988612,-4.483439 -1.419902,0 -2.738186,0.11155 -3.99097,0.34674 -1.456601,0.27353 -2.484711,0.22192 -3.51193,-0.15657 -1.63966102,-0.60433 -4.926832,-3.57033 -4.926832,-3.57033 z"
       id="path5650"
       inkscape:connector-curvature="0" />
    <path
       style="font-style:normal;font-variant:normal;font-weight:normal;font-stretch:normal;font-size:10.58333302px;line-height:6.61458349px;font-family:C059;-inkscape-font-specification:'C059, Normal';font-variant-ligatures:normal;font-variant-caps:normal;font-variant-numeric:normal;font-feature-settings:normal;text-align:start;letter-spacing:-0.63499981px;word-spacing:0px;writing-mode:lr-tb;text-anchor:start;fill:#fafacb;fill-opacity:1;stroke:none;stroke-width:1.24923658"
       d="m 8.3119398,98.942771 c 6.1752472,0 11.1415322,5.232729 13.0271102,11.221019 0.918,2.91541 0.24549,4.92581 0.045,5.42086 h -3.494875 v 2.16576 c 0,0 0.01085,0.22995 0.01085,2.81119 0,1.98214 -0.377891,3.77971 -1.082103,4.88601 -1.354206,2.25867 -4.821152,3.82664 -8.3421282,3.82664 -3.52097,0 -6.98718,-1.52189 -8.82891902,-3.82664 -2.00424298,-2.58138 -2.87217598,-5.80819 -2.87217598,-10.74043 0,-10.27932 4.00781598,-15.764409 11.537281,-15.764409 z"
       id="path5504"
       inkscape:connector-curvature="0" />
    <g
       transform="translate(1.8182568,36.550661)"
       id="g5796"
       style="font-style:normal;font-weight:normal;font-size:10.58333302px;line-height:6.61458349px;font-family:sans-serif;letter-spacing:0px;word-spacing:0px;fill:#a83852;fill-opacity:0.47540983;stroke:none;stroke-width:0.26458332">
      <path
         inkscape:connector-curvature="0"
         id="path5502"
         d="m 6.3626043,63.285594 c -0.2750304,-0.0021 -0.5150932,0.024 -0.6922882,0.08733 -0.7083893,0.255669 -1.3214993,0.733642 -2.106013,1.538409 -0.7853706,0.802846 2.1724888,2.620883 2.9015371,2.736784 0.7288629,0.115855 2.6664963,-0.641342 3.6308688,-1.47433 C 11.061101,65.340803 9.9704016,64.27631 9.0321641,63.864889 8.3275988,63.557498 7.1876959,63.292325 6.3626043,63.285594 Z"
         style="font-style:normal;font-variant:normal;font-weight:normal;font-stretch:normal;font-size:10.58333302px;line-height:6.61458349px;font-family:C059;-inkscape-font-specification:'C059, Normal';font-variant-ligatures:normal;font-variant-caps:normal;font-variant-numeric:normal;font-feature-settings:normal;text-align:start;letter-spacing:-0.63499981px;word-spacing:0px;writing-mode:lr-tb;text-anchor:start;fill:#a83852;fill-opacity:0.47540983;stroke:none;stroke-width:1.24923658" />
      <path
         inkscape:connector-curvature="0"
         id="path5498"
         d="m 1.3186178,64.959912 c -0.2256121,0.01225 -0.44205292,0.118252 -0.64613552,0.374136 -0.32649739,0.409419 0.32615352,1.199955 0.64249182,1.331185 0.3161067,0.131101 0.8428508,-0.04971 1.1756752,-0.399457 C 2.82339,65.916028 2.1116393,65.154277 1.7339905,65.026573 1.5926098,64.978554 1.453985,64.952561 1.3186178,64.959912 Z"
         style="font-style:normal;font-variant:normal;font-weight:normal;font-stretch:normal;font-size:10.58333302px;line-height:6.61458349px;font-family:C059;-inkscape-font-specification:'C059, Normal';font-variant-ligatures:normal;font-variant-caps:normal;font-variant-numeric:normal;font-feature-settings:normal;text-align:start;letter-spacing:-0.63499981px;word-spacing:0px;writing-mode:lr-tb;text-anchor:start;fill:#a83852;fill-opacity:0.47540983;stroke:none;stroke-width:1.24923658" />
      <path
         inkscape:connector-curvature="0"
         id="path5496"
         d="m 2.697121,67.32721 c -0.7680242,0.03484 -1.53679,0.304787 -2.59729459,0.833022 -1.06049896,0.526058 0.98888269,3.095374 1.62748419,3.416329 0.6385662,0.320567 2.7640538,0.172493 4.0049471,-0.329694 1.2408949,-0.50232 0.6430018,-1.81941 -0.07348,-2.478919 C 4.9420709,68.108353 3.465103,67.295196 2.697121,67.32721 Z"
         style="font-style:normal;font-variant:normal;font-weight:normal;font-stretch:normal;font-size:10.58333302px;line-height:6.61458349px;font-family:C059;-inkscape-font-specification:'C059, Normal';font-variant-ligatures:normal;font-variant-caps:normal;font-variant-numeric:normal;font-feature-settings:normal;text-align:start;letter-spacing:-0.63499981px;word-spacing:0px;writing-mode:lr-tb;text-anchor:start;fill:#a83852;fill-opacity:0.47540983;stroke:none;stroke-width:1.24923658" />
      <path
         inkscape:connector-curvature="0"
         id="path5494"
         d="m 12.284704,67.803666 c -0.828779,-0.0064 -2.237758,0.12396 -3.1657002,0.58601 -1.0605046,0.526055 -1.523745,1.644121 -0.2465515,2.286167 v 5.29e-4 c 1.2771937,0.641956 4.8481997,0.827109 6.0890987,0.324527 1.240894,-0.502319 0.153793,-1.691251 -0.56294,-2.350759 -0.716717,-0.659598 -1.064464,-0.788868 -1.79752,-0.836126 -0.09163,-0.0059 -0.197991,-0.0094 -0.316387,-0.01035 z"
         style="font-style:normal;font-variant:normal;font-weight:normal;font-stretch:normal;font-size:10.58333302px;line-height:6.61458349px;font-family:C059;-inkscape-font-specification:'C059, Normal';font-variant-ligatures:normal;font-variant-caps:normal;font-variant-numeric:normal;font-feature-settings:normal;text-align:start;letter-spacing:-0.63499981px;word-spacing:0px;writing-mode:lr-tb;text-anchor:start;fill:#a83852;fill-opacity:0.47540983;stroke:none;stroke-width:1.24923658" />
      <path
         inkscape:connector-curvature="0"
         id="path5492"
         d="m -1.3800913,70.432445 c -0.3509996,-0.01201 -0.7065378,0.05267 -0.852,0.136943 -0.2908741,0.168558 -0.3676362,0.647168 -0.1761083,1.066601 0.1914243,0.419434 1.3219517,0.271407 1.63962949,0.05581 0.31779655,-0.215162 0.46952106,-0.491856 0.21375913,-0.936377 C -0.6826663,70.533206 -1.0290913,70.444457 -1.3800913,70.432445 Z"
         style="font-style:normal;font-variant:normal;font-weight:normal;font-stretch:normal;font-size:10.58333302px;line-height:6.61458349px;font-family:C059;-inkscape-font-specification:'C059, Normal';font-variant-ligatures:normal;font-variant-caps:normal;font-variant-numeric:normal;font-feature-settings:normal;text-align:start;letter-spacing:-0.63499981px;word-spacing:0px;writing-mode:lr-tb;text-anchor:start;fill:#a83852;fill-opacity:0.47540983;stroke:none;stroke-width:1.24923658" />
      <path
         inkscape:connector-curvature="0"
         id="path5490"
         d="m 8.1668041,71.735724 c -0.2829179,0.0011 -0.537336,0.01318 -0.7293315,0.02119 -0.7680199,0.03484 -1.5037969,0.489903 -1.7574402,1.31 -0.2536644,0.820311 0.018407,2.338149 0.6400629,2.925402 0.6220742,0.587029 2.4508925,1.057913 3.3782445,0.595313 0.9273462,-0.462341 1.3843842,-3.360846 0.8325672,-4.16047 -0.413861,-0.599784 -1.5153489,-0.694994 -2.3641029,-0.691433 z"
         style="font-style:normal;font-variant:normal;font-weight:normal;font-stretch:normal;font-size:10.58333302px;line-height:6.61458349px;font-family:C059;-inkscape-font-specification:'C059, Normal';font-variant-ligatures:normal;font-variant-caps:normal;font-variant-numeric:normal;font-feature-settings:normal;text-align:start;letter-spacing:-0.63499981px;word-spacing:0px;writing-mode:lr-tb;text-anchor:start;fill:#a83852;fill-opacity:0.47540983;stroke:none;stroke-width:1.24923658" />
      <path
         inkscape:connector-curvature="0"
         id="path5488"
         d="m 15.503236,71.895405 c -0.694562,0.02655 -1.278965,0.26062 -1.881323,0.781349 -0.803152,0.694439 -1.637024,2.057144 -2.081723,3.031855 -0.446164,0.973111 0.0083,2.093812 1.477489,1.920815 v 5.29e-4 c 1.46935,-0.172911 4.400958,-1.917751 5.005728,-2.967779 0.604791,-1.049977 -0.740935,-2.58968 -1.78416,-2.726965 -0.260817,-0.03441 -0.504491,-0.04864 -0.736011,-0.03979 z"
         style="font-style:normal;font-variant:normal;font-weight:normal;font-stretch:normal;font-size:10.58333302px;line-height:6.61458349px;font-family:C059;-inkscape-font-specification:'C059, Normal';font-variant-ligatures:normal;font-variant-caps:normal;font-variant-numeric:normal;font-feature-settings:normal;text-align:start;letter-spacing:-0.63499981px;word-spacing:0px;writing-mode:lr-tb;text-anchor:start;fill:#a83852;fill-opacity:0.47540983;stroke:none;stroke-width:1.24923658" />
      <path
         inkscape:connector-curvature="0"
         id="path5480"
         d="m 0.55163547,72.348607 c -0.45757667,0.003 -0.86004701,0.05654 -1.11069738,0.177769 -0.66740759,0.325353 -1.20943729,0.861957 -1.87585769,1.740461 -0.6674841,0.87663 2.52338242,2.382334 3.26347029,2.423625 C 1.5684442,76.72966 3.3869819,75.783767 4.2280496,74.859048 5.0691157,73.934335 3.8368016,72.98815 2.847724,72.674685 2.2293899,72.478962 1.3142633,72.343684 0.55163547,72.348607 Z"
         style="font-style:normal;font-variant:normal;font-weight:normal;font-stretch:normal;font-size:10.58333302px;line-height:6.61458349px;font-family:C059;-inkscape-font-specification:'C059, Normal';font-variant-ligatures:normal;font-variant-caps:normal;font-variant-numeric:normal;font-feature-settings:normal;text-align:start;letter-spacing:-0.63499981px;word-spacing:0px;writing-mode:lr-tb;text-anchor:start;fill:#a83852;fill-opacity:0.47540983;stroke:none;stroke-width:1.24923658" />
      <path
         inkscape:connector-curvature="0"
         id="path5476"
         d="m 5.2683034,76.852726 c -0.7680186,0.0349 -1.53679,0.304795 -2.5972949,0.833025 -1.0605049,0.526057 0.9888827,3.095328 1.6274842,3.416329 v -5.29e-4 c 0.6385662,0.320561 2.7640479,0.173011 4.0049471,-0.329179 1.2408946,-0.50232 0.6430018,-1.819407 -0.07348,-2.478918 C 7.5132425,77.633863 6.036291,76.820746 5.2683034,76.852715 Z"
         style="font-style:normal;font-variant:normal;font-weight:normal;font-stretch:normal;font-size:10.58333302px;line-height:6.61458349px;font-family:C059;-inkscape-font-specification:'C059, Normal';font-variant-ligatures:normal;font-variant-caps:normal;font-variant-numeric:normal;font-feature-settings:normal;text-align:start;letter-spacing:-0.63499981px;word-spacing:0px;writing-mode:lr-tb;text-anchor:start;fill:#a83852;fill-opacity:0.47540983;stroke:none;stroke-width:1.24923658" />
      <path
         inkscape:connector-curvature="0"
         id="path5474"
         d="m -0.75035192,77.424784 c -0.94145548,0.0099 -1.97201668,0.871421 -2.45883728,1.26659 -0.5550043,0.4528 -0.7614312,1.207312 -0.3230678,1.96887 0.4385375,0.76173 1.8104232,1.758953 2.73210869,1.857251 0.92176198,0.0984 2.66721051,-0.564015 3.01327511,-1.429885 h 6.219e-4 C 2.560054,80.221729 0.67758825,77.774341 -0.35439727,77.47646 -0.48340238,77.43927 -0.6158438,77.42337 -0.75033731,77.42478 Z"
         style="font-style:normal;font-variant:normal;font-weight:normal;font-stretch:normal;font-size:10.58333302px;line-height:6.61458349px;font-family:C059;-inkscape-font-specification:'C059, Normal';font-variant-ligatures:normal;font-variant-caps:normal;font-variant-numeric:normal;font-feature-settings:normal;text-align:start;letter-spacing:-0.63499981px;word-spacing:0px;writing-mode:lr-tb;text-anchor:start;fill:#a83852;fill-opacity:0.47540983;stroke:none;stroke-width:1.24923658" />
      <path
         inkscape:connector-curvature="0"
         id="path5470"
         d="m 4.2207622,82.011585 c -0.7680184,0.0348 -1.5367913,0.304784 -2.597295,0.833022 -1.06049986,0.52605 0.989489,3.094813 1.6280915,3.415813 0.6385664,0.320559 2.7634453,0.173011 4.0043402,-0.329179 1.2408945,-0.502279 0.643609,-1.819936 -0.072872,-2.479434 C 6.4663084,82.792206 4.98875,81.979613 4.2207622,82.011585 Z"
         style="font-style:normal;font-variant:normal;font-weight:normal;font-stretch:normal;font-size:10.58333302px;line-height:6.61458349px;font-family:C059;-inkscape-font-specification:'C059, Normal';font-variant-ligatures:normal;font-variant-caps:normal;font-variant-numeric:normal;font-feature-settings:normal;text-align:start;letter-spacing:-0.63499981px;word-spacing:0px;writing-mode:lr-tb;text-anchor:start;fill:#a83852;fill-opacity:0.47540983;stroke:none;stroke-width:1.24923658" />
      <path
         inkscape:connector-curvature="0"
         id="path5468"
         d="m 13.478597,82.457551 c -1.055423,0.0218 -2.749615,0.423629 -3.23007,0.93431 -0.4788712,0.512471 -0.7494222,1.181687 -0.9868145,2.207617 -0.2392302,1.024591 2.9526515,0.923197 3.6581955,0.728638 0.705248,-0.194691 1.244282,-0.853818 1.623841,-1.977657 0.379575,-1.123849 -0.0099,-1.912898 -1.065152,-1.892908 z"
         style="font-style:normal;font-variant:normal;font-weight:normal;font-stretch:normal;font-size:10.58333302px;line-height:6.61458349px;font-family:C059;-inkscape-font-specification:'C059, Normal';font-variant-ligatures:normal;font-variant-caps:normal;font-variant-numeric:normal;font-feature-settings:normal;text-align:start;letter-spacing:-0.63499981px;word-spacing:0px;writing-mode:lr-tb;text-anchor:start;fill:#a83852;fill-opacity:0.47540983;stroke:none;stroke-width:1.24923658" />
      <path
         inkscape:connector-curvature="0"
         id="path5462"
         d="m -1.120787,83.570661 c -0.5070519,-0.01648 -1.0186746,0.04388 -1.1641368,0.128159 v -5.3e-4 c -0.2908741,0.168559 -0.3676362,0.647171 -0.1761083,1.066602 0.1914243,0.419439 1.95654919,0.334444 2.27422696,0.118853 C 0.1309914,84.668576 0.27239236,84.346932 0.01663043,83.902411 -0.11122489,83.680196 -0.6137345,83.587123 -1.120787,83.570647 Z"
         style="font-style:normal;font-variant:normal;font-weight:normal;font-stretch:normal;font-size:10.58333302px;line-height:6.61458349px;font-family:C059;-inkscape-font-specification:'C059, Normal';font-variant-ligatures:normal;font-variant-caps:normal;font-variant-numeric:normal;font-feature-settings:normal;text-align:start;letter-spacing:-0.63499981px;word-spacing:0px;writing-mode:lr-tb;text-anchor:start;fill:#a83852;fill-opacity:0.47540983;stroke:none;stroke-width:1.24923658" />
      <path
         inkscape:connector-curvature="0"
         id="path5460"
         d="M -0.02344964,85.747274 C -1.0561406,85.71468 -1.9554152,86.267852 -1.5877778,87.327022 -1.167564,88.537591 1.2968952,90.74407 2.6072452,91.0963 3.9175389,91.448661 4.07473,89.948751 4.078661,89.05043 4.0825382,88.152061 3.9316364,87.856077 3.4331327,87.396268 2.9348653,86.935978 1.6230472,86.0262 0.42410848,85.797399 c -0.14966527,-0.0288 -0.30003075,-0.04547 -0.44755812,-0.05012 z"
         style="font-style:normal;font-variant:normal;font-weight:normal;font-stretch:normal;font-size:10.58333302px;line-height:6.61458349px;font-family:C059;-inkscape-font-specification:'C059, Normal';font-variant-ligatures:normal;font-variant-caps:normal;font-variant-numeric:normal;font-feature-settings:normal;text-align:start;letter-spacing:-0.63499981px;word-spacing:0px;writing-mode:lr-tb;text-anchor:start;fill:#a83852;fill-opacity:0.47540983;stroke:none;stroke-width:1.24923658" />
      <path
         inkscape:connector-curvature="0"
         id="path4549-5"
         d="m 8.8323723,87.148737 c -1.0831314,0.0097 -2.3286462,0.04545 -2.6677382,0.252183 -0.6024776,0.368038 -1.3012159,2.082122 -1.2619076,3.250964 0.038897,1.168879 1.697416,1.234784 2.6956726,0.943094 0.9984293,-0.29138 2.4681179,-1.113583 2.7436469,-1.724443 0.273472,-0.61142 0.719724,-0.691255 0.579943,-1.730126 -0.06021,-0.454107 -1.2471813,-0.999217 -2.0896167,-0.991672 z"
         style="font-style:normal;font-variant:normal;font-weight:normal;font-stretch:normal;font-size:10.58333302px;line-height:6.61458349px;font-family:C059;-inkscape-font-specification:'C059, Normal';font-variant-ligatures:normal;font-variant-caps:normal;font-variant-numeric:normal;font-feature-settings:normal;text-align:start;letter-spacing:-0.63499981px;word-spacing:0px;writing-mode:lr-tb;text-anchor:start;fill:#a83852;fill-opacity:0.47540983;stroke:none;stroke-width:1.24923658" />
    </g>
    <path
       style="font-style:normal;font-variant:normal;font-weight:normal;font-stretch:normal;font-size:10.58333302px;line-height:6.61458349px;font-family:C059;-inkscape-font-specification:'C059, Normal';font-variant-ligatures:normal;font-variant-caps:normal;font-variant-numeric:normal;font-feature-settings:normal;text-align:start;letter-spacing:-0.63499981px;word-spacing:0px;writing-mode:lr-tb;text-anchor:start;fill:#3a3238;fill-opacity:1;stroke:none;stroke-width:1.24923658"
       d="m 11.872952,115.58465 v 2.16575 c 0,0 1.412472,0.004 1.549868,0.004 3.225579,0 3.89843,0.11153 4.201095,0.63576 0.326027,0.5647 0.276122,1.08188 0.276122,2.17161 0,1.98214 -0.377894,3.77972 -1.082106,4.88602 -1.354205,2.25867 -4.82115,3.82664 -8.3421262,3.82664 -3.520971,0 -7.004184,-1.5084 -8.82891902,-3.82664 -2.02134198,-2.56802 -5.25549298,0.87592 -5.25549298,0.87592 3.358469,3.22667 8.342118,5.11803 13.542326,5.11803 4.5501812,0 7.7465592,-1.19943 11.2675282,-4.19561 l 2.005043,4.14807 h 1.74563 v -10.13942 c 0,-2.35087 4e-5,-2.44336 0.32505,-2.85822 0.48752,-0.50706 0.9328,-0.64596 4.02042,-0.64596 h 0.81184 v -2.16575 z"
       id="path5650-9"
       inkscape:connector-curvature="0"
       sodipodi:nodetypes="ccssscsscscccscsccc" />
    <path
       style="font-style:normal;font-weight:normal;font-size:10.58333302px;line-height:6.61458349px;font-family:sans-serif;letter-spacing:0px;word-spacing:0px;fill:#ffffc0;fill-opacity:0.5221843;stroke:none;stroke-width:0.26458332px;stroke-linecap:butt;stroke-linejoin:miter;stroke-opacity:1"
       d="m -7.1379132,105.78969 c -0.146036,0.31962 -0.87636,1.91807 -1.284311,3.35675 -0.407952,1.43868 -0.639462,3.03721 -0.738713,4.01289 -0.09925,0.97568 -0.06618,1.32846 0.07731,1.47185 0.143486,0.14339 0.864765,-0.005 1.024489,-0.21418 0.159725,-0.20957 0.287316,-0.4805 0.392032,-1.38448 0.104717,-0.90398 0.248033,-2.35919 0.58433,-3.68764 0.336298,-1.32844 0.865465,-2.53009 1.174164,-3.20808 0.3087,-0.67799 0.16744,-0.85387 0.09046,-0.9872 -0.07698,-0.13333 -0.331842,-0.26962 -0.480509,-0.26971 -0.148667,-9e-5 -0.31854,0.0679 -0.453323,0.2043 -0.134783,0.13641 -0.239897,0.38587 -0.385933,0.7055 z"
       id="path5636"
       inkscape:connector-curvature="0"
       sodipodi:nodetypes="zzzzzzczzzzz" />
    <path
       style="font-style:normal;font-weight:normal;font-size:10.58333302px;line-height:6.61458349px;font-family:sans-serif;letter-spacing:0px;word-spacing:0px;fill:#ffffc0;fill-opacity:0.5221843;stroke:none;stroke-width:0.42657289px;stroke-linecap:butt;stroke-linejoin:miter;stroke-opacity:1"
       d="m -8.8215272,115.22018 c -0.098153,0.0307 -0.2949481,0.0924 -0.3778602,0.2963 -0.082912,0.20389 -0.05156,0.54877 0.1121785,0.74697 0.1637382,0.19819 0.4587592,0.24841 0.7037291,0.1446 0.2449699,-0.1038 0.4400026,-0.36175 0.4682843,-0.57381 0.028282,-0.21206 -0.1100917,-0.37961 -0.2723563,-0.47953 -0.1622647,-0.0999 -0.3490241,-0.1326 -0.4424207,-0.14895 -0.093397,-0.0163 -0.093402,-0.0163 -0.1915547,0.0144 z"
       id="path5643"
       inkscape:connector-curvature="0"
       inkscape:path-effect="#path-effect5645-22"
       inkscape:original-d="m -8.7233742,115.18943 c -0.196369,0.0613 -0.393159,0.12297 -0.590378,0.18496 0.03192,0.34594 0.06327,0.69082 0.09426,1.03687 0.296104,0.0499 0.591124,0.10012 0.886046,0.15081 0.195004,-0.25777 0.390035,-0.51572 0.584413,-0.77294 -0.137556,-0.16722 -0.275928,-0.33477 -0.414347,-0.50171 -0.186371,-0.033 -0.373145,-0.0656 -0.559989,-0.098 z"
       sodipodi:nodetypes="ccccccc" />
    <path
       style="font-style:normal;font-weight:normal;font-size:10.58333302px;line-height:6.61458349px;font-family:sans-serif;letter-spacing:0px;word-spacing:0px;fill:#fafad6;fill-opacity:0.76791813;stroke:none;stroke-width:0.37789834px;stroke-linecap:butt;stroke-linejoin:miter;stroke-opacity:1"
       d="m -0.74501287,115.64147 c -0.0869516,0.0272 -0.26129443,0.0819 -0.33474643,0.2625 -0.073452,0.18063 -0.045679,0.48615 0.0993751,0.66173 0.14505402,0.17558 0.40641174,0.22007 0.62342982,0.12811 0.21701809,-0.092 0.38979389,-0.32047 0.41484837,-0.50834 0.02505449,-0.18786 -0.0975294,-0.33629 -0.24127626,-0.4248 -0.14374687,-0.0885 -0.30921628,-0.11747 -0.3919476,-0.13194 -0.0827313,-0.0145 -0.0827313,-0.0145 -0.16968297,0.0127 z"
       id="path5643-9"
       inkscape:connector-curvature="0"
       inkscape:path-effect="#path-effect5645-2-0"
       inkscape:original-d="m -0.65806122,115.61423 c -0.173962,0.0543 -0.34829698,0.10895 -0.52301198,0.16387 0.02828,0.30646 0.05605,0.61198 0.0835,0.91855 0.26231698,0.0442 0.52367198,0.0887 0.78494198,0.1336 0.172753,-0.22836 0.34553,-0.45687 0.517728,-0.68474 -0.12186,-0.14814 -0.244443,-0.29657 -0.367068,-0.44446 -0.165105,-0.0292 -0.330566,-0.0582 -0.49609,-0.0868 z"
       sodipodi:nodetypes="ccccccc" />
    <path
       style="font-style:normal;font-weight:normal;font-size:10.58333302px;line-height:6.61458349px;font-family:sans-serif;letter-spacing:0px;word-spacing:0px;fill:#fafad6;fill-opacity:0.76791813;stroke:none;stroke-width:0.32119113px;stroke-linecap:butt;stroke-linejoin:miter;stroke-opacity:1"
       d="m 0.32818514,110.85413 c -0.0425686,0.0638 -0.12790411,0.19182 -0.0754725,0.34581 0.0524316,0.154 0.2422144,0.33311 0.43713494,0.36695 0.19492053,0.0338 0.39371239,-0.0778 0.67311379,-0.36046 0.2794014,-0.28266 0.6398988,-0.73698 0.6919967,-1.00111 0.052098,-0.26413 -0.2036558,-0.33915 -0.5355216,-0.21018 -0.3318657,0.12897 -0.74044037,0.4622 -0.94456104,0.62868 -0.20412068,0.16648 -0.20412168,0.16647 -0.24669032,0.23031 z"
       id="path5643-1"
       inkscape:connector-curvature="0"
       inkscape:path-effect="#path-effect5645-8-5"
       inkscape:original-d="m 0.37075378,110.79029 c -0.08526,0.1276 -0.170594,0.25558 -0.256015,0.38395 0.190648,0.17944 0.38043,0.35855 0.57058,0.53849 0.199275,-0.11231 0.39806702,-0.22394 0.59703302,-0.33526 0.359878,-0.45381 0.720372,-0.90813 1.080213,-1.36134 -0.255434,-0.0752 -0.511175,-0.15026 -0.766817,-0.22492 -0.408303,0.33275 -0.81690102,0.66595 -1.22499302,0.99909 z"
       sodipodi:nodetypes="cccccccc" />
    <path
       style="font-style:normal;font-weight:normal;font-size:10.58333302px;line-height:6.61458349px;font-family:sans-serif;letter-spacing:0px;word-spacing:0px;fill:#fafad6;fill-opacity:0.76791813;stroke:none;stroke-width:0.37789834px;stroke-linecap:butt;stroke-linejoin:miter;stroke-opacity:1"
       d="m 2.9591537,104.72741 c -0.086952,0.0272 -0.2612931,0.0819 -0.3347451,0.2625 -0.073452,0.18063 -0.045679,0.48615 0.099374,0.66173 0.1450528,0.17558 0.4064109,0.22007 0.6234291,0.12811 0.2170181,-0.092 0.3897987,-0.32048 0.4148516,-0.50834 0.025053,-0.18786 -0.097529,-0.33629 -0.2412774,-0.42481 -0.143748,-0.0885 -0.3092183,-0.11747 -0.3919492,-0.13194 -0.082731,-0.0145 -0.082731,-0.0145 -0.1696829,0.0128 z"
       id="path5643-0"
       inkscape:connector-curvature="0"
       inkscape:path-effect="#path-effect5645-5-8"
       inkscape:original-d="m 3.0461058,104.70017 c -0.173962,0.0543 -0.348297,0.10894 -0.523012,0.16386 0.02828,0.30647 0.05605,0.61199 0.0835,0.91855 0.262316,0.0442 0.523672,0.0887 0.784941,0.13361 0.172753,-0.22836 0.34553,-0.45688 0.517728,-0.68474 -0.12186,-0.14814 -0.244443,-0.29657 -0.367068,-0.44447 -0.165104,-0.0292 -0.330566,-0.0582 -0.496089,-0.0868 z"
       sodipodi:nodetypes="ccccccc" />
    <path
       style="font-style:normal;font-weight:normal;font-size:10.58333302px;line-height:6.61458349px;font-family:sans-serif;letter-spacing:0px;word-spacing:0px;fill:#fafad6;fill-opacity:0.76791813;stroke:none;stroke-width:0.37789834px;stroke-linecap:butt;stroke-linejoin:miter;stroke-opacity:1"
       d="m 6.4318097,101.18861 c -0.086952,0.0272 -0.2612931,0.0819 -0.3347451,0.2625 -0.073452,0.18063 -0.045679,0.48615 0.099374,0.66173 0.1450531,0.17557 0.4064118,0.22006 0.623428,0.1281 0.2170162,-0.092 0.3897982,-0.32047 0.4148519,-0.50833 0.025054,-0.18786 -0.097528,-0.33629 -0.2412763,-0.42481 -0.1437484,-0.0885 -0.3092188,-0.11747 -0.3919497,-0.13194 -0.082731,-0.0145 -0.082731,-0.0145 -0.1696829,0.0127 z"
       id="path5643-6"
       inkscape:connector-curvature="0"
       inkscape:path-effect="#path-effect5645-7-3"
       inkscape:original-d="m 6.5187618,101.16137 c -0.173962,0.0543 -0.348297,0.10894 -0.523012,0.16386 0.02828,0.30647 0.05605,0.61199 0.0835,0.91855 0.262316,0.0442 0.523672,0.0887 0.784942,0.1336 0.172752,-0.22835 0.345529,-0.45687 0.517727,-0.68473 -0.12186,-0.14814 -0.244442,-0.29657 -0.367067,-0.44447 -0.165105,-0.0292 -0.330567,-0.0582 -0.49609,-0.0868 z"
       sodipodi:nodetypes="ccccccc" />
    <path
       style="font-style:normal;font-weight:normal;font-size:10.58333302px;line-height:6.61458349px;font-family:sans-serif;letter-spacing:0px;word-spacing:0px;fill:#fafad6;fill-opacity:0.76791813;stroke:none;stroke-width:0.37789834px;stroke-linecap:butt;stroke-linejoin:miter;stroke-opacity:1"
       d="m 11.062018,105.48809 c -0.08695,0.0272 -0.261293,0.0819 -0.334745,0.2625 -0.07345,0.18063 -0.04568,0.48615 0.09937,0.66173 0.145053,0.17557 0.406412,0.22006 0.623428,0.1281 0.217016,-0.092 0.389798,-0.32047 0.414852,-0.50833 0.02505,-0.18786 -0.09753,-0.33629 -0.241277,-0.42481 -0.143748,-0.0885 -0.309218,-0.11747 -0.391949,-0.13194 -0.08273,-0.0145 -0.08273,-0.0145 -0.169683,0.0127 z"
       id="path5643-5"
       inkscape:connector-curvature="0"
       inkscape:path-effect="#path-effect5645-79-9"
       inkscape:original-d="m 11.14897,105.46085 c -0.173962,0.0543 -0.348297,0.10894 -0.523012,0.16386 0.02828,0.30647 0.05605,0.61199 0.0835,0.91855 0.262316,0.0442 0.523672,0.0887 0.784942,0.1336 0.172752,-0.22835 0.345529,-0.45687 0.517727,-0.68473 -0.12186,-0.14814 -0.244442,-0.29657 -0.367068,-0.44447 -0.165104,-0.0292 -0.330566,-0.0582 -0.496089,-0.0868 z"
       sodipodi:nodetypes="ccccccc" />
    <path
       style="font-style:normal;font-weight:normal;font-size:10.58333302px;line-height:6.61458349px;font-family:sans-serif;letter-spacing:0px;word-spacing:0px;fill:#fafad6;fill-opacity:0.76791813;stroke:none;stroke-width:0.37789834px;stroke-linecap:butt;stroke-linejoin:miter;stroke-opacity:1"
       d="m 8.4823307,109.32455 c -0.086952,0.0272 -0.2612931,0.0819 -0.3347455,0.26249 -0.073453,0.18063 -0.045679,0.48616 0.099374,0.66174 0.1450531,0.17557 0.4064118,0.22006 0.6234294,0.1281 0.2170176,-0.092 0.3897934,-0.32047 0.4148479,-0.50834 0.025054,-0.18786 -0.097529,-0.33629 -0.2412758,-0.4248 -0.1437464,-0.0885 -0.3092167,-0.11747 -0.3919476,-0.13194 -0.082731,-0.0145 -0.082731,-0.0145 -0.1696829,0.0127 z"
       id="path5643-99"
       inkscape:connector-curvature="0"
       inkscape:path-effect="#path-effect5645-0-6"
       inkscape:original-d="m 8.5692828,109.29731 c -0.173962,0.0543 -0.348297,0.10894 -0.523012,0.16386 0.02828,0.30646 0.05605,0.61199 0.0835,0.91855 0.262316,0.0442 0.523672,0.0887 0.784941,0.1336 0.172753,-0.22836 0.34553,-0.45687 0.517728,-0.68474 -0.12186,-0.14814 -0.244443,-0.29657 -0.367068,-0.44446 -0.165104,-0.0292 -0.330566,-0.0582 -0.496089,-0.0868 z"
       sodipodi:nodetypes="ccccccc" />
    <path
       style="font-style:normal;font-weight:normal;font-size:10.58333302px;line-height:6.61458349px;font-family:sans-serif;letter-spacing:0px;word-spacing:0px;fill:#fafad6;fill-opacity:0.76791813;stroke:none;stroke-width:0.53050536px;stroke-linecap:butt;stroke-linejoin:miter;stroke-opacity:1"
       d="m 14.867357,111.08336 c -0.1378,0.19998 -0.413994,0.60082 -0.443568,0.84013 -0.02957,0.23931 0.187008,0.31584 0.538107,0.081 0.351099,-0.23489 0.834569,-0.77934 1.165184,-1.28902 0.330615,-0.50968 0.508555,-0.98484 0.449642,-1.12301 -0.05891,-0.13816 -0.355735,0.0602 -0.657081,0.33119 -0.301345,0.27098 -0.607858,0.61532 -0.761167,0.78754 -0.153308,0.17223 -0.153317,0.17222 -0.291117,0.37221 z"
       id="path5643-51"
       inkscape:connector-curvature="0"
       inkscape:path-effect="#path-effect5645-4-7"
       inkscape:original-d="m 15.005157,110.88337 c -0.275705,0.3999 -0.551893,0.80074 -0.828593,1.20252 0.218009,0.0759 0.434598,0.15241 0.651195,0.23011 0.485001,-0.54665 0.968475,-1.0911 1.452028,-1.63518 0.177987,-0.47504 0.355922,-0.9502 0.533206,-1.42383 -0.295402,0.19694 -0.592227,0.3953 -0.888837,0.594 -0.30602,0.34346 -0.612539,0.68779 -0.91899,1.03239 z"
       sodipodi:nodetypes="ccccccc" />
    <path
       style="font-style:normal;font-weight:normal;font-size:10.58333302px;line-height:6.61458349px;font-family:sans-serif;letter-spacing:0px;word-spacing:0px;fill:#fafad6;fill-opacity:0.76791813;stroke:none;stroke-width:0.37789834px;stroke-linecap:butt;stroke-linejoin:miter;stroke-opacity:1"
       d="m 5.6049867,114.48392 c -0.086952,0.0272 -0.2612931,0.0819 -0.3347451,0.2625 -0.073452,0.18063 -0.045679,0.48615 0.099374,0.66173 0.1450531,0.17557 0.4064118,0.22006 0.6234281,0.1281 0.2170163,-0.092 0.3897989,-0.32047 0.4148524,-0.50833 0.025054,-0.18786 -0.097528,-0.33629 -0.2412768,-0.42481 -0.1437485,-0.0885 -0.309218,-0.11747 -0.3919493,-0.13194 -0.082731,-0.0145 -0.082731,-0.0145 -0.1696834,0.0127 z"
       id="path5643-2"
       inkscape:connector-curvature="0"
       inkscape:path-effect="#path-effect5645-46-5"
       inkscape:original-d="m 5.6919388,114.45668 c -0.173962,0.0543 -0.348297,0.10894 -0.523012,0.16386 0.02828,0.30647 0.05605,0.61199 0.0835,0.91855 0.262316,0.0442 0.523672,0.0887 0.784942,0.1336 0.172752,-0.22835 0.34553,-0.45687 0.517728,-0.68473 -0.121861,-0.14814 -0.244443,-0.29657 -0.367068,-0.44447 -0.165105,-0.0292 -0.330566,-0.0582 -0.49609,-0.0868 z"
       sodipodi:nodetypes="ccccccc" />
    <path
       style="font-style:normal;font-weight:normal;font-size:10.58333302px;line-height:6.61458349px;font-family:sans-serif;letter-spacing:0px;word-spacing:0px;fill:#fafad6;fill-opacity:0.76791813;stroke:none;stroke-width:0.37789834px;stroke-linecap:butt;stroke-linejoin:miter;stroke-opacity:1"
       d="m 4.3482157,119.51101 c -0.086952,0.0272 -0.2612931,0.0819 -0.3347455,0.26249 -0.073453,0.18063 -0.045679,0.48616 0.099374,0.66174 0.1450531,0.17557 0.4064118,0.22006 0.6234299,0.1281 0.2170181,-0.092 0.3897935,-0.32047 0.414848,-0.50834 0.025055,-0.18786 -0.097529,-0.33629 -0.2412759,-0.4248 -0.1437468,-0.0885 -0.3092163,-0.11747 -0.3919476,-0.13194 -0.082731,-0.0145 -0.082731,-0.0145 -0.1696834,0.0127 z"
       id="path5643-06"
       inkscape:connector-curvature="0"
       inkscape:path-effect="#path-effect5645-1-5"
       inkscape:original-d="m 4.4351678,119.48377 c -0.173962,0.0543 -0.348297,0.10894 -0.523012,0.16386 0.02828,0.30646 0.05605,0.61199 0.0835,0.91855 0.262316,0.0442 0.523672,0.0887 0.784942,0.1336 0.172753,-0.22836 0.345529,-0.45687 0.517728,-0.68474 -0.121861,-0.14814 -0.244443,-0.29657 -0.367068,-0.44446 -0.165105,-0.0292 -0.330566,-0.0582 -0.49609,-0.0868 z"
       sodipodi:nodetypes="ccccccc" />
    <path
       style="font-style:normal;font-weight:normal;font-size:10.58333302px;line-height:6.61458349px;font-family:sans-serif;letter-spacing:0px;word-spacing:0px;fill:#fafad6;fill-opacity:0.76791813;stroke:none;stroke-width:0.37789834px;stroke-linecap:butt;stroke-linejoin:miter;stroke-opacity:1"
       d="m 1.2062897,122.71908 c -0.086952,0.0272 -0.26129315,0.0819 -0.33474606,0.26249 -0.0734529,0.18063 -0.045679,0.48616 0.0993746,0.66174 0.14505358,0.17557 0.40641128,0.22006 0.62342758,0.1281 0.2170163,-0.092 0.3897985,-0.32047 0.4148522,-0.50833 0.025054,-0.18786 -0.097533,-0.3363 -0.2412786,-0.42481 -0.1437456,-0.0885 -0.3092159,-0.11747 -0.3919468,-0.13194 -0.082731,-0.0145 -0.082731,-0.0145 -0.1696829,0.0128 z"
       id="path5643-92"
       inkscape:connector-curvature="0"
       inkscape:path-effect="#path-effect5645-73-3"
       inkscape:original-d="m 1.2932418,122.69184 c -0.173962,0.0543 -0.34829702,0.10894 -0.52301302,0.16386 0.02828,0.30646 0.05605,0.61199 0.0835,0.91855 0.26231702,0.0442 0.52367202,0.0887 0.78494202,0.1336 0.172752,-0.22835 0.345529,-0.45687 0.517728,-0.68473 -0.121861,-0.14814 -0.244443,-0.29658 -0.367068,-0.44447 -0.165104,-0.0292 -0.330566,-0.0582 -0.496089,-0.0868 z"
       sodipodi:nodetypes="ccccccc" />
    <path
       style="font-style:normal;font-weight:normal;font-size:10.58333302px;line-height:6.61458349px;font-family:sans-serif;letter-spacing:0px;word-spacing:0px;fill:#fafad6;fill-opacity:0.76791813;stroke:none;stroke-width:0.37789834px;stroke-linecap:butt;stroke-linejoin:miter;stroke-opacity:1"
       d="m 12.583372,120.30476 c -0.08695,0.0272 -0.261293,0.0819 -0.334746,0.26249 -0.07345,0.18063 -0.04568,0.48616 0.09937,0.66174 0.145053,0.17557 0.406413,0.22006 0.62343,0.1281 0.217018,-0.092 0.389793,-0.32047 0.414848,-0.50834 0.02505,-0.18786 -0.09753,-0.33629 -0.241277,-0.4248 -0.143747,-0.0885 -0.309215,-0.11747 -0.391947,-0.13194 -0.08273,-0.0145 -0.08273,-0.0145 -0.169682,0.0127 z"
       id="path5643-8"
       inkscape:connector-curvature="0"
       inkscape:path-effect="#path-effect5645-84-8"
       inkscape:original-d="m 12.670324,120.27752 c -0.173962,0.0543 -0.348297,0.10894 -0.523012,0.16386 0.02828,0.30646 0.05605,0.61199 0.0835,0.91855 0.262315,0.0442 0.523672,0.0887 0.784941,0.1336 0.172752,-0.22836 0.345529,-0.45687 0.517728,-0.68474 -0.121861,-0.14814 -0.244443,-0.29657 -0.367068,-0.44446 -0.165106,-0.0292 -0.330566,-0.0582 -0.496091,-0.0868 z"
       sodipodi:nodetypes="ccccccc" />
    <path
       style="font-style:normal;font-weight:normal;font-size:10.58333302px;line-height:6.61458349px;font-family:sans-serif;letter-spacing:0px;word-spacing:0px;fill:#fafad6;fill-opacity:0.76791813;stroke:none;stroke-width:0.37789834px;stroke-linecap:butt;stroke-linejoin:miter;stroke-opacity:1"
       d="m 8.5815497,124.43887 c -0.086952,0.0272 -0.2612931,0.0819 -0.3347451,0.2625 -0.073452,0.18063 -0.045679,0.48615 0.099374,0.66173 0.1450531,0.17557 0.4064118,0.22006 0.6234278,0.1281 0.217016,-0.092 0.3897982,-0.32047 0.414852,-0.50833 0.025054,-0.18786 -0.097528,-0.33629 -0.2412762,-0.42481 -0.1437484,-0.0885 -0.3092188,-0.11747 -0.3919497,-0.13194 -0.082731,-0.0145 -0.082731,-0.0145 -0.1696829,0.0127 z"
       id="path5643-96"
       inkscape:connector-curvature="0"
       inkscape:path-effect="#path-effect5645-56-0"
       inkscape:original-d="m 8.6685018,124.41163 c -0.173962,0.0543 -0.348297,0.10894 -0.523012,0.16386 0.02828,0.30647 0.05605,0.61199 0.0835,0.91855 0.262316,0.0442 0.523672,0.0887 0.784941,0.1336 0.172753,-0.22835 0.34553,-0.45687 0.517728,-0.68473 -0.12186,-0.14814 -0.244442,-0.29657 -0.367067,-0.44447 -0.165105,-0.0292 -0.330567,-0.0582 -0.49609,-0.0868 z"
       sodipodi:nodetypes="ccccccc" />
  </g>
</svg>
